<svg width="190" height="190" viewBox="0 0 190 190" fill="none" xmlns="http://www.w3.org/2000/svg">
<g filter="url(#filter0_d_692_4101)">
<path d="M54.778 24.1471C54.9077 23.9512 55.1171 23.8513 55.3518 23.842C59.6485 23.6716 64.5118 23.7891 68.8324 23.7946L92.6872 23.8335L120.467 23.9506C125.176 23.9688 130.252 23.8411 134.929 24.0011C135.163 24.0091 135.386 24.0959 135.547 24.266C137.934 26.792 142.962 36.6015 144.728 39.7056L162.009 70.288L170.694 85.5681C171.639 87.2319 174.954 92.9225 175.658 94.9131C175.726 95.1042 175.714 95.3079 175.638 95.4959C174.717 97.7709 172.091 102.126 170.884 104.238L161.785 120.136L145.55 148.5C142.489 153.868 139.436 159.312 136.287 164.628C135.872 165.328 135.544 165.714 134.886 166.083C134.779 166.142 134.662 166.178 134.541 166.188C132.828 166.335 128.627 166.175 126.823 166.164L110.567 166.108C92.0801 166.149 73.5929 166.08 55.1068 165.899C54.7666 165.896 54.4513 165.72 54.2719 165.431C51.4373 160.866 48.3759 155.067 45.7223 150.383L25.3761 114.438C21.9816 108.431 18.1403 101.166 14.5126 95.3406C14.3474 95.0753 14.3174 94.756 14.4576 94.4767C17.5599 88.2985 51.6444 28.8824 54.778 24.1471Z" fill="#FBB69A"/>
<path d="M56.959 22.791C60.8542 22.6987 65.0835 22.7901 68.834 22.7949L92.6885 22.834H92.6914L120.472 22.9502L120.471 22.9512C125.136 22.9691 130.269 22.8413 134.964 23.002C135.362 23.0157 135.785 23.1491 136.131 23.4434L136.274 23.5791L136.531 23.8652C137.146 24.5803 137.854 25.6142 138.586 26.7744C139.433 28.1182 140.351 29.6942 141.242 31.2783C142.134 32.8638 143.007 34.4664 143.764 35.8623C144.144 36.5632 144.494 37.209 144.803 37.7754L145.598 39.2109L145.599 39.2139L162.879 69.7939L171.563 85.0742L172.638 86.9551C173.094 87.7569 173.622 88.6921 174.142 89.6357C175.164 91.4926 176.215 93.4904 176.601 94.5791C176.738 94.9679 176.73 95.3664 176.619 95.7217L176.565 95.8711C175.85 97.6396 174.158 100.589 172.863 102.817L171.752 104.734L162.652 120.633L146.418 148.995C143.362 154.354 140.302 159.812 137.147 165.138C136.676 165.934 136.234 166.473 135.375 166.955C135.141 167.086 134.885 167.162 134.626 167.185C132.854 167.337 128.532 167.174 126.816 167.164V167.163L110.564 167.107C92.075 167.149 73.5851 167.079 55.0967 166.898C54.4177 166.892 53.7836 166.541 53.4219 165.958C50.5742 161.372 47.4825 155.518 44.8525 150.876H44.8516L24.5059 114.931C21.0898 108.885 17.2772 101.672 13.6641 95.8691C13.3363 95.3428 13.2498 94.6535 13.5635 94.0283L13.9463 93.29C16.2952 88.8537 25.0287 73.461 33.7383 58.2734C43.0256 42.0784 52.3544 25.9973 53.9443 23.5947L54.0791 23.418C54.4126 23.0349 54.8747 22.8601 55.3125 22.8428L56.959 22.791Z" stroke="white" stroke-width="2"/>
</g>
<path d="M59.315 28.565C62.1949 28.382 68.6047 28.6426 71.7624 28.6504L99.1339 28.6836L120.798 28.7057C123.961 28.7093 130.129 28.5566 133.035 28.9412C134.197 29.9696 140.382 41.1983 141.61 43.3562L157.288 70.9059L165.958 86.089C167.431 88.6686 169.85 92.6893 171 95.299C170.434 96.6523 168.897 99.1919 168.116 100.549L162.86 109.657L145.59 139.619L136.672 155.124C135.587 157.009 134.311 159.326 133.079 161.158C132.807 161.562 131.984 161.482 131.476 161.5L56.9267 161.299C44.1131 139.299 31.8409 116.84 19 94.8707L47.0741 46.2263C49.6299 41.8861 54.5116 32.5558 57.1582 28.9842C57.7532 28.5481 58.5558 28.6015 59.315 28.565Z" fill="white"/>
<path d="M71.6187 43.1825C73.4757 42.7951 77.4282 42.862 79.3919 42.8522C83.9821 42.8294 88.6213 43.0052 93.2156 42.9507C104.623 42.8153 116.627 41.9226 128.002 42.3786C127.518 45.518 127.275 47.4363 127.511 50.6415C128.121 58.9033 133.013 65.2815 134.605 73.2146C136.271 81.7958 137.28 90.5051 137.623 99.2579C137.711 101.995 137.344 110.179 137.75 112.348C137.734 112.454 137.594 113.373 137.594 113.373C136.406 115.168 130.9 120.67 128.819 120.323C128.527 120.271 128.237 120.208 127.951 120.131C121.697 119.94 110.821 119.736 104.115 119.95C103.985 120.075 103.873 120.183 103.78 120.272C100.916 127.661 46.9425 132.981 42.8053 119.184C42.2419 117.305 46.1538 110.642 46.9043 108.592C47.7918 106.167 46.3478 103.544 48.6987 101.837C48.9973 101.618 50.4856 99.8443 51.0043 99.3642C54.2619 96.3475 58.3082 92.8924 62.7509 92.432C62.7386 91.4126 63.1958 87.8656 63.3543 86.5731C64.365 78.3278 65.5482 69.796 67.847 61.8285C68.681 58.9787 70.4941 56.7937 71.3273 53.9193C71.942 51.7993 70.2285 44.3333 71.6187 43.1825Z" fill="#FB9B74"/>
<path d="M62.9254 90.5155L63.2202 90.7267L63.4173 89.75L63.4894 90.4591C64.2251 90.7608 65.5043 90.5581 66.3796 90.7079C68.0476 90.9931 70.3634 91.5222 71.9113 92.1727L72.2046 92.0153C75.0839 91.6429 79.3419 94.2948 83.2275 92.7861C86.5047 93.9597 89.8785 95.3244 92.9588 97.0151C93.9128 97.5384 95.8211 99.5392 96.3528 99.7405C99.8347 101.06 99.2277 105.55 100.777 108.945C101.209 109.893 103.559 114.441 103.75 115.355C103.601 117.258 105.228 117.809 104.098 119.227L104.06 119.886L104.312 119.867C101.424 127.656 46.9791 133.265 42.8057 118.719C42.2375 116.738 46.1835 109.714 46.9406 107.552C47.8358 104.996 46.3792 102.23 48.7506 100.43C49.0518 100.2 50.5532 98.33 51.0763 97.8238C54.3624 94.6435 58.444 91.0009 62.9254 90.5155Z" fill="#D44C0F"/>
<path d="M95.1588 110.139C96.692 109.707 98.0548 109.253 99.5525 108.75C100.56 110.819 104.302 116.125 104.5 117.412C101.938 120.766 91.7741 121.327 87.0838 121.974C77.3518 123.315 67.502 123.249 57.7143 122.31C52.6129 122.118 46.0693 121.138 42.8467 117.779C42.7566 117.398 42.6906 116.878 42.8319 116.513C43.3191 115.254 45.9742 109.991 47.3357 109.684C49.0198 110.069 50.5608 110.498 52.2144 110.959C66.3756 113.604 81.182 113.321 95.1588 110.139Z" fill="#F7CDB0"/>
<path d="M95.0162 110.139C96.5728 109.707 97.9564 109.253 99.4769 108.75C100.5 110.819 104.299 116.125 104.5 117.412C101.899 120.766 91.5798 121.327 86.8179 121.974C76.9373 123.315 66.9371 123.249 57 122.31C58.0215 122.212 58.9061 121.841 59.6388 121.789C65.6464 121.362 71.0551 120.099 76.8438 118.962C78.5625 118.625 81.7321 118.867 83.7 118.653C88.4023 118.141 94.7348 118.364 98.5103 115.906C100.715 114.397 96.612 111.123 95.0162 110.139Z" fill="#FBB69A"/>
<path d="M47.3529 108.75C49.0434 109.202 50.5901 109.706 52.25 110.246C51.2392 111.041 50.256 111.363 49.132 111.931C47.1128 112.951 43.1762 116.167 42.847 118.25C42.7567 117.804 42.6904 117.193 42.8322 116.764C43.3212 115.287 45.9863 109.11 47.3529 108.75Z" fill="#FBB69A"/>
<path d="M87.123 104.831C89.331 104.606 96.3908 103.733 98.2823 104.081C99.3769 104.598 99.4747 105.462 99.75 106.229C97.8564 106.664 96.5982 106.926 94.6337 107.255C92.1289 107.627 88.6945 108.139 86.1758 108.3C76.3737 108.929 62.2513 109.061 52.9407 107.619L51.0035 107.374C49.8199 107.152 48.6916 106.911 47.5282 106.664C47.5228 105.783 47.2705 104.714 48.3828 104.096C49.2644 104.162 49.8646 104.192 50.7533 104.213C64.6226 105.879 72.9194 105.935 87.123 104.831Z" fill="#FED9CA"/>
<path d="M85.5 105.212C87.9918 104.884 95.959 103.611 98.0936 104.118C99.3289 104.872 99.4393 106.133 99.75 107.253C97.613 107.886 96.1931 108.27 93.9761 108.75C92.7118 106.974 88.2927 105.37 85.5 105.212Z" fill="#F7CDB0"/>
<path d="M48.2707 104C49.0404 104.089 49.5644 104.13 50.3402 104.159C50.4217 105.509 50.4772 106.17 51.3327 107.42C51.653 107.888 52.0231 108.255 52.25 108.75L50.5587 108.419C49.5253 108.12 48.5403 107.795 47.5247 107.462C47.5199 106.275 47.2996 104.833 48.2707 104Z" fill="#F7CDB0"/>
<path d="M60.3952 94.6274C61.4653 94.5376 62.8278 94.4502 63.8479 94.5336C65.701 94.6853 74.2404 96.2463 75.3274 96.9658C76.9666 97.6416 78.8311 96.6624 80.8174 97.6052C83.3862 96.4366 85.7364 96.7146 87.9973 98.3618C89.2397 98.463 91.4789 98.9694 92.443 99.5754C93.2985 100.093 94.1847 100.612 95 101.169C91.4465 101.415 88.6817 102.369 84.0785 102.629L84.2259 102.551C82.1609 102.756 79.8423 103.211 78.0008 103.313C74.155 103.843 70.3294 104.411 66.4603 103.576C65.0277 103.267 63.7746 101.265 61.7705 102.039C61.4027 102.584 61.2899 102.791 60.6085 103.111C58.7448 103.553 48.0938 102.351 47.5 101.045C47.7902 100.483 49.0335 99.8893 49.7547 99.3914C50.0912 98.8904 54.5952 96.4289 55.6223 95.7776C56.1381 95.7914 59.3692 94.8438 60.3952 94.6274Z" fill="#FB9B74"/>
<path d="M75.1474 94.5C76.8203 95.5655 78.723 94.0216 80.75 95.5081C77.1737 100.566 71.3274 98.0605 67.4711 99.25L66.5 98.8675C67.1339 96.5039 72.8362 94.9708 74.6193 95.103L74.7288 95.1121L75.1474 94.5Z" fill="#BC7425"/>
<path d="M49.9511 99.25C52.5071 101.303 55.8541 100.613 58.8507 101.361C60.8555 101.862 60.1778 103.187 61.75 103.883C59.7241 104.435 48.1455 102.937 47.5 101.31C47.8154 100.61 49.1671 99.8702 49.9511 99.25Z" fill="#BC7425"/>
<path d="M92.1421 99.25C93.0982 99.9078 94.0888 100.568 95 101.275C91.0282 101.588 87.9381 102.8 82.793 103.131L82.9578 103.031C80.6498 103.292 78.0582 103.87 76 104C79.0264 102.806 83.0923 102.169 86.2065 100.834C87.5032 100.277 87.4262 101.379 89.1907 100.042C89.8978 99.1881 90.7256 99.9019 92.1421 99.25Z" fill="#BC7425"/>
<path d="M63.7478 80.25C64.335 83.2802 66.8178 86.4043 69.5076 88.0807C72.9411 90.2205 76.1241 91.3611 80.1953 91.8583C81.3521 91.9997 83.4326 92.3123 84.5294 92.588C86.0492 92.9702 87.9959 94.1697 89.5352 94.5179C91.7888 95.0279 93.6851 94.9865 95.7997 96.0501C98.6124 97.465 100.377 100.267 102.593 102.406C106.368 106.05 110.281 108.283 115.163 110.313C115.062 114.111 118.679 115.031 121.053 112.134C122.069 112.673 125.605 112.964 126.66 112.546C127.038 113.639 127.433 114.728 127.843 115.811L128.116 116.737L128.25 117.094C127.98 117.506 127.819 117.727 127.498 118.104C121.098 117.929 109.967 117.742 103.105 117.937C102.972 118.052 102.857 118.151 102.762 118.233L102.506 118.25L102.544 117.678C103.691 116.446 102.041 115.968 102.192 114.315C101.998 113.522 99.6138 109.573 99.175 108.75C97.6034 105.802 98.2192 101.903 94.6867 100.758C94.1474 100.583 92.2114 98.8455 91.2436 98.391C88.1186 96.9231 84.6957 95.7381 81.371 94.719C77.429 96.0291 73.1091 93.7264 70.1881 94.0498C69.0854 92.9814 63.4056 92.5645 61.75 92.6198C62.5105 88.49 62.805 84.5031 63.7478 80.25Z" fill="#FE7037"/>
<path d="M104.509 113.5C104.948 114.649 105.204 115.335 105.533 116.56C107.679 116.585 127.596 116.791 128.128 116.423L128.25 116.854C128.004 117.352 127.857 117.618 127.565 118.073C121.734 117.862 111.593 117.637 105.342 117.873C105.22 118.011 105.116 118.13 105.029 118.229L104.795 118.25L104.83 117.559C105.875 116.073 104.371 115.495 104.509 113.5Z" fill="#CA3B01"/>
<path d="M130.559 66C133.748 71.7849 135.591 87.1882 136.235 94.156C136.569 97.7744 135.887 104.1 136.158 107.974C136.358 108.694 136.415 109.439 136.499 110.179L137.75 110.507C137.732 110.61 137.575 111.5 137.574 111.5C136.24 113.24 130.053 118.572 127.714 118.235C127.386 118.185 127.06 118.123 126.738 118.049C127.091 117.65 127.268 117.417 127.564 116.98L127.417 116.602L127.117 115.622L127.547 115.978L127.872 115.949C127.721 115.38 127.636 115.012 127.67 114.412C127.527 113.526 126.548 110.725 126.232 109.621C125.426 106.697 124.727 103.751 124.134 100.786C121.993 89.7682 125.558 76.0664 130.559 66Z" fill="#FE7037"/>
<path d="M130.52 114.806C130.501 114.692 130.484 114.577 130.47 114.461C130.371 113.685 130.625 110.228 130.635 109.068C130.664 104.343 130.628 99.6181 130.528 94.8943C130.5 93.6804 130.188 90.5087 130.766 89.75L131.164 89.8813C132.13 92.5488 131.901 97.359 133.11 100.186C133.639 101.423 135.311 108.578 136.266 108.949L136.376 108.298C136.549 108.995 136.598 109.717 136.671 110.433L137.75 110.751C137.734 110.851 137.599 111.713 137.598 111.713C136.447 113.398 131.109 118.562 129.092 118.235C128.809 118.187 128.528 118.127 128.25 118.056C128.554 117.669 128.707 117.443 128.963 117.02L128.836 116.654L128.577 115.705L128.948 116.049L129.228 116.022C129.098 115.47 129.024 115.114 129.054 114.533C129.249 115.064 129.367 115.642 129.804 115.914C130.331 115.562 130.226 115.504 130.52 114.806Z" fill="#D44C0F"/>
<path d="M133.136 108.75C134.62 109.249 135.136 109.39 136.671 109.555L137.75 109.909C137.734 110.02 137.599 110.978 137.598 110.979C136.447 112.853 131.109 118.597 129.092 118.234C128.809 118.18 128.528 118.114 128.25 118.034C128.554 117.604 128.707 117.352 128.963 116.882L128.836 116.475L128.577 115.419L128.948 115.802L129.228 115.772C129.098 115.158 129.024 114.762 129.054 114.116C129.249 114.706 129.367 115.349 129.804 115.651C130.331 115.26 130.226 115.195 130.52 114.419C131.487 113.181 132.5 110.366 133.136 108.75Z" fill="#CD3D04"/>
<path d="M134.932 113.5C136.053 113.711 137.169 113.886 137.75 114.734C137.546 115.689 135.712 116.664 134.741 117.278C134.262 117.736 133.978 118.106 133.26 118.25L133 117.964C133.151 116.528 134.179 114.808 134.932 113.5Z" fill="#D44C0F"/>
<path d="M71.25 43.1856C73.1173 42.797 77.0919 42.8641 79.0665 42.8543C83.6823 42.8314 88.3474 43.0078 92.9673 42.953C104.439 42.8172 116.509 41.9215 127.948 42.3791C127.461 45.5291 127.216 47.4538 127.454 50.6699C128.067 58.9597 132.987 65.3595 134.587 73.3194C136.262 81.9297 137.277 90.6685 137.622 99.451C137.711 102.198 137.342 110.409 137.75 112.586L136.63 112.246C136.555 111.48 136.504 110.708 136.325 109.963C136.083 105.952 136.693 99.4024 136.394 95.6559C135.818 88.4415 134.169 72.493 131.315 66.5033C126.84 76.926 123.65 91.1128 125.566 102.52C126.096 105.59 126.722 108.641 127.443 111.668C127.726 112.811 128.601 115.712 128.73 116.629C128.699 117.25 128.775 117.631 128.91 118.221L128.62 118.25L128.235 117.882C127.832 116.694 127.444 115.501 127.073 114.303C123.142 102.465 122.509 83.453 123.541 70.96C123.907 66.5258 125.342 63.6308 125.34 58.2582C123.428 56.1142 122.51 55.0092 119.622 54.2963C118.808 54.0955 118.225 54.1154 117.474 53.7249L117.37 53.3212C118.355 52.2267 121.18 52.7006 121.894 50.7478C122.118 46.763 113.637 44.6916 110.944 44.0855C105.337 43.5137 100.348 43.9469 94.7407 44.0271C88.7954 44.1119 82.7856 43.9423 76.8467 44.0746C74.9802 43.9061 74.0623 43.8856 72.1642 43.9528L71.25 43.1856Z" fill="#DE490E"/>
<path d="M109.25 47.4537C111.673 47.4947 113.76 47.1023 116.248 47.0531C120.253 46.9735 124.256 47.0471 128.25 47C127.272 50.3639 126.941 52.5393 126.914 56.035C126.907 56.985 126.95 60.4969 126.776 61.25C124.449 59.1629 123.331 58.0872 119.814 57.3933C118.824 57.1979 118.114 57.2172 117.199 56.8371L117.073 56.4441C118.272 55.3786 121.712 55.84 122.581 53.939C122.854 50.06 112.528 48.0436 109.25 47.4537Z" fill="#FE7037"/>
<path d="M114.003 109.977C115.539 107.801 118.064 105.211 118.566 102.948C118.798 101.9 118.209 99.8993 119.405 99.25C120.832 99.8194 121.416 102.255 122.044 103.253C123.723 105.924 123.97 109.033 122.679 111.796C119.182 114.692 113.855 113.773 114.003 109.977Z" fill="#FEFEFE"/>
<path d="M61.7502 92.8839C61.7383 91.8359 62.1826 88.1892 62.3365 86.8603C63.3186 78.3833 64.4682 69.6116 66.7018 61.4202C67.5122 58.4903 69.2738 56.2438 70.0834 53.2887C70.6807 51.109 69.0158 43.4332 70.3666 42.25L71.25 43.036C70.8476 43.4618 70.7909 43.573 70.8051 44.3649C70.8623 47.5854 71.373 51.0693 71.1098 54.2771C70.4061 55.5009 69.7977 56.3455 69.5558 57.7893C66.3939 63.5239 65.8184 70.1724 64.73 76.6908C64.6283 77.2993 64.5649 78.2361 64.5735 78.8479C63.6783 83.6246 63.3988 88.1023 62.6767 92.7405C64.2487 92.6784 69.6413 93.1466 70.6883 94.3465L70.4057 94.5C68.9147 93.8656 66.6841 93.3496 65.0774 93.0715C64.2343 92.9255 63.0021 93.1231 62.2934 92.829L62.224 92.1374L62.0342 93.0899L61.7502 92.8839Z" fill="#CA3B01"/>
<path d="M73.192 47.0353C75.2942 46.969 76.3109 46.9892 78.3781 47.1556C75.9017 52.8607 75.2724 54.8975 80.75 58.9044C76.4496 59.1129 75.1865 59.4258 71.25 61.25C71.5273 59.8589 72.2246 59.0451 73.0313 57.866C73.333 54.7753 72.7476 51.4186 72.682 48.3156C72.6658 47.5526 72.7307 47.4455 73.192 47.0353Z" fill="#FE7037"/>
<path d="M85.8502 52.2876C85.4853 51.3495 85.4019 50.2611 85.6173 49.244C85.7567 48.5684 86.0902 47.9621 86.5551 47.6283C87.7419 46.7756 107.211 46.978 109.78 47.1631C110.47 47.2126 111.137 47.4081 111.802 47.6516C114.95 49.825 114.585 54.7565 111.548 55.2654C106.332 56.1394 91.3723 58.0187 87.3313 54.1672C86.8218 53.5741 86.3351 52.9189 85.8502 52.2876Z" fill="#FED9CA"/>
<path d="M111.775 47C114.961 49.3334 114.592 54.6282 111.517 55.1745C106.237 56.1128 91.0908 58.1305 86.9996 53.9954C86.4837 53.3587 85.991 52.6552 85.5 51.9774C85.6876 51.2113 85.842 50.7758 86.0928 50.0662C86.8975 51.3406 86.7175 51.0616 87.8022 51.6024L87.9379 51.6694C92.6979 51.7178 97.4578 51.7225 102.218 51.6836C103.601 51.6789 108.288 51.5586 109.517 51.8256C109.811 51.6814 110.213 51.424 110.51 51.2477C110.993 50.565 110.952 49.9347 111.006 48.9791C111.27 48.6399 111.467 48.6019 111.806 48.4563L111.775 47Z" fill="#FE7037"/>
<path d="M85.8158 51.75C85.4867 50.9073 85.4115 49.9295 85.6058 49.0158C85.7315 48.4089 86.0323 47.8643 86.4516 47.5644C87.522 46.7984 105.081 46.9802 107.398 47.1466C108.02 47.191 108.622 47.3666 109.222 47.5853L109.25 48.8038C108.948 48.9257 108.772 48.9575 108.537 49.2413C108.206 48.8973 107.794 48.5223 107.361 48.5014C101.705 48.2261 96.0204 48.4293 90.3576 48.3725C89.3212 48.3619 88.3293 48.3661 87.2989 48.5073C86.7557 48.8004 86.5999 49.4484 86.344 50.1509C86.1205 50.7446 85.9829 51.109 85.8158 51.75Z" fill="#CA3B01"/>
<path d="M115.306 85C118.793 85.8712 119.407 92.736 118.151 94.5L117.619 94.4106C116.554 92.6597 113.657 88.5149 114.034 86.4689C114.175 85.6988 114.755 85.4188 115.306 85Z" fill="#FEFEFE"/>
<path d="M82.9167 146.14C82.6553 146.14 82.464 146.098 82.3427 146.014C82.2213 145.939 82.1467 145.837 82.1187 145.706C82.0907 145.575 82.0767 145.431 82.0767 145.272V137.194C82.0767 136.877 82.1373 136.657 82.2587 136.536C82.3893 136.415 82.6227 136.354 82.9587 136.354H88.4187C88.5773 136.354 88.7173 136.373 88.8387 136.41C88.96 136.438 89.058 136.513 89.1327 136.634C89.2073 136.746 89.2447 136.937 89.2447 137.208C89.2447 137.469 89.2027 137.661 89.1187 137.782C89.044 137.903 88.9413 137.978 88.8107 138.006C88.6893 138.034 88.5493 138.048 88.3907 138.048H83.7707V140.4H86.9487C87.1073 140.4 87.2427 140.419 87.3547 140.456C87.476 140.484 87.5647 140.554 87.6207 140.666C87.686 140.769 87.7187 140.941 87.7187 141.184C87.7187 141.408 87.686 141.576 87.6207 141.688C87.5553 141.791 87.462 141.856 87.3407 141.884C87.2287 141.903 87.0933 141.912 86.9347 141.912H83.7707V145.286C83.7707 145.445 83.752 145.589 83.7147 145.72C83.6867 145.841 83.612 145.939 83.4907 146.014C83.3693 146.098 83.178 146.14 82.9167 146.14ZM92.7329 146.224C92.1262 146.224 91.5942 146.126 91.1369 145.93C90.6889 145.734 90.3109 145.468 90.0029 145.132C89.7042 144.787 89.4755 144.404 89.3169 143.984C89.1675 143.555 89.0929 143.111 89.0929 142.654C89.0929 141.982 89.2469 141.385 89.5549 140.862C89.8629 140.339 90.2875 139.929 90.8289 139.63C91.3795 139.331 92.0095 139.182 92.7189 139.182C93.2229 139.182 93.6662 139.261 94.0489 139.42C94.4315 139.579 94.7489 139.789 95.0009 140.05C95.2622 140.302 95.4582 140.582 95.5889 140.89C95.7289 141.198 95.7989 141.497 95.7989 141.786C95.7989 142.281 95.6775 142.64 95.4349 142.864C95.2015 143.088 94.9075 143.2 94.5529 143.2H90.8569C90.8662 143.517 90.9642 143.793 91.1509 144.026C91.3469 144.259 91.5895 144.441 91.8789 144.572C92.1775 144.693 92.4809 144.754 92.7889 144.754C93.0222 144.754 93.2275 144.74 93.4049 144.712C93.5915 144.684 93.7502 144.651 93.8809 144.614C94.0115 144.567 94.1235 144.521 94.2169 144.474C94.3195 144.427 94.4129 144.385 94.4969 144.348C94.5809 144.311 94.6602 144.287 94.7349 144.278C94.8375 144.269 94.9402 144.292 95.0429 144.348C95.1455 144.404 95.2295 144.502 95.2949 144.642C95.3509 144.735 95.3882 144.824 95.4069 144.908C95.4349 144.983 95.4489 145.057 95.4489 145.132C95.4489 145.319 95.3369 145.496 95.1129 145.664C94.8889 145.823 94.5715 145.953 94.1609 146.056C93.7595 146.168 93.2835 146.224 92.7329 146.224ZM90.8569 142.206H93.7269C93.8855 142.206 94.0069 142.183 94.0909 142.136C94.1749 142.08 94.2169 141.968 94.2169 141.8C94.2169 141.585 94.1515 141.394 94.0209 141.226C93.8902 141.049 93.7129 140.913 93.4889 140.82C93.2649 140.717 93.0035 140.666 92.7049 140.666C92.3595 140.666 92.0469 140.736 91.7669 140.876C91.4869 141.007 91.2629 141.189 91.0949 141.422C90.9362 141.655 90.8569 141.917 90.8569 142.206ZM100.28 146.224C99.6731 146.224 99.1411 146.126 98.6837 145.93C98.2357 145.734 97.8577 145.468 97.5497 145.132C97.2511 144.787 97.0224 144.404 96.8637 143.984C96.7144 143.555 96.6397 143.111 96.6397 142.654C96.6397 141.982 96.7937 141.385 97.1017 140.862C97.4097 140.339 97.8344 139.929 98.3757 139.63C98.9264 139.331 99.5564 139.182 100.266 139.182C100.77 139.182 101.213 139.261 101.596 139.42C101.978 139.579 102.296 139.789 102.548 140.05C102.809 140.302 103.005 140.582 103.136 140.89C103.276 141.198 103.346 141.497 103.346 141.786C103.346 142.281 103.224 142.64 102.982 142.864C102.748 143.088 102.454 143.2 102.1 143.2H98.4037C98.4131 143.517 98.5111 143.793 98.6977 144.026C98.8937 144.259 99.1364 144.441 99.4257 144.572C99.7244 144.693 100.028 144.754 100.336 144.754C100.569 144.754 100.774 144.74 100.952 144.712C101.138 144.684 101.297 144.651 101.428 144.614C101.558 144.567 101.67 144.521 101.764 144.474C101.866 144.427 101.96 144.385 102.044 144.348C102.128 144.311 102.207 144.287 102.282 144.278C102.384 144.269 102.487 144.292 102.59 144.348C102.692 144.404 102.776 144.502 102.842 144.642C102.898 144.735 102.935 144.824 102.954 144.908C102.982 144.983 102.996 145.057 102.996 145.132C102.996 145.319 102.884 145.496 102.66 145.664C102.436 145.823 102.118 145.953 101.708 146.056C101.306 146.168 100.83 146.224 100.28 146.224ZM98.4037 142.206H101.274C101.432 142.206 101.554 142.183 101.638 142.136C101.722 142.08 101.764 141.968 101.764 141.8C101.764 141.585 101.698 141.394 101.568 141.226C101.437 141.049 101.26 140.913 101.036 140.82C100.812 140.717 100.55 140.666 100.252 140.666C99.9064 140.666 99.5937 140.736 99.3137 140.876C99.0337 141.007 98.8097 141.189 98.6417 141.422C98.4831 141.655 98.4037 141.917 98.4037 142.206ZM107.463 146.126C107.033 146.126 106.627 146.037 106.245 145.86C105.862 145.683 105.526 145.44 105.237 145.132C104.947 144.815 104.719 144.446 104.551 144.026C104.383 143.597 104.299 143.139 104.299 142.654C104.299 142.187 104.383 141.749 104.551 141.338C104.719 140.918 104.947 140.554 105.237 140.246C105.535 139.929 105.876 139.681 106.259 139.504C106.641 139.327 107.043 139.238 107.463 139.238C107.911 139.238 108.312 139.327 108.667 139.504C109.021 139.681 109.32 139.929 109.563 140.246C109.815 140.554 110.006 140.918 110.137 141.338C110.267 141.749 110.337 142.192 110.347 142.668C110.347 143.144 110.281 143.592 110.151 144.012C110.029 144.423 109.843 144.787 109.591 145.104C109.348 145.421 109.045 145.673 108.681 145.86C108.326 146.037 107.92 146.126 107.463 146.126ZM107.687 144.488C108.013 144.488 108.303 144.413 108.555 144.264C108.816 144.105 109.021 143.891 109.171 143.62C109.329 143.349 109.409 143.041 109.409 142.696C109.409 142.341 109.329 142.029 109.171 141.758C109.021 141.487 108.816 141.273 108.555 141.114C108.303 140.955 108.013 140.876 107.687 140.876C107.36 140.876 107.066 140.955 106.805 141.114C106.543 141.263 106.333 141.478 106.175 141.758C106.025 142.029 105.951 142.341 105.951 142.696C105.951 143.041 106.025 143.349 106.175 143.62C106.333 143.891 106.543 144.105 106.805 144.264C107.075 144.413 107.369 144.488 107.687 144.488ZM110.277 146.126C110.015 146.126 109.824 146.084 109.703 146C109.581 145.907 109.502 145.762 109.465 145.566V136.942C109.465 136.783 109.474 136.643 109.493 136.522C109.521 136.391 109.591 136.289 109.703 136.214C109.824 136.13 110.011 136.088 110.263 136.088C110.533 136.088 110.725 136.125 110.837 136.2C110.949 136.275 111.019 136.377 111.047 136.508C111.084 136.629 111.103 136.769 111.103 136.928V145.272C111.103 145.431 111.089 145.575 111.061 145.706C111.033 145.837 110.958 145.939 110.837 146.014C110.725 146.089 110.538 146.126 110.277 146.126Z" fill="black"/>
<defs>
<filter id="filter0_d_692_4101" x="12.3679" y="21.7501" width="165.335" height="150.499" filterUnits="userSpaceOnUse" color-interpolation-filters="sRGB">
<feFlood flood-opacity="0" result="BackgroundImageFix"/>
<feColorMatrix in="SourceAlpha" type="matrix" values="0 0 0 0 0 0 0 0 0 0 0 0 0 0 0 0 0 0 127 0" result="hardAlpha"/>
<feOffset dy="4"/>
<feComposite in2="hardAlpha" operator="out"/>
<feColorMatrix type="matrix" values="0 0 0 0 0.862745 0 0 0 0 0.862745 0 0 0 0 0.862745 0 0 0 1 0"/>
<feBlend mode="normal" in2="BackgroundImageFix" result="effect1_dropShadow_692_4101"/>
<feBlend mode="normal" in="SourceGraphic" in2="effect1_dropShadow_692_4101" result="shape"/>
</filter>
</defs>
</svg>
