<svg width="190" height="190" viewBox="0 0 190 190" fill="none" xmlns="http://www.w3.org/2000/svg">
<g filter="url(#filter0_d_692_4015)">
<path d="M58.3449 23.2475C60.6288 23.19 63.7009 23.3972 66.0861 23.4152L93.0418 23.7036L122.315 23.6924C127.332 23.6879 133.261 23.536 138.261 23.7515C138.473 23.7606 138.675 23.8326 138.824 23.9838C140.783 25.9748 145.461 34.7966 146.895 37.3014L159.16 58.6413L173.175 83.0333C175.389 86.9163 177.933 91.191 180.022 95.159C180.219 95.5336 180.159 95.9882 179.906 96.3275C177.844 99.0902 172.933 108.088 171.533 110.47L145.287 155.56C143.322 158.933 140.944 163.64 138.595 166.816C138.428 167.042 137.465 167.018 137.132 167.018L82.214 166.998C76.1991 166.964 70.0508 166.607 64.0202 166.647C61.8154 166.662 58.8989 166.548 56.6368 166.707C56.2847 166.732 55.9412 166.581 55.7379 166.293C53.99 163.812 52.3098 160.668 50.8219 158.05L43.8583 145.884L23.8925 111.123C20.931 105.983 18.0174 100.698 14.9601 95.6157C14.7862 95.3267 14.7675 94.9705 14.9175 94.6684C16.8289 90.8191 20.2852 85.2793 22.4345 81.5608L38.7971 53.4373L49.6702 34.68C51.6086 31.3164 53.609 27.5806 55.8049 24.3958C56.4679 23.4347 57.2331 23.3902 58.3449 23.2475Z" fill="#E0DAFF"/>
<path d="M58.3196 22.2482C59.4952 22.2186 60.8621 22.257 62.2122 22.3038C63.575 22.3511 64.9191 22.4063 66.094 22.4152H66.0969L93.051 22.7032L122.315 22.6925L126.205 22.6691C130.223 22.6345 134.532 22.5896 138.304 22.7521C138.71 22.7696 139.173 22.9127 139.536 23.2823C140.107 23.8625 140.816 24.8687 141.551 26.0118C142.3 27.1778 143.123 28.5618 143.923 29.9513C144.724 31.3422 145.507 32.7477 146.179 33.9591C146.853 35.1755 147.408 36.1846 147.762 36.8029L160.028 58.1427L174.041 82.5353L174.043 82.5382C175.969 85.915 178.172 89.6358 180.099 93.1847L180.906 94.6935L180.975 94.8361C181.285 95.5563 181.134 96.3539 180.707 96.9259C179.72 98.2489 178.008 101.13 176.338 104.039C174.696 106.9 173.097 109.779 172.396 110.973L172.397 110.974L146.151 156.064C144.238 159.347 141.79 164.176 139.399 167.409L139.4 167.41C139.246 167.618 139.056 167.73 138.937 167.788C138.809 167.85 138.683 167.888 138.583 167.913C138.384 167.963 138.173 167.986 137.998 167.999C137.648 168.025 137.272 168.018 137.132 168.018L82.2141 167.998H82.2083C79.1863 167.981 76.1314 167.882 73.094 167.794C70.0511 167.706 67.0221 167.627 64.0266 167.648C61.7447 167.663 58.93 167.549 56.7073 167.705C56.0306 167.753 55.3389 167.463 54.9202 166.868C53.1357 164.335 51.4186 161.124 49.9524 158.545V158.544L42.9905 146.381V146.38L23.0256 111.621V111.622C20.0507 106.459 17.1544 101.204 14.1028 96.131C13.7585 95.5583 13.7155 94.8406 14.0217 94.2238L14.4016 93.4757C16.3838 89.6437 19.5838 84.4946 21.5686 81.0607L21.5706 81.0577L37.9329 52.9347L48.8049 34.1788C50.72 30.8557 52.7556 27.0566 54.9817 23.8282L55.1526 23.5968C55.5607 23.0862 56.0297 22.7682 56.5667 22.5743C57.1102 22.3782 57.7209 22.3198 58.218 22.256L58.2688 22.2491L58.3196 22.2482Z" stroke="white" stroke-width="2"/>
</g>
<path d="M58.8696 28.2241C84.4838 28.0937 110.099 28.2128 135.71 28.5815C137.122 30.2579 141.261 37.7998 142.541 40.0349L155.59 62.7774L166.744 82.1939C168.703 85.547 172.638 91.9754 174.119 95.3437C173.465 97.0164 171.98 99.3984 171.032 101.011C169.486 103.624 167.955 106.246 166.439 108.876L147.563 141.367L139.674 155.026C138.755 156.622 136.441 160.824 135.38 162.135C109.738 162.613 83.8984 161.282 58.3429 161.842C57.4255 159.912 55.1988 156.308 54.0775 154.354L45.5522 139.51L20.0057 95.0655C22.2941 90.6315 25.7681 85.0649 28.3303 80.6389L45.144 51.7032L54.159 36.1327C55.2296 34.2804 57.6732 29.8057 58.8696 28.2241Z" fill="white"/>
<path d="M108.277 67.3066L108.641 67.0473C108.602 66.4299 108.354 66.2205 108.104 65.6849C104.742 58.4639 110.2 50.647 118.34 50.2968C121.411 50.1738 124.407 51.2142 126.657 53.1854C131.688 57.5607 131.681 64.0117 127.255 68.778C133.14 71.7451 135.413 74.9991 137.701 81.0791C137.714 81.1595 137.728 81.2397 137.742 81.3201L137.318 81.339C137.225 81.5092 137.068 81.77 136.998 81.9391C138.365 85.6648 138.603 88.6286 137.92 92.5167C138.332 92.8263 138.384 92.8675 138.501 93.3477C137.073 96.9276 135.845 98.0862 132.497 100.094C134.468 101.348 135.383 101.716 135.881 104.09C136.077 105.025 136.056 105.999 136.471 106.846C137.101 106.004 137.196 105.817 137.495 104.827L137.749 105.617L138.228 105.616C137.246 109.611 132.982 111.239 129.273 112.374C125.24 112.87 121.56 113.156 117.482 113.223C116.766 113.234 114.511 113.422 113.978 113.38C111.377 113.751 109.483 114.013 107.07 114.996C99.2728 118.17 93.5519 123.97 84.4136 123.544C81.9666 123.43 80.4126 123.437 78.0322 122.568C78.6527 122.402 78.8412 122.544 79.3194 122.176L78.9649 121.615C77.9796 122.353 75.2878 119.938 74.5676 119.244C72.4581 117.847 71.6823 116.85 70.2245 114.881L69.6794 115.708C66.5538 111.002 66.0887 108.152 65.8414 102.692C65.6916 102.001 65.6502 99.8438 65.6172 99.0324C62.1628 95.7049 60.7586 91.9087 61.6502 87.3341C57.111 87.5408 53.2954 86.0525 51.9034 81.627C51.2485 79.5151 51.538 77.243 52.7045 75.3367C56.3232 69.3162 66.4452 70.5995 68.0508 76.7803C68.4534 77.7735 68.5904 78.1874 68.8095 79.2282C69.526 78.8526 70.2659 78.4759 70.9685 78.0811C73.8002 76.0472 77.9902 74.056 81.2094 72.6306C79.5823 70.3136 80.7259 66.3347 82.7942 64.4618C84.3264 63.0698 86.3927 62.3222 88.5207 62.3896C92.2313 62.5159 94.5762 64.419 95.6154 67.5866C95.8137 68.1913 95.9119 69.0037 96.3852 69.4198C98.0544 68.8824 106.289 67.5023 108.277 67.3066Z" fill="#B2ABEF"/>
<path d="M137.92 92.5164C138.332 92.8259 138.384 92.8672 138.501 93.3474C137.073 96.9272 135.845 98.0859 132.497 100.094C134.468 101.348 135.383 101.716 135.881 104.089C136.077 105.025 136.056 105.998 136.471 106.845C137.101 106.004 137.196 105.817 137.495 104.827L137.749 105.617L138.228 105.616C137.246 109.611 132.982 111.239 129.273 112.374C125.24 112.87 121.56 113.156 117.482 113.222C116.766 113.234 114.511 113.421 113.978 113.38C111.377 113.75 109.483 114.013 107.07 114.995C99.2728 118.17 93.5519 123.97 84.4136 123.544C81.9666 123.43 80.4125 123.437 78.0322 122.568C78.6526 122.402 78.8412 122.544 79.3194 122.176L78.9649 121.614C77.9796 122.353 75.2877 119.938 74.5676 119.244C72.4581 117.847 71.6823 116.849 70.2245 114.881L69.6794 115.708C66.5538 111.002 66.0887 108.152 65.8414 102.691C65.9837 101.564 65.711 100.695 65.9382 99.5111L66.1745 99.4445L66.639 100.037C67.3374 100.147 67.6075 100.545 68.0842 101.048L68.7198 100.902C70.9644 102.921 73.6905 106.406 76.0201 107.849C86.1921 115.965 93.8642 108.28 102.737 103.25C103.229 102.925 102.806 102.177 102.885 101.799C103.481 98.9242 107.525 98.1716 109.641 99.9622C109.997 100.548 109.979 100.978 110.423 101.523C112.13 101.725 113.864 101.486 115.58 101.526C124.052 101.727 134.898 101.855 137.92 92.5164Z" fill="#EDEBFE"/>
<path d="M100.654 112.487L100.749 112.671C101.469 112.886 105.287 111.618 106.677 111.471C110.333 111.084 112.216 111.228 115.714 112.001C114.503 112.135 113.695 112.467 112.655 112.581L113.75 112.714C113.906 113.021 113.926 113.029 113.978 113.38C111.378 113.751 109.483 114.013 107.07 114.996C99.2728 118.17 93.552 123.97 84.4137 123.544C81.9666 123.43 80.4126 123.437 78.0322 122.568C78.6527 122.402 78.8412 122.544 79.3194 122.176L78.965 121.615C77.9796 122.353 75.2878 119.938 74.5676 119.244C75.153 119.187 76.587 119.368 77.31 119.45C80.755 119.843 81.7057 119.641 85.0773 118.524C88.5741 117.365 92.7688 115.906 96.2363 114.518C96.3182 114.364 96.3871 114.234 96.443 114.129C98.4666 113.938 98.9954 113.621 100.654 112.487Z" fill="#B2ABEF"/>
<path d="M85.4048 122.848C98.0263 121.46 100.299 114.944 112.655 112.58L113.75 112.713C113.906 113.02 113.926 113.028 113.979 113.38C111.378 113.75 109.484 114.013 107.07 114.995C99.2729 118.17 93.5521 123.97 84.4138 123.544C81.9668 123.43 80.4127 123.437 78.0323 122.568C78.6528 122.402 78.8414 122.544 79.3196 122.176L78.9651 121.614C79.4665 120.449 80.0644 120.32 81.2503 119.769C81.821 119.955 82.3877 120.153 82.9495 120.363C84.3787 120.908 84.8319 121.572 85.4048 122.848Z" fill="#4432C1"/>
<path d="M80.067 121.295C81.4414 121.2 83.9508 120.904 84.1121 122.658C83.0399 122.597 80.75 122.62 80.0129 121.944L80.067 121.295Z" fill="#9489EA"/>
<path d="M137.92 92.5164C138.332 92.8259 138.384 92.8672 138.501 93.3474C137.073 96.9272 135.845 98.0859 132.497 100.094C130.402 100.894 128.32 101.71 126.08 102.034C120.009 102.911 112.724 101.611 106.77 102.916C96.792 105.103 91.6046 115.831 79.6607 111.066C74.7035 109.088 71.4855 104.919 68.0844 101.048L68.7199 100.902C70.9645 102.921 73.6906 106.406 76.0202 107.849C86.1922 115.965 93.8643 108.28 102.737 103.25C103.229 102.925 102.807 102.177 102.885 101.799C103.481 98.9242 107.525 98.1716 109.642 99.9622C109.997 100.548 109.979 100.978 110.423 101.523C112.13 101.725 113.864 101.486 115.58 101.526C124.052 101.727 134.898 101.855 137.92 92.5164Z" fill="#4432C1"/>
<path d="M106.138 99.8311C107.301 99.7691 108.659 99.766 109.285 100.842L109.045 101.326C108.418 101.882 107.464 101.908 106.592 102.028C105.538 102.364 104.596 102.903 103.814 102.03C103.847 100.689 104.909 100.198 106.138 99.8311Z" fill="#9489EA"/>
<path d="M65.8414 102.692C65.9837 101.565 65.711 100.695 65.9382 99.5113L66.1745 99.4447L66.639 100.037C66.7615 102.486 66.8384 105.993 67.202 108.328C68.9998 108.01 70.1222 107.842 71.7728 108.866C73.3672 109.855 73.1752 111.878 72.2455 113.226C71.8336 113.824 70.4942 114.391 70.2245 114.881L69.6794 115.708C66.5538 111.002 66.0887 108.152 65.8414 102.692Z" fill="#4432C1"/>
<path d="M67.8915 109.097C71.2403 108.646 73.3525 110.201 71.0746 113.173C70.2637 113.554 70.4566 113.606 69.6889 113.505C68.554 112.714 67.4788 110.338 67.8915 109.097Z" fill="#B2ABEF"/>
<path d="M96.443 114.128C89.8528 112.163 102.88 106.28 100.654 112.486C98.9954 113.62 98.4667 113.938 96.443 114.128Z" fill="#4432C1"/>
<path d="M98.6412 110.381C99.4783 110.633 99.7425 110.772 99.937 111.54C99.6139 112.695 97.8821 113.096 96.794 113.16C96.482 113.111 96.1613 113.022 95.8542 112.945L95.6395 112.58C95.8089 111.545 97.6785 110.67 98.6412 110.381Z" fill="#B2ABEF"/>
<path d="M115.714 112.001C118.504 112.496 126.789 111.927 129.663 111.261L129.273 112.375C125.241 112.871 121.56 113.157 117.482 113.223C116.767 113.235 114.511 113.422 113.979 113.381C113.926 113.029 113.906 113.021 113.75 112.714L112.655 112.581C113.695 112.468 114.503 112.136 115.714 112.001Z" fill="#5242D0"/>
<path d="M137.495 104.827L137.749 105.617L138.228 105.616C137.246 109.611 132.982 111.239 129.273 112.374L129.663 111.26L129.753 111.235C132.553 110.438 135.044 109.353 136.471 106.845C137.101 106.004 137.196 105.817 137.495 104.827Z" fill="#4432C1"/>
<path d="M130.439 102.744C131.718 102.671 133.433 102.595 134.111 103.822C134.414 106.286 130.862 107.217 128.957 107.651C127.426 107.711 126.006 107.68 125.361 106.252C125.388 103.914 128.447 103.031 130.439 102.744Z" fill="#4432C1"/>
<path d="M130.174 103.672L130.436 103.653C131.407 103.587 132.169 103.451 132.923 104.064C133.379 105.744 130.436 106.4 129.177 106.675C128.906 106.694 128.634 106.709 128.362 106.721C127.564 106.754 127.063 106.787 126.45 106.261C126.181 104.572 128.855 103.923 130.174 103.672Z" fill="#B2ABEF"/>
<path d="M61.6502 87.3336C57.111 87.5403 53.2954 86.052 51.9034 81.6265C51.2485 79.5146 51.538 77.2425 52.7045 75.3362C56.3232 69.3157 66.4452 70.599 68.0508 76.7798C68.4534 77.773 68.5904 78.1869 68.8095 79.2277C69.526 78.8521 70.2659 78.4754 70.9685 78.0806C73.8002 76.0467 77.9902 74.0555 81.2093 72.6301L81.7689 73.0258L82.0194 72.8163C81.7754 72.5771 81.6769 72.4505 81.4703 72.181L81.6142 71.6649L82.118 72.3209C82.5744 72.5823 82.4448 72.4121 82.5775 72.9201C82.9713 74.438 86.6691 76.2549 88.2934 76.4833L88.2885 76.5767C85.3236 77.7807 85.2292 79.7069 88.4398 80.6506C87.5853 82.6233 84.5959 83.1099 85.5955 85.0738C88.6458 91.0665 85.2913 98.6903 78.6987 101.049C77.5517 101.46 76.5709 101.731 75.426 102.029C75.3397 104.093 76.1885 106.712 76.0201 107.849C73.6905 106.406 70.9644 102.921 68.7198 100.902L68.0842 101.048C67.6075 100.544 67.3374 100.147 66.639 100.037L66.1745 99.4443L65.9383 99.5109C65.711 100.694 65.9837 101.564 65.8414 102.691C65.6916 102 65.6502 99.8433 65.6172 99.0319C62.1628 95.7044 60.7586 91.9082 61.6502 87.3336Z" fill="#B2ABEF"/>
<path d="M61.6502 87.3336C57.111 87.5403 53.2954 86.052 51.9034 81.6265C51.2485 79.5146 51.538 77.2425 52.7045 75.3362C56.3232 69.3157 66.4452 70.599 68.0508 76.7798C68.0404 77.269 68.0096 78.6671 68.2116 79.041L68.1276 78.7184L68.1346 79.1022C67.9307 78.6616 67.8484 78.033 67.5751 77.7693C67.5445 81.2141 65.1564 80.4648 63.9474 82.8441L64.4548 83.5772C63.6706 84.5771 63.3708 85.069 62.7544 86.1499C63.7252 85.6687 63.9806 85.5357 64.7978 84.8609L65.3641 85.5211L65.7083 85.7104C65.9163 85.4597 66.1005 85.3453 66.3631 85.1528L66.8066 85.2655C66.2159 86.8978 65.9356 89.6735 66.03 91.4031L66.3329 91.8944C65.3883 92.8429 66.6115 96.6544 67.0335 97.9397C67.4825 98.7269 67.7862 99.1568 68.3372 99.8884L68.7198 100.902L68.0842 101.048C67.6075 100.544 67.3374 100.147 66.639 100.037L66.1745 99.4443L65.9383 99.5109C65.711 100.694 65.9837 101.564 65.8414 102.691C65.6916 102 65.6502 99.8433 65.6172 99.0319C62.1628 95.7044 60.7586 91.9082 61.6502 87.3336Z" fill="#EDEBFE"/>
<path d="M61.6502 87.3336C57.111 87.5403 53.2954 86.052 51.9034 81.6265C51.2485 79.5146 51.538 77.2425 52.7045 75.3362C56.3232 69.3157 66.4452 70.599 68.0508 76.7798C68.0404 77.269 68.0096 78.6671 68.2116 79.041L68.1276 78.7184L68.1346 79.1022C67.9307 78.6616 67.8484 78.033 67.5751 77.7693C66.67 75.6964 65.5844 73.7242 63.2552 72.7963C59.1557 71.1631 54.7127 72.7495 53.016 76.6723C52.2157 78.5038 52.2524 80.5646 53.1175 82.3698C53.8884 84.0334 55.3444 85.3304 57.1512 85.9631C58.7835 86.5352 60.0856 86.5684 61.7537 86.323L61.7972 86.2919C62.446 85.1634 63.1429 83.8578 63.9474 82.8441L64.4548 83.5772C63.6706 84.5771 63.3708 85.069 62.7544 86.1499C63.7252 85.6687 63.9806 85.5357 64.7978 84.8609L65.3641 85.5211L65.7083 85.7104C65.9163 85.4597 66.1005 85.3453 66.3631 85.1528L66.8066 85.2655C66.2159 86.8978 65.9356 89.6735 66.03 91.4031L66.3329 91.8944C65.3883 92.8429 66.6115 96.6544 67.0335 97.9397C67.4825 98.7269 67.7862 99.1568 68.3372 99.8884L68.7198 100.902L68.0842 101.048C67.6075 100.544 67.3374 100.147 66.639 100.037L66.1745 99.4443L65.9383 99.5109C65.711 100.694 65.9837 101.564 65.8414 102.691C65.6916 102 65.6502 99.8433 65.6172 99.0319C62.1628 95.7044 60.7586 91.9082 61.6502 87.3336Z" fill="#8373E5"/>
<path d="M65.7083 85.711C65.9162 85.4603 66.1004 85.3459 66.363 85.1534L66.8065 85.2661C66.2158 86.8984 65.9355 89.6741 66.0299 91.4037L66.3328 91.895C65.3882 92.8435 66.6115 96.655 67.0334 97.9403C66.5197 98.1878 66.4549 98.2063 65.8893 98.1067C62.6416 95.8917 61.7127 90.4832 62.7172 87.0003C64.1104 86.3838 64.1328 86.409 65.364 85.5217L65.7083 85.711Z" fill="#EDEBFE"/>
<path d="M65.7083 85.711C65.9162 85.4603 66.1005 85.3459 66.363 85.1534L66.8066 85.2661C66.2158 86.8984 65.9356 89.6741 66.0299 91.4037L66.3328 91.895C65.3883 92.8435 66.6115 96.655 67.0334 97.9403C66.5198 98.1878 66.4549 98.2063 65.8893 98.1067C65.0438 93.4265 64.919 90.4567 65.7083 85.711Z" fill="#9489EA"/>
<path d="M59.6992 73.8346C62.1065 73.8803 64.4245 76.4257 63.3574 78.4061C62.442 77.9992 59.7534 76.3353 59.4621 75.4014C59.2556 74.7395 59.4493 74.4411 59.6992 73.8346Z" fill="#BBC0FA"/>
<path d="M55.5278 77.4558C55.9593 77.4773 55.9978 77.499 56.4075 77.6427C56.7302 78.3171 55.7999 81.4994 55.6123 82.7881C53.3616 82.3363 54.6484 78.6428 55.5278 77.4558Z" fill="#FFFEFE"/>
<path d="M56.1531 83.0706C56.8883 83.1158 57.0974 83.0884 57.6865 83.5106C58.0946 84.2528 57.9974 83.9666 57.9676 84.8157C57.1154 84.9433 57.1474 84.889 56.5479 84.5199C56.1535 83.8958 56.1633 83.7807 56.1531 83.0706Z" fill="#FFFEFE"/>
<path d="M81.6142 71.665L82.1181 72.321C82.5745 72.5824 82.4448 72.4122 82.5775 72.9202C82.9713 74.4381 86.6691 76.255 88.2934 76.4834L88.2886 76.5768C85.3236 77.7807 85.2292 79.707 88.4398 80.6507C87.5853 82.6234 84.5959 83.11 85.5955 85.0739C88.6459 91.0665 85.2914 98.6903 78.6988 101.049C77.5518 101.46 76.5709 101.731 75.426 102.029C75.3398 104.093 76.1885 106.712 76.0202 107.849C73.6905 106.406 70.9645 102.921 68.7198 100.902L68.3372 99.8885C71.2594 100.837 72.29 101.01 75.3418 101.009C77.1056 100.882 78.9637 100.245 80.4232 99.3296C83.0588 97.6509 84.9004 95.0754 85.5608 92.1444C86.1259 89.5252 85.6819 86.7031 84.1014 84.4603C83.9536 84.0874 83.8631 84.0141 83.6381 83.7118C80.1753 79.0589 76.6321 79.4255 71.664 78.6338C70.3962 79.598 67.1501 82.8426 67.1028 84.3945L66.9681 85.0405L66.8066 85.2656L66.3631 85.1529C66.1005 85.3454 65.9163 85.4598 65.7084 85.7105L65.3641 85.5212L64.7978 84.861C63.9807 85.5358 63.7253 85.6688 62.7544 86.15C63.3708 85.0691 63.6706 84.5772 64.4548 83.5773L63.9474 82.8442C65.1564 80.4649 67.5445 81.2142 67.5751 77.7694C67.8484 78.0331 67.9308 78.6617 68.1346 79.1023L68.1277 78.7185L68.2117 79.0411C68.0097 78.6672 68.0404 77.2691 68.0508 76.7799C68.4534 77.7731 68.5904 78.187 68.8095 79.2278C69.526 78.8522 70.2659 78.4755 70.9685 78.0807C73.8002 76.0468 77.9902 74.0556 81.2094 72.6302L81.7689 73.0259L82.0194 72.8164C81.7754 72.5772 81.677 72.4506 81.4703 72.1811L81.6142 71.665Z" fill="#9489EA"/>
<path d="M81.2095 72.6306L81.769 73.0263C80.8324 73.661 72.4505 78.203 71.5632 78.403C71.3184 78.3068 71.149 78.2654 70.9686 78.0811C73.8003 76.0472 77.9903 74.056 81.2095 72.6306Z" fill="#4432C1"/>
<path d="M64.4548 83.5772C65.4825 82.3929 66.2302 81.5379 67.6197 80.6718C66.8305 82.6629 66.4738 83.3018 64.7978 84.861C63.9807 85.5358 63.7253 85.6688 62.7544 86.1499C63.3708 85.069 63.6706 84.5771 64.4548 83.5772Z" fill="#EDEBFE"/>
<path d="M84.1014 84.4609C85.6819 86.7037 86.1259 89.5259 85.5608 92.145C84.9004 95.076 83.0588 97.6516 80.4232 99.3303C78.9637 100.246 77.1056 100.883 75.3418 101.01C75.4078 99.0735 75.6213 95.7485 76.9482 94.2448C78.2974 95.4222 79.7041 95.2819 80.5049 93.7093C81.6541 91.4524 81.5108 89.1904 80.7259 86.8935C81.9395 85.8879 82.6468 85.7635 84.1014 84.4609Z" fill="#BBC0FA"/>
<path d="M76.9481 94.2444C77.4067 92.1256 78.3265 90.198 78.7857 88.1274C78.9115 87.5597 78.8703 85.9931 78.931 85.2031L79.3093 84.9056L79.7464 85.0231C80.2963 85.5472 80.4647 86.1942 80.7258 86.8932C81.5108 89.19 81.6541 91.452 80.5048 93.709C79.704 95.2816 78.2973 95.4219 76.9481 94.2444Z" fill="#FFFEFE"/>
<path d="M66.968 85.0404C70.5436 84.9106 70.6456 87.6998 69.7719 90.2748C68.5363 91.1895 67.5648 91.2073 66.0299 91.4031C65.9355 89.6735 66.2158 86.8978 66.8065 85.2655L66.968 85.0404Z" fill="#B2ABEF"/>
<path d="M67.1026 84.3945C70.7916 84.6423 72.2996 87.7654 70.3263 90.4699L69.7718 90.2749C70.6455 87.7 70.5436 84.9108 66.9679 85.0405L67.1026 84.3945Z" fill="#9489EA"/>
<path d="M69.772 90.2748L70.3265 90.4698C69.2696 91.5013 68.1736 91.8641 66.637 91.893C66.5357 91.895 66.4342 91.8953 66.3329 91.8944L66.03 91.4031C67.5649 91.2073 68.5364 91.1895 69.772 90.2748Z" fill="#8373E5"/>
<path d="M75.5717 80.8617C76.9352 81.3117 78.5493 82.4633 77.5658 83.9149C76.6194 83.4532 75.5831 83.0208 75.1347 82.0965C75.1029 81.3087 75.0615 81.5852 75.5717 80.8617Z" fill="#FFFEFE"/>
<path d="M108.277 67.3066L108.641 67.0473C108.602 66.4299 108.354 66.2205 108.104 65.6849C104.742 58.4639 110.2 50.647 118.341 50.2968C121.412 50.1738 124.407 51.2142 126.657 53.1854C131.688 57.5607 131.681 64.0117 127.255 68.778C133.14 71.7451 135.413 74.9991 137.701 81.0791C137.714 81.1595 137.728 81.2397 137.742 81.3201L137.319 81.339C137.225 81.5092 137.068 81.77 136.998 81.9391C136.87 81.585 136.498 81.4721 136.192 80.5857C136.047 80.0949 135.888 79.6078 135.716 79.125C133.94 74.2418 131.005 71.6641 126.241 69.4565C122.454 73.8071 112.879 72.7671 109.665 67.8511L109.743 67.7388L109.587 67.4912L108.277 67.3066Z" fill="#8373E5"/>
<path d="M110.329 67.1742C107.658 66.319 107.759 59.8592 108.574 57.7659C109.577 55.2307 111.61 53.175 114.224 52.0513C119.706 49.7347 126.117 51.8815 128.675 57.1399C130.171 60.215 129.599 66.6512 126.43 68.5389C125.4 68.6172 124.159 68.2372 123.132 67.9893L122.733 68.176L122.729 68.3804C123.371 68.8024 125.098 69.0141 125.947 69.165C120.569 72.6205 115.23 72.3088 110.547 68.01L110.288 67.8607C110.71 67.6135 110.705 67.7095 110.807 67.374L110.329 67.1742Z" fill="#D0D8FF"/>
<path d="M113.979 66.9054C114.931 66.9624 115.778 67.0159 116.737 67.004C119.62 66.952 120.238 67.0073 122.973 67.8164L123.132 67.9888L122.732 68.1755L122.728 68.3799C123.37 68.8019 125.097 69.0136 125.947 69.1645C120.569 72.62 115.23 72.3083 110.547 68.0095L110.288 67.8602C110.709 67.613 110.705 67.709 110.806 67.3735L110.329 67.1737C110.876 66.9637 111.217 67.014 111.806 67.0223C112.416 67.063 113.344 66.9582 113.979 66.9054Z" fill="#BBC0FA"/>
<path d="M113.979 66.9054C114.931 66.9624 115.778 67.0159 116.737 67.004L117.838 67.2224L117.972 67.5C116.971 68.3744 112.048 67.7399 110.547 68.0095L110.288 67.8602C110.709 67.613 110.705 67.709 110.806 67.3735L110.329 67.1737C110.876 66.9637 111.217 67.014 111.806 67.0223C112.416 67.063 113.344 66.9582 113.979 66.9054Z" fill="#9489EA"/>
<path d="M111.806 67.0222C111.581 66.0141 111.107 65.0115 112.003 64.2874C113.197 64.5282 113.834 65.8505 113.98 66.9053C113.344 66.9581 112.416 67.0629 111.806 67.0222Z" fill="#FFFEFE"/>
<path d="M112.431 55.9583L113.163 55.9986C114.957 57.1055 112.21 60.5121 111.536 61.9567L111.463 62.1148C111.248 62.2661 111.076 62.2697 110.813 62.3137C109.618 60.9906 111.165 57.1729 112.431 55.9583Z" fill="#FFFEFE"/>
<path d="M119.9 52.8494C121.034 53.0754 123.388 54.9708 122.301 56.2043C120.313 55.9341 117.499 54.9405 119.9 52.8494Z" fill="#BBC0FA"/>
<path d="M81.2094 72.6301C79.5824 70.313 80.7259 66.3342 82.7943 64.4612C84.3265 63.0692 86.3928 62.3217 88.5208 62.3891C92.2314 62.5154 94.5763 64.4184 95.6155 67.5861C95.8138 68.1908 95.912 69.0032 96.3853 69.4193C95.9648 69.797 95.8949 70.0468 95.6627 70.5433L96.4308 70.5263L96.539 72.4268L95.2202 73.2525C94.9183 73.5684 94.0361 74.5307 93.7428 74.7504C93.2958 75.1095 91.3688 76.3428 91.3429 76.3806C91.0133 76.5053 90.4399 76.7013 90.1527 76.8575C89.5016 76.5124 89.1537 76.7757 88.5067 76.9853L88.2886 76.5767L88.2935 76.4832C86.6691 76.2549 82.9714 74.438 82.5776 72.9201C82.4449 72.4121 82.5745 72.5823 82.1181 72.3209L81.6143 71.6649L81.4703 72.181C81.677 72.4504 81.7755 72.5771 82.0195 72.8162L81.769 73.0258L81.2094 72.6301Z" fill="#EDEBFE"/>
<path d="M91.1262 70.377C91.6177 69.707 91.7194 69.6504 92.4636 69.8813L92.9389 69.9277L92.8423 70.2488C93.9159 70.925 94.5221 70.2329 95.5468 70.6041L95.6628 70.5438L96.4308 70.5267L96.5391 72.4273L95.2202 73.2529C94.9184 73.5688 94.0362 74.5311 93.7429 74.7509C93.2958 75.1099 91.3688 76.3432 91.3429 76.381C91.0133 76.5058 90.4399 76.7017 90.1527 76.8579C89.5017 76.5129 89.1537 76.7762 88.5068 76.9858L88.2886 76.5772L88.2935 76.4837C86.6692 76.2553 82.9714 74.4384 82.5776 72.9205C82.4449 72.4125 82.5745 72.5827 82.1182 72.3214C85.2116 70.7188 87.6243 70.7465 91.1262 70.377Z" fill="#B2ABEF"/>
<path d="M82.1182 72.3208C85.2116 70.7183 87.6243 70.7459 91.1262 70.3765C90.5367 71.1142 89.5718 72.0851 89.1362 72.7747C87.3916 70.8227 84.6496 72.0663 82.5776 72.92C82.4449 72.412 82.5745 72.5822 82.1182 72.3208Z" fill="#9489EA"/>
<path d="M91.1261 70.377C91.6176 69.707 91.7193 69.6504 92.4635 69.8813C92.2156 70.8194 91.9639 71.8742 91.6724 72.7912C91.1233 73.2337 90.7048 73.6571 90.0008 73.7913C89.2713 73.6352 89.216 73.5091 89.1361 72.7752C89.5717 72.0857 90.5367 71.1148 91.1261 70.377Z" fill="#FFFEFE"/>
<path d="M93.3565 74.0768L93.7428 74.7512C93.2958 75.1103 91.3687 76.3435 91.3428 76.3813C91.0132 76.5061 90.4398 76.702 90.1526 76.8583C89.5016 76.5132 89.1536 76.7765 88.5067 76.9861L88.2886 76.5775L88.2935 76.484C90.767 75.6895 90.8008 76.3581 93.3565 74.0768Z" fill="#8373E5"/>
<path d="M95.6626 70.5437L96.4306 70.5266L96.5389 72.4272L95.2201 73.2528L94.3711 72.6736C94.9031 71.9071 95.1349 71.4401 95.5466 70.604L95.6626 70.5437Z" fill="#8373E5"/>
<path d="M93.3565 74.0766C92.8504 73.4361 92.5459 73.7401 92.1154 73.1056L92.4164 73.1085L92.5499 73.2385C93.2034 73.1197 93.8217 73.0533 94.3712 72.6738L95.2202 73.253C94.9183 73.5689 94.0361 74.5312 93.7428 74.751L93.3565 74.0766Z" fill="#9489EA"/>
<path d="M81.2094 72.6301C79.5824 70.313 80.7259 66.3342 82.7943 64.4612C84.3265 63.0692 86.3928 62.3217 88.5208 62.3891C92.2314 62.5154 94.5763 64.4184 95.6155 67.5861C95.8138 68.1908 95.912 69.0032 96.3853 69.4193C95.9648 69.797 95.8949 70.0469 95.6627 70.5433L95.5468 70.6036C94.5221 70.2324 93.9159 70.9245 92.8423 70.2484L92.9389 69.9273L95.2952 69.6006C94.7451 67.2819 94.2006 65.5644 91.8518 64.1845C90.2605 63.2581 88.3386 62.9781 86.5244 63.4087C84.7741 63.8118 83.2735 64.8687 82.3686 66.3359C81.2916 68.0708 81.2865 69.7436 81.6143 71.6649L81.4703 72.181C81.677 72.4505 81.7755 72.5771 82.0195 72.8162L81.769 73.0258L81.2094 72.6301Z" fill="#8373E5"/>
<path d="M91.3638 66.2751C92.2246 66.4097 92.1963 66.3997 92.6502 67.0465C92.7505 67.7381 92.7303 67.8274 92.5506 68.492C91.9444 68.3717 91.8883 68.3246 91.4806 67.8819C91.1973 67.2653 91.2864 66.943 91.3638 66.2751Z" fill="#FFFEFE"/>
<path d="M136.192 80.5854C136.498 81.4719 136.87 81.5848 136.998 81.9389C138.365 85.6646 138.603 88.6284 137.92 92.5165C134.898 101.855 124.052 101.727 115.58 101.526C113.864 101.486 112.13 101.725 110.423 101.523C109.979 100.979 109.997 100.548 109.641 99.9624C112.422 96.8297 121.72 96.5879 125.601 95.6789C128.446 99.3072 131.07 93.587 131.795 91.5087C133.85 90.1432 134.72 88.2119 134.708 85.9231C136.05 85.084 135.895 82.1763 136.192 80.5854Z" fill="#9489EA"/>
<path d="M125.601 95.6791C125.507 92.9062 129.216 93.1926 130.32 91.1776C130.649 90.5752 130.907 89.5929 131.652 89.5033L132.055 90.0111C131.979 90.3815 131.79 91.1676 131.795 91.5089C131.07 93.5871 128.446 99.3073 125.601 95.6791Z" fill="#FFFEFE"/>
<path d="M91.343 76.3805C93.162 79.1257 91.3114 80.4083 88.44 80.6505C85.2294 79.7068 85.3238 77.7805 88.2887 76.5766L88.5068 76.9852C89.1538 76.7757 89.5017 76.5123 90.1528 76.8574C90.44 76.7012 91.0134 76.5052 91.343 76.3805Z" fill="#4432C1"/>
<path d="M88.5066 76.9859C89.1536 76.7763 89.5015 76.513 90.1526 76.858C90.5831 77.2018 90.6585 77.3075 90.9836 77.7447C91.3179 79.9691 87.4999 80.5817 87.0857 78.6788C87.2534 77.9714 87.9328 77.4918 88.5066 76.9859Z" fill="#9489EA"/>
<path d="M96.3852 69.4201C98.0544 68.8827 106.289 67.5026 108.276 67.3069L109.586 67.4915L109.743 67.7391L109.665 67.8514C107.804 68.3033 105.456 68.749 103.708 69.2965C101.45 69.3076 98.4818 69.5734 96.4306 70.5271L95.6626 70.5442C95.8948 70.0477 95.9647 69.7978 96.3852 69.4201Z" fill="#4432C1"/>
<path d="M132.76 88.4921C130.647 88.2754 131.322 84.7876 133.302 83.7802C134.048 83.7802 133.774 83.6837 134.332 84.1363C134.71 84.9264 134.709 85.0511 134.708 85.9232C134.324 86.5036 132.917 88.1631 132.76 88.4921Z" fill="#FFFEFE"/>
<path d="M96.4308 70.5261C98.482 69.5725 101.45 69.3067 103.708 69.2955C102.323 69.9957 97.8988 72.1818 96.539 72.4267L96.4308 70.5261Z" fill="#9489EA"/>
<path d="M109.399 84.8442C112.001 84.7824 116.238 86.0969 113.472 89.0235C113.164 89.0548 112.856 89.0728 112.546 89.0776C109.786 89.1434 106.473 87.3319 109.399 84.8442Z" fill="#4432C1"/>
<path d="M109.466 85.7392C111.287 85.6605 113.868 85.9426 113.151 88.2731C111.232 88.3612 108.76 88.2141 109.466 85.7392Z" fill="#9489EA"/>
<path d="M129.396 78.1332C131.002 77.9641 133.615 78.2927 133.341 80.3224C132.897 80.9892 132.735 81.0289 131.967 81.3542C129.019 81.7211 126.125 80.0635 129.396 78.1332Z" fill="#4432C1"/>
<path d="M129.254 79.1055C130.293 79.0285 131.486 78.9132 132.348 79.5352C132.525 80.0653 132.541 79.8398 132.253 80.3791C131.297 80.5372 130.086 80.8412 129.274 80.3073C128.998 79.6743 129.075 79.8685 129.254 79.1055Z" fill="#9489EA"/>
<path d="M121.701 89.8522C124.896 90.1583 125.331 92.6147 122.292 93.8376C119.28 93.4474 118.515 90.5951 121.701 89.8522Z" fill="#4432C1"/>
<path d="M121.209 90.898C121.583 90.61 122.096 90.5416 122.54 90.7209C122.984 90.9 123.285 91.297 123.322 91.7505C123.358 92.2042 123.123 92.6389 122.712 92.8785C122.132 93.2168 121.373 93.0734 120.976 92.5507C120.579 92.0279 120.681 91.3051 121.209 90.898Z" fill="#9489EA"/>
<path d="M80.702 103.844C80.9741 103.83 81.2468 103.821 81.5196 103.818C83.9784 103.793 85.138 105.36 82.9694 107.159C79.6961 107.856 78.0002 105.554 80.702 103.844Z" fill="#4432C1"/>
<path d="M80.837 104.571C81.817 104.545 82.7858 104.533 83.2663 105.434C83.0687 106.186 83.1385 105.959 82.5422 106.568C81.4676 106.576 80.8239 106.702 80.2285 105.789C80.2607 105.147 80.405 105.041 80.837 104.571Z" fill="#9489EA"/>
<path d="M91.9578 88.8675C95.4388 88.7591 94.4517 91.1884 92.4887 92.6155C88.878 92.49 89.5729 90.2612 91.9578 88.8675Z" fill="#4432C1"/>
<path d="M91.9845 89.7601C92.715 89.7607 93.1042 89.7429 93.2931 90.4326C93.0681 91.0704 92.6906 91.2941 92.1443 91.7302C91.6372 91.7688 91.5683 91.7409 91.0901 91.5707L90.9036 91.1796C91.0956 90.448 91.3909 90.2687 91.9845 89.7601Z" fill="#9489EA"/>
<path d="M113.406 80.1974C116.597 80.2966 115.791 82.5242 113.816 83.8732C111.069 83.9414 111.211 81.4967 113.406 80.1974Z" fill="#4432C1"/>
<path d="M83.2073 46.3437C86.5828 45.7599 89.8246 47.8539 90.4616 51.0291C91.0984 54.2042 88.8906 57.267 85.5214 57.8825C82.1286 58.5022 78.8475 56.4057 78.2062 53.2079C77.565 50.0103 79.808 46.9316 83.2073 46.3437Z" fill="#8373E5"/>
<path d="M83.356 47.1111C85.2617 46.7862 87.2054 47.4521 88.4437 48.8539C89.682 50.2557 90.023 52.1766 89.3365 53.8814C88.6498 55.5863 87.0419 56.8113 85.1277 57.0876C82.2231 57.5072 79.4995 55.6513 79.0149 52.9222C78.5302 50.1933 80.4644 47.6041 83.356 47.1111Z" fill="#EDEBFE"/>
<path d="M136.998 81.9391C137.068 81.7701 137.225 81.5092 137.319 81.339L137.742 81.3202C138.479 83.5476 138.983 85.1392 139.198 87.4737C139.348 89.1137 139.322 91.1223 139.622 92.6951C139.794 97.162 139.789 101.305 138.229 105.616L137.749 105.617L137.496 104.827C137.196 105.817 137.101 106.004 136.471 106.846C136.056 105.999 136.077 105.025 135.881 104.09C135.383 101.716 134.468 101.348 132.497 100.094C135.845 98.0863 137.073 96.9276 138.501 93.3478C138.385 92.8676 138.332 92.8263 137.92 92.5168C138.603 88.6287 138.365 85.6649 136.998 81.9391Z" fill="#B2ABEF"/>
<path d="M136.998 81.9391C137.068 81.7701 137.225 81.5092 137.319 81.339L137.742 81.3202C138.479 83.5476 138.983 85.1392 139.198 87.4737C139.348 89.1137 139.322 91.1223 139.622 92.6951C139.794 97.162 139.789 101.305 138.229 105.616L137.749 105.617L137.496 104.827C138.864 100.47 138.732 98.2423 138.864 93.7376L138.501 93.3478C138.384 92.8676 138.332 92.8263 137.92 92.5168C138.603 88.6287 138.365 85.6649 136.998 81.9391Z" fill="#4432C1"/>
<path d="M130.108 43.0021C133.959 42.8956 138.687 46.6332 133.509 49.5358C129.607 49.7389 124.898 46.016 130.108 43.0021Z" fill="#8373E5"/>
<path d="M130.511 43.7239C133.423 44.1563 137 46.0651 133.464 48.7428C130.907 48.947 126.293 46.2768 130.511 43.7239Z" fill="#EDEBFE"/>
<path d="M73.9877 59.2717C77.1398 59.4059 80.4505 62.727 76.1103 64.3012C71.4677 66.144 70.8701 61.5018 73.9877 59.2717Z" fill="#8373E5"/>
<path d="M74.1623 60.113C74.2339 60.1232 74.3054 60.1338 74.3768 60.1451C75.7961 60.3716 77.482 61.0863 77.1662 62.6802C76.7473 63.2674 76.2174 63.339 75.4909 63.5518C74.9573 63.7265 74.6201 63.7875 74.0775 63.89C73.2316 63.5962 72.7758 63.2095 72.8932 62.2591C72.9927 61.4121 73.4501 60.6387 74.1623 60.113Z" fill="#EDEBFE"/>
<path d="M139.855 46.2474C140.178 46.2397 140.501 46.2414 140.824 46.2527C144.412 46.4015 143.466 49.4328 141.338 51.0918C140.716 51.0407 139.054 50.3431 138.648 49.889C137.261 48.3347 138.763 47.1079 139.855 46.2474Z" fill="#8373E5"/>
<path d="M140.113 47.0079C140.898 47.0392 141.287 47.0008 141.951 47.3946C142.739 48.5659 142.012 49.2778 141.194 50.2391C140.781 50.0631 140.372 49.8804 139.966 49.6912C139.26 49.3551 139.131 49.2236 138.917 48.6001C139.012 47.9167 139.58 47.5123 140.113 47.0079Z" fill="#EDEBFE"/>
<path d="M45.4649 81.7043C48.1661 81.9222 50.2935 84.9081 47.5222 86.268C43.897 86.0012 42.2512 84.3841 45.4649 81.7043Z" fill="#8373E5"/>
<path d="M45.6318 82.6139C47.0615 82.777 48.6271 84.0145 47.4145 85.4077C46.2971 85.301 45.1489 85.4489 44.7808 84.3321C44.9047 83.562 45.1717 83.2703 45.6318 82.6139Z" fill="#EDEBFE"/>
<path d="M38.1366 76.3209C40.9691 76.3541 42.3613 78.2889 40.0592 80.2595C37.4469 79.7058 35.764 78.6268 38.1366 76.3209Z" fill="#8373E5"/>
<path d="M38.7459 77.0635C38.7871 77.0721 38.8283 77.0809 38.8695 77.0896C39.45 77.2535 39.9473 77.6108 40.2684 78.095C40.3381 78.8343 40.3858 78.561 39.8935 79.2393C38.9604 79.0719 38.3676 79.083 37.9241 78.2422C38.1155 77.5231 38.1387 77.6721 38.7459 77.0635Z" fill="#EDEBFE"/>
<path d="M70.2246 114.881C71.6824 116.85 72.4582 117.848 74.5677 119.244C75.2879 119.938 77.9797 122.353 78.9651 121.615L79.3195 122.176C78.8413 122.544 78.6528 122.403 78.0323 122.568C74.521 121.345 71.7057 118.582 69.6796 115.709L70.2246 114.881Z" fill="#4432C1"/>
<path d="M67.8327 146.196C67.3754 146.196 66.9134 146.131 66.4467 146C65.9801 145.86 65.5321 145.655 65.1027 145.384C64.6734 145.104 64.2907 144.763 63.9547 144.362C63.6281 143.951 63.3667 143.48 63.1707 142.948C62.9747 142.407 62.8767 141.809 62.8767 141.156C62.8767 140.512 62.9747 139.933 63.1707 139.42C63.3667 138.897 63.6281 138.44 63.9547 138.048C64.2907 137.656 64.6687 137.329 65.0887 137.068C65.5181 136.807 65.9661 136.611 66.4327 136.48C66.9087 136.34 67.3801 136.265 67.8467 136.256C68.3227 136.256 68.7334 136.307 69.0787 136.41C69.4241 136.513 69.7041 136.625 69.9187 136.746C70.1334 136.858 70.2781 136.937 70.3527 136.984C70.5021 137.077 70.6421 137.185 70.7727 137.306C70.9127 137.418 70.9874 137.558 70.9967 137.726C71.0061 137.838 70.9921 137.941 70.9547 138.034C70.9174 138.118 70.8661 138.207 70.8007 138.3C70.6887 138.459 70.5767 138.575 70.4647 138.65C70.3527 138.725 70.2407 138.762 70.1287 138.762C70.0261 138.762 69.9281 138.734 69.8347 138.678C69.7507 138.622 69.6434 138.552 69.5127 138.468C69.4567 138.431 69.3541 138.375 69.2047 138.3C69.0647 138.216 68.8734 138.141 68.6307 138.076C68.3974 138.011 68.1127 137.978 67.7767 137.978C67.3754 137.978 66.9834 138.048 66.6007 138.188C66.2181 138.328 65.8727 138.538 65.5647 138.818C65.2661 139.089 65.0281 139.429 64.8507 139.84C64.6734 140.241 64.5847 140.703 64.5847 141.226C64.5847 141.749 64.6734 142.215 64.8507 142.626C65.0281 143.027 65.2661 143.368 65.5647 143.648C65.8727 143.919 66.2181 144.124 66.6007 144.264C66.9834 144.404 67.3754 144.474 67.7767 144.474C68.0941 144.474 68.3647 144.446 68.5887 144.39C68.8221 144.325 69.0181 144.25 69.1767 144.166C69.3447 144.073 69.4707 144.003 69.5547 143.956C69.6574 143.891 69.7554 143.83 69.8487 143.774C69.9421 143.718 70.0401 143.69 70.1427 143.69C70.2547 143.69 70.3621 143.727 70.4647 143.802C70.5767 143.877 70.6841 143.998 70.7867 144.166C70.8521 144.269 70.9034 144.367 70.9407 144.46C70.9781 144.553 70.9921 144.651 70.9827 144.754C70.9734 144.922 70.8987 145.067 70.7587 145.188C70.6281 145.3 70.4881 145.398 70.3387 145.482C70.2641 145.529 70.1194 145.613 69.9047 145.734C69.6994 145.846 69.4241 145.949 69.0787 146.042C68.7334 146.145 68.3181 146.196 67.8327 146.196ZM74.6546 146.14C74.3092 146.14 74.0012 146.117 73.7306 146.07C73.4692 146.023 73.2406 145.944 73.0446 145.832C72.8579 145.72 72.7039 145.571 72.5826 145.384C72.4612 145.188 72.3679 144.95 72.3026 144.67C72.2466 144.39 72.2186 144.054 72.2186 143.662V136.914C72.2186 136.755 72.2326 136.615 72.2606 136.494C72.2979 136.363 72.3726 136.261 72.4846 136.186C72.6059 136.102 72.7972 136.06 73.0586 136.06C73.3199 136.06 73.5066 136.097 73.6186 136.172C73.7399 136.247 73.8146 136.349 73.8426 136.48C73.8799 136.601 73.8986 136.741 73.8986 136.9V143.592C73.8986 143.769 73.9079 143.919 73.9266 144.04C73.9546 144.152 73.9966 144.245 74.0526 144.32C74.1179 144.385 74.1972 144.432 74.2906 144.46C74.3932 144.488 74.5146 144.502 74.6546 144.502C74.7759 144.502 74.8832 144.516 74.9766 144.544C75.0792 144.572 75.1586 144.642 75.2146 144.754C75.2799 144.866 75.3126 145.048 75.3126 145.3C75.3126 145.561 75.2799 145.753 75.2146 145.874C75.1586 145.995 75.0792 146.07 74.9766 146.098C74.8739 146.126 74.7666 146.14 74.6546 146.14ZM79.6528 146.224C79.0461 146.224 78.5141 146.126 78.0568 145.93C77.6088 145.734 77.2308 145.468 76.9228 145.132C76.6241 144.787 76.3954 144.404 76.2368 143.984C76.0874 143.555 76.0128 143.111 76.0128 142.654C76.0128 141.982 76.1668 141.385 76.4748 140.862C76.7828 140.339 77.2074 139.929 77.7488 139.63C78.2994 139.331 78.9294 139.182 79.6388 139.182C80.1428 139.182 80.5861 139.261 80.9688 139.42C81.3514 139.579 81.6688 139.789 81.9208 140.05C82.1821 140.302 82.3781 140.582 82.5088 140.89C82.6488 141.198 82.7188 141.497 82.7188 141.786C82.7188 142.281 82.5974 142.64 82.3548 142.864C82.1214 143.088 81.8274 143.2 81.4728 143.2H77.7768C77.7861 143.517 77.8841 143.793 78.0708 144.026C78.2668 144.259 78.5094 144.441 78.7988 144.572C79.0974 144.693 79.4008 144.754 79.7088 144.754C79.9421 144.754 80.1474 144.74 80.3248 144.712C80.5114 144.684 80.6701 144.651 80.8008 144.614C80.9314 144.567 81.0434 144.521 81.1368 144.474C81.2394 144.427 81.3328 144.385 81.4168 144.348C81.5008 144.311 81.5801 144.287 81.6548 144.278C81.7574 144.269 81.8601 144.292 81.9628 144.348C82.0654 144.404 82.1494 144.502 82.2148 144.642C82.2708 144.735 82.3081 144.824 82.3268 144.908C82.3548 144.983 82.3688 145.057 82.3688 145.132C82.3688 145.319 82.2568 145.496 82.0328 145.664C81.8088 145.823 81.4914 145.953 81.0808 146.056C80.6794 146.168 80.2034 146.224 79.6528 146.224ZM77.7768 142.206H80.6468C80.8054 142.206 80.9268 142.183 81.0108 142.136C81.0948 142.08 81.1368 141.968 81.1368 141.8C81.1368 141.585 81.0714 141.394 80.9408 141.226C80.8101 141.049 80.6328 140.913 80.4088 140.82C80.1848 140.717 79.9234 140.666 79.6248 140.666C79.2794 140.666 78.9668 140.736 78.6868 140.876C78.4068 141.007 78.1828 141.189 78.0148 141.422C77.8561 141.655 77.7768 141.917 77.7768 142.206ZM89.6076 146.112C89.337 146.112 89.1363 146.061 89.0056 145.958C88.875 145.855 88.8096 145.715 88.8096 145.538L88.9076 145.076C88.833 145.197 88.707 145.342 88.5296 145.51C88.3523 145.669 88.119 145.813 87.8296 145.944C87.5403 146.065 87.1903 146.126 86.7796 146.126C86.341 146.126 85.9256 146.037 85.5336 145.86C85.151 145.673 84.8103 145.421 84.5116 145.104C84.2223 144.777 83.989 144.409 83.8116 143.998C83.6436 143.578 83.5596 143.13 83.5596 142.654C83.5596 142.197 83.6436 141.767 83.8116 141.366C83.989 140.955 84.227 140.591 84.5256 140.274C84.8243 139.957 85.165 139.709 85.5476 139.532C85.9396 139.345 86.3503 139.252 86.7796 139.252C87.1623 139.252 87.4843 139.303 87.7456 139.406C88.0163 139.509 88.245 139.639 88.4316 139.798C88.6183 139.947 88.7723 140.106 88.8936 140.274L88.8096 139.868C88.8096 139.663 88.875 139.509 89.0056 139.406C89.1363 139.294 89.3416 139.238 89.6216 139.238C89.883 139.238 90.0696 139.28 90.1816 139.364C90.2936 139.439 90.3636 139.546 90.3916 139.686C90.4196 139.817 90.4336 139.966 90.4336 140.134V145.258C90.4336 145.417 90.4196 145.561 90.3916 145.692C90.3636 145.823 90.289 145.925 90.1676 146C90.0556 146.075 89.869 146.112 89.6076 146.112ZM87.0316 144.488C87.349 144.488 87.6336 144.409 87.8856 144.25C88.1376 144.091 88.3383 143.877 88.4876 143.606C88.6463 143.326 88.7256 143.018 88.7256 142.682C88.7256 142.318 88.6463 142.001 88.4876 141.73C88.329 141.459 88.119 141.249 87.8576 141.1C87.6056 140.941 87.321 140.862 87.0036 140.862C86.6583 140.862 86.3503 140.946 86.0796 141.114C85.809 141.273 85.5943 141.492 85.4356 141.772C85.2863 142.043 85.2116 142.351 85.2116 142.696C85.2116 143.032 85.291 143.335 85.4496 143.606C85.6083 143.877 85.823 144.091 86.0936 144.25C86.3736 144.409 86.6863 144.488 87.0316 144.488ZM92.6644 146.126C92.4124 146.126 92.2257 146.084 92.1044 146C91.9924 145.925 91.9224 145.827 91.8944 145.706C91.8664 145.575 91.8524 145.431 91.8524 145.272V140.036C91.8524 139.887 91.8664 139.751 91.8944 139.63C91.9224 139.509 91.997 139.415 92.1184 139.35C92.2397 139.275 92.4264 139.238 92.6784 139.238C92.9024 139.238 93.0704 139.266 93.1824 139.322C93.2944 139.378 93.369 139.448 93.4064 139.532C93.4437 139.616 93.4624 139.7 93.4624 139.784C93.4717 139.868 93.481 139.933 93.4904 139.98L93.4344 140.428C93.4904 140.279 93.5837 140.134 93.7144 139.994C93.845 139.854 94.0037 139.728 94.1904 139.616C94.377 139.495 94.5777 139.401 94.7924 139.336C95.0164 139.261 95.245 139.224 95.4784 139.224C95.917 139.224 96.309 139.303 96.6544 139.462C96.9997 139.621 97.2937 139.845 97.5364 140.134C97.7884 140.423 97.9797 140.769 98.1104 141.17C98.241 141.562 98.3064 142.005 98.3064 142.5V145.286C98.3064 145.445 98.2877 145.589 98.2504 145.72C98.2224 145.841 98.1524 145.939 98.0404 146.014C97.9284 146.089 97.737 146.126 97.4664 146.126C97.205 146.126 97.0137 146.084 96.8924 146C96.771 145.925 96.6964 145.827 96.6684 145.706C96.6404 145.575 96.6264 145.431 96.6264 145.272V142.486C96.6264 142.15 96.5657 141.861 96.4444 141.618C96.3324 141.375 96.1644 141.189 95.9404 141.058C95.7257 140.927 95.4504 140.862 95.1144 140.862C94.7877 140.862 94.503 140.932 94.2604 141.072C94.0177 141.203 93.831 141.389 93.7004 141.632C93.5697 141.875 93.5044 142.159 93.5044 142.486V145.286C93.5044 145.445 93.4904 145.589 93.4624 145.72C93.4344 145.841 93.3597 145.939 93.2384 146.014C93.1264 146.089 92.935 146.126 92.6644 146.126ZM107.905 146.196C107.448 146.196 106.986 146.131 106.519 146C106.052 145.86 105.604 145.655 105.175 145.384C104.746 145.104 104.363 144.763 104.027 144.362C103.7 143.951 103.439 143.48 103.243 142.948C103.047 142.407 102.949 141.809 102.949 141.156C102.949 140.512 103.047 139.933 103.243 139.42C103.439 138.897 103.7 138.44 104.027 138.048C104.363 137.656 104.741 137.329 105.161 137.068C105.59 136.807 106.038 136.611 106.505 136.48C106.981 136.34 107.452 136.265 107.919 136.256C108.395 136.256 108.806 136.307 109.151 136.41C109.496 136.513 109.776 136.625 109.991 136.746C110.206 136.858 110.35 136.937 110.425 136.984C110.574 137.077 110.714 137.185 110.845 137.306C110.985 137.418 111.06 137.558 111.069 137.726C111.078 137.838 111.064 137.941 111.027 138.034C110.99 138.118 110.938 138.207 110.873 138.3C110.761 138.459 110.649 138.575 110.537 138.65C110.425 138.725 110.313 138.762 110.201 138.762C110.098 138.762 110 138.734 109.907 138.678C109.823 138.622 109.716 138.552 109.585 138.468C109.529 138.431 109.426 138.375 109.277 138.3C109.137 138.216 108.946 138.141 108.703 138.076C108.47 138.011 108.185 137.978 107.849 137.978C107.448 137.978 107.056 138.048 106.673 138.188C106.29 138.328 105.945 138.538 105.637 138.818C105.338 139.089 105.1 139.429 104.923 139.84C104.746 140.241 104.657 140.703 104.657 141.226C104.657 141.749 104.746 142.215 104.923 142.626C105.1 143.027 105.338 143.368 105.637 143.648C105.945 143.919 106.29 144.124 106.673 144.264C107.056 144.404 107.448 144.474 107.849 144.474C108.166 144.474 108.437 144.446 108.661 144.39C108.894 144.325 109.09 144.25 109.249 144.166C109.417 144.073 109.543 144.003 109.627 143.956C109.73 143.891 109.828 143.83 109.921 143.774C110.014 143.718 110.112 143.69 110.215 143.69C110.327 143.69 110.434 143.727 110.537 143.802C110.649 143.877 110.756 143.998 110.859 144.166C110.924 144.269 110.976 144.367 111.013 144.46C111.05 144.553 111.064 144.651 111.055 144.754C111.046 144.922 110.971 145.067 110.831 145.188C110.7 145.3 110.56 145.398 110.411 145.482C110.336 145.529 110.192 145.613 109.977 145.734C109.772 145.846 109.496 145.949 109.151 146.042C108.806 146.145 108.39 146.196 107.905 146.196ZM117.785 146.112C117.515 146.112 117.314 146.061 117.183 145.958C117.053 145.855 116.987 145.715 116.987 145.538L117.085 145.076C117.011 145.197 116.885 145.342 116.707 145.51C116.53 145.669 116.297 145.813 116.007 145.944C115.718 146.065 115.368 146.126 114.957 146.126C114.519 146.126 114.103 146.037 113.711 145.86C113.329 145.673 112.988 145.421 112.689 145.104C112.4 144.777 112.167 144.409 111.989 143.998C111.821 143.578 111.737 143.13 111.737 142.654C111.737 142.197 111.821 141.767 111.989 141.366C112.167 140.955 112.405 140.591 112.703 140.274C113.002 139.957 113.343 139.709 113.725 139.532C114.117 139.345 114.528 139.252 114.957 139.252C115.34 139.252 115.662 139.303 115.923 139.406C116.194 139.509 116.423 139.639 116.609 139.798C116.796 139.947 116.95 140.106 117.071 140.274L116.987 139.868C116.987 139.663 117.053 139.509 117.183 139.406C117.314 139.294 117.519 139.238 117.799 139.238C118.061 139.238 118.247 139.28 118.359 139.364C118.471 139.439 118.541 139.546 118.569 139.686C118.597 139.817 118.611 139.966 118.611 140.134V145.258C118.611 145.417 118.597 145.561 118.569 145.692C118.541 145.823 118.467 145.925 118.345 146C118.233 146.075 118.047 146.112 117.785 146.112ZM115.209 144.488C115.527 144.488 115.811 144.409 116.063 144.25C116.315 144.091 116.516 143.877 116.665 143.606C116.824 143.326 116.903 143.018 116.903 142.682C116.903 142.318 116.824 142.001 116.665 141.73C116.507 141.459 116.297 141.249 116.035 141.1C115.783 140.941 115.499 140.862 115.181 140.862C114.836 140.862 114.528 140.946 114.257 141.114C113.987 141.273 113.772 141.492 113.613 141.772C113.464 142.043 113.389 142.351 113.389 142.696C113.389 143.032 113.469 143.335 113.627 143.606C113.786 143.877 114.001 144.091 114.271 144.25C114.551 144.409 114.864 144.488 115.209 144.488ZM123.026 148.94C122.69 148.94 122.368 148.898 122.06 148.814C121.752 148.739 121.472 148.637 121.22 148.506C120.977 148.375 120.781 148.235 120.632 148.086C120.492 147.937 120.422 147.797 120.422 147.666C120.422 147.535 120.441 147.423 120.478 147.33C120.525 147.237 120.59 147.143 120.674 147.05C120.786 146.938 120.875 146.854 120.94 146.798C121.015 146.742 121.113 146.714 121.234 146.714C121.337 146.714 121.435 146.751 121.528 146.826C121.631 146.901 121.747 146.985 121.878 147.078C122.009 147.171 122.167 147.255 122.354 147.33C122.541 147.405 122.779 147.442 123.068 147.442C123.311 147.442 123.535 147.4 123.74 147.316C123.945 147.232 124.118 147.106 124.258 146.938C124.407 146.779 124.524 146.588 124.608 146.364C124.692 146.14 124.734 145.888 124.734 145.608L124.72 139.812C124.739 139.597 124.813 139.448 124.944 139.364C125.075 139.271 125.275 139.224 125.546 139.224C125.798 139.224 125.98 139.261 126.092 139.336C126.204 139.401 126.274 139.499 126.302 139.63C126.33 139.751 126.344 139.887 126.344 140.036V145.706C126.344 146.219 126.255 146.677 126.078 147.078C125.901 147.479 125.658 147.815 125.35 148.086C125.042 148.366 124.687 148.576 124.286 148.716C123.894 148.865 123.474 148.94 123.026 148.94ZM122.872 145.958C122.433 145.958 122.023 145.874 121.64 145.706C121.267 145.538 120.935 145.3 120.646 144.992C120.366 144.684 120.142 144.329 119.974 143.928C119.815 143.517 119.736 143.074 119.736 142.598C119.736 142.131 119.815 141.697 119.974 141.296C120.142 140.895 120.366 140.54 120.646 140.232C120.935 139.924 121.267 139.686 121.64 139.518C122.023 139.341 122.429 139.252 122.858 139.252C123.278 139.252 123.642 139.336 123.95 139.504C124.267 139.663 124.529 139.891 124.734 140.19C124.939 140.489 125.093 140.843 125.196 141.254C125.308 141.665 125.364 142.117 125.364 142.612C125.364 143.293 125.271 143.886 125.084 144.39C124.897 144.894 124.622 145.281 124.258 145.552C123.894 145.823 123.432 145.958 122.872 145.958ZM123.026 144.376C123.343 144.376 123.623 144.301 123.866 144.152C124.118 143.993 124.314 143.779 124.454 143.508C124.603 143.237 124.678 142.934 124.678 142.598C124.678 142.253 124.603 141.949 124.454 141.688C124.314 141.417 124.118 141.207 123.866 141.058C123.614 140.909 123.329 140.834 123.012 140.834C122.695 140.834 122.41 140.913 122.158 141.072C121.915 141.221 121.724 141.427 121.584 141.688C121.444 141.949 121.374 142.253 121.374 142.598C121.374 142.943 121.444 143.251 121.584 143.522C121.733 143.783 121.929 143.993 122.172 144.152C122.424 144.301 122.709 144.376 123.026 144.376ZM131.168 146.224C130.562 146.224 130.03 146.126 129.572 145.93C129.124 145.734 128.746 145.468 128.438 145.132C128.14 144.787 127.911 144.404 127.752 143.984C127.603 143.555 127.528 143.111 127.528 142.654C127.528 141.982 127.682 141.385 127.99 140.862C128.298 140.339 128.723 139.929 129.264 139.63C129.815 139.331 130.445 139.182 131.154 139.182C131.658 139.182 132.102 139.261 132.484 139.42C132.867 139.579 133.184 139.789 133.436 140.05C133.698 140.302 133.894 140.582 134.024 140.89C134.164 141.198 134.234 141.497 134.234 141.786C134.234 142.281 134.113 142.64 133.87 142.864C133.637 143.088 133.343 143.2 132.988 143.2H129.292C129.302 143.517 129.4 143.793 129.586 144.026C129.782 144.259 130.025 144.441 130.314 144.572C130.613 144.693 130.916 144.754 131.224 144.754C131.458 144.754 131.663 144.74 131.84 144.712C132.027 144.684 132.186 144.651 132.316 144.614C132.447 144.567 132.559 144.521 132.652 144.474C132.755 144.427 132.848 144.385 132.932 144.348C133.016 144.311 133.096 144.287 133.17 144.278C133.273 144.269 133.376 144.292 133.478 144.348C133.581 144.404 133.665 144.502 133.73 144.642C133.786 144.735 133.824 144.824 133.842 144.908C133.87 144.983 133.884 145.057 133.884 145.132C133.884 145.319 133.772 145.496 133.548 145.664C133.324 145.823 133.007 145.953 132.596 146.056C132.195 146.168 131.719 146.224 131.168 146.224ZM129.292 142.206H132.162C132.321 142.206 132.442 142.183 132.526 142.136C132.61 142.08 132.652 141.968 132.652 141.8C132.652 141.585 132.587 141.394 132.456 141.226C132.326 141.049 132.148 140.913 131.924 140.82C131.7 140.717 131.439 140.666 131.14 140.666C130.795 140.666 130.482 140.736 130.202 140.876C129.922 141.007 129.698 141.189 129.53 141.422C129.372 141.655 129.292 141.917 129.292 142.206Z" fill="black"/>
<defs>
<filter id="filter0_d_692_4015" x="12.8162" y="21.2374" width="169.323" height="151.781" filterUnits="userSpaceOnUse" color-interpolation-filters="sRGB">
<feFlood flood-opacity="0" result="BackgroundImageFix"/>
<feColorMatrix in="SourceAlpha" type="matrix" values="0 0 0 0 0 0 0 0 0 0 0 0 0 0 0 0 0 0 127 0" result="hardAlpha"/>
<feOffset dy="4"/>
<feComposite in2="hardAlpha" operator="out"/>
<feColorMatrix type="matrix" values="0 0 0 0 0.862745 0 0 0 0 0.862745 0 0 0 0 0.862745 0 0 0 1 0"/>
<feBlend mode="normal" in2="BackgroundImageFix" result="effect1_dropShadow_692_4015"/>
<feBlend mode="normal" in="SourceGraphic" in2="effect1_dropShadow_692_4015" result="shape"/>
</filter>
</defs>
</svg>
