<svg width="190" height="190" viewBox="0 0 190 190" fill="none" xmlns="http://www.w3.org/2000/svg">
<g filter="url(#filter0_d_692_3973)">
<path d="M58.3448 23.168C60.6287 23.1105 63.7008 23.3177 66.086 23.3357L93.0417 23.6241L122.315 23.613C127.332 23.6084 133.261 23.4565 138.261 23.672C138.473 23.6811 138.675 23.7531 138.824 23.9043C140.783 25.8954 145.461 34.7171 146.895 37.2219L159.16 58.5618L173.175 82.9538C175.389 86.8368 177.933 91.1116 180.021 95.0795C180.219 95.4541 180.159 95.9088 179.906 96.2481C177.844 99.0108 172.933 108.008 171.533 110.391L145.287 155.481C143.322 158.853 140.944 163.561 138.595 166.737C138.428 166.963 137.465 166.938 137.132 166.938L82.2139 166.918C76.1991 166.884 70.0508 166.527 64.0201 166.568C61.8153 166.583 58.8989 166.469 56.6367 166.628C56.2847 166.653 55.9411 166.502 55.7379 166.213C53.9899 163.732 52.3098 160.588 50.8218 157.971L43.8582 145.805L23.8925 111.044C20.931 105.903 18.0173 100.619 14.96 95.5363C14.7862 95.2472 14.7674 94.8911 14.9174 94.589C16.8288 90.7397 20.2852 85.1998 22.4344 81.4813L38.7971 53.3578L49.6701 34.6005C51.6085 31.2369 53.6089 27.5011 55.8049 24.3164C56.4678 23.3552 57.233 23.3107 58.3448 23.168Z" fill="#ABEAFE"/>
<path d="M58.3068 21.6687C59.4993 21.6387 60.8804 21.6776 62.2297 21.7244C63.5978 21.7718 64.931 21.8269 66.0969 21.8357H66.1017L93.0568 22.1238L122.314 22.114V22.113C127.272 22.1085 133.281 21.9563 138.325 22.1736C138.828 22.1952 139.421 22.3733 139.893 22.8523C140.504 23.4736 141.238 24.5202 141.972 25.6619C142.727 26.8376 143.554 28.2294 144.356 29.6218C145.159 31.0165 145.945 32.4253 146.616 33.6375C147.292 34.8569 147.844 35.8601 148.195 36.4744L160.461 57.8142L174.475 82.2068L174.478 82.2107C176.672 86.0578 179.245 90.383 181.349 94.3806C181.847 95.327 181.664 96.3998 181.108 97.1453C180.142 98.4391 178.447 101.291 176.772 104.209C175.136 107.058 173.526 109.96 172.826 111.151L146.583 156.235L146.582 156.236C144.696 159.475 142.214 164.366 139.801 167.629L139.8 167.628C139.58 167.925 139.312 168.081 139.155 168.158C138.986 168.241 138.824 168.289 138.703 168.319C138.464 168.378 138.221 168.405 138.035 168.419C137.662 168.446 137.258 168.438 137.131 168.438L82.2131 168.419H82.2053C79.176 168.402 76.114 168.303 73.0793 168.215C70.0364 168.126 67.0159 168.048 64.0305 168.068C61.7099 168.084 58.9456 167.969 56.7424 168.124C55.9034 168.183 55.0384 167.824 54.5119 167.077C52.7099 164.519 50.9747 161.276 49.5197 158.717L42.5578 146.552L22.593 111.793L20.3703 107.903C18.1573 104.009 15.9617 100.111 13.675 96.3093C13.2452 95.5948 13.1899 94.696 13.5744 93.9216C15.5131 90.0175 19.0349 84.3652 21.1359 80.7302L21.1379 80.7273L37.5002 52.6033L48.3723 33.8484C50.2756 30.5455 52.3285 26.7147 54.5695 23.4646H54.5705C55.0754 22.7328 55.6835 22.2819 56.3976 22.0242C57.0061 21.8046 57.6858 21.7404 58.1535 21.6804L58.2297 21.6707L58.3068 21.6687Z" stroke="white" stroke-width="3"/>
</g>
<path d="M59.1248 28.7219C84.573 28.594 110.022 28.7126 135.468 29.0774C136.176 29.9943 137.451 32.1126 138.742 34.3489C140.117 36.73 141.456 39.1486 142.106 40.2834H142.107L155.156 63.0266L166.31 82.4436L166.312 82.4465C168.25 85.7631 172.046 91.9723 173.574 95.3538C172.904 96.9651 171.529 99.1785 170.601 100.756C169.055 103.37 167.524 105.993 166.007 108.624L147.131 141.115V141.116L139.241 154.777H139.24C138.774 155.586 137.975 157.02 137.148 158.435C136.39 159.732 135.637 160.962 135.13 161.639C122.398 161.871 109.617 161.66 96.8367 161.458C84.0855 161.257 71.3345 161.065 58.6512 161.335C57.652 159.329 55.561 155.934 54.5115 154.105H54.5106L45.9861 139.262L45.9852 139.261L20.576 95.054C22.5668 91.2321 25.3912 86.6211 27.7596 82.6047L28.7625 80.8899L45.576 51.9543L45.577 51.9534L54.5916 36.3831C54.8608 35.9173 55.2165 35.2875 55.6141 34.5842C56.0123 33.8797 56.4544 33.0991 56.9002 32.3274C57.7264 30.8974 58.5498 29.5252 59.1248 28.7219Z" fill="white" stroke="#E0F7FD"/>
<path d="M80.6772 123.053C76.6826 123.352 67.68 121.484 63.0113 120.467C57.7164 119.578 43.2027 112.553 43.5426 106.246C43.9486 98.7149 48.5656 83.5995 53.2972 77.4683C58.8892 70.2221 70.7833 66.5116 79.548 65.6258C80.9669 65.4824 87.4046 64.9717 88.1321 64.5652C88.218 64.1156 87.3718 62.8348 87.2458 62.0405C86.8622 59.4077 86.8851 56.1386 87.5833 53.5944C89.3308 47.226 93.8566 42.6226 97.3074 37.2252C97.7165 36.5851 97.6329 34.6159 98.3619 34.1812C98.8964 34.6452 99.9264 37.1549 100.616 38.1428C104.055 43.0681 109.079 48.6512 109.651 54.9203C109.953 58.2373 109.905 62.1841 107.644 64.8715C109.78 65.2007 111.059 65.3807 113.223 65.3653C113.842 62.3494 113.871 58.9045 113.509 55.8595C117.128 57.1548 122.431 61.7831 121.987 65.9932C122.275 66.5389 122.435 66.44 123.186 66.7289C124.893 66.8851 126.605 67.4196 128.245 67.9078C133.676 69.5241 138.974 71.7327 142.685 76.2081C146.608 80.9395 154.246 101.287 153.616 107.433C153.402 109.518 151.653 111.043 150.097 112.279C142.255 118.511 131.776 120.385 122.121 121.882C118.709 122.41 115.306 122.977 111.859 123.215C106.265 123.6 100.689 123.527 95.0862 123.504C90.6452 123.485 85.507 123.552 81.1392 123.127C80.9845 123.112 80.8296 123.083 80.6772 123.053Z" fill="#94A7EA"/>
<path d="M80.6772 123.053C76.6826 123.352 67.68 121.484 63.0113 120.467C57.7164 119.578 43.2027 112.553 43.5426 106.246C43.9486 98.7149 48.5656 83.5995 53.2972 77.4683C58.8892 70.2221 70.7833 66.5116 79.548 65.6258C80.9669 65.4824 87.4046 64.9717 88.1321 64.5652C88.218 64.1156 87.3718 62.8348 87.2458 62.0405C86.8622 59.4077 86.8851 56.1386 87.5833 53.5944C89.3308 47.226 93.8566 42.6226 97.3074 37.2252C97.7165 36.5851 97.6329 34.6159 98.3619 34.1812C98.8964 34.6452 99.9264 37.1549 100.616 38.1428C104.055 43.0681 109.079 48.6512 109.651 54.9203C109.953 58.2373 109.905 62.1841 107.644 64.8715C109.78 65.2007 111.059 65.3807 113.223 65.3653C113.842 62.3494 113.871 58.9045 113.509 55.8595C117.128 57.1548 122.431 61.7831 121.987 65.9932C122.275 66.5389 122.435 66.44 123.186 66.7289L123.137 67.3695C122.284 67.3356 121.395 67.7444 120.966 68.4962C121.187 69.8065 124.113 69.5961 125.367 70.0019C130.195 71.5637 138.498 72.8636 140.564 78.0624C141.825 83.0112 132.628 86.0216 128.982 87.0989C122.433 88.97 111.567 90.6143 104.851 90.3844C104.069 90.4171 100.786 90.508 100.231 90.6998C98.537 90.8106 94.5546 90.4699 92.5409 90.4263L92.8439 89.735C90.4414 89.5595 88.0397 89.3381 85.6367 89.183C82.1512 89.1117 75.0498 87.7387 71.4969 86.9195C67.118 85.6994 61.3848 84.3306 58.7205 80.2901C57.4733 78.3986 58.7775 76.9783 60.4129 76.0736C62.2719 75.0453 65.3692 75.1544 67.382 75.7396C68.2727 75.9375 68.659 76.032 69.4989 76.3712L70.3493 76.2498L70.1829 76.047C67.7069 76.0476 67.2865 74.1223 63.7787 73.6887C65.4793 71.8268 82.121 68.8094 85.1149 68.7864C84.4991 68.706 84.4056 68.6949 83.8686 68.3349C80.0829 68.2952 76.4325 69.6043 73.1535 69.9184C73.1451 69.4365 72.4406 68.5689 72.1048 67.7711C66.2385 69.4334 56.6138 73.2043 53.497 78.8096C53.3276 79.116 53.1656 79.4266 53.0111 79.7409C54.041 83.2555 51.3406 91.678 52.5778 94.5186C52.1197 95.8239 50.9918 98.2861 51.4185 99.422C52.3123 99.7135 53.0033 99.0452 53.7533 98.5475C56.3064 103.677 60.5586 105.921 64.4127 109.677C69.6222 114.754 73.7328 119.11 80.9472 121.332C81.3881 121.469 81.8046 121.906 82.2137 122.109C83.2157 122.208 83.9569 122.291 84.9554 122.482C83.9731 123.376 82.1302 122.781 80.6772 123.053Z" fill="#374BA5"/>
<path d="M70.6505 76.5656C75.363 77.563 80.8046 73.7233 85.4848 72.4287C87.6184 71.8227 90.6836 70.908 92.9477 71.0402C98.0309 71.3371 103.229 70.9094 108.257 71.0926C109.196 71.1267 112.024 72.327 112.828 72.7107C117.28 74.8339 120.642 75.5019 125.568 74.6914C129.341 74.4126 131.391 75.1763 134.905 76.5033C135.878 76.8709 138.465 76.5836 139.207 77.3863C143.2 81.7051 131.333 85.6825 129.131 86.2208L128.568 86.359L127.317 86.7561C121.337 88.1928 115.48 89.1999 109.334 89.4272C108.58 89.4552 104.75 89.625 104.336 89.7697L104.748 89.9812L104.851 90.3846C104.069 90.4173 100.786 90.5082 100.231 90.7C98.5371 90.8108 94.5547 90.4702 92.541 90.4265L92.844 89.7352C90.4415 89.5597 88.0398 89.3383 85.6368 89.1832C82.1513 89.1119 75.0498 87.7389 71.497 86.9197C67.1181 85.6996 61.3849 84.3308 58.7206 80.2903C57.4733 78.3988 58.7776 76.9785 60.413 76.0738C62.272 75.0455 65.3693 75.1546 67.3821 75.7398C68.2727 75.9378 68.659 76.0322 69.499 76.3714L70.6505 76.5656Z" fill="#ABEAFE"/>
<path d="M67.3821 75.7397C68.2727 75.9377 68.659 76.0322 69.499 76.3713L70.6505 76.5656C72.9127 80.5614 76.7917 80.4892 80.7832 79.8767C78.6826 81.3308 75.4422 82.9106 72.8589 81.7995C72.3917 82.0561 71.4825 81.7613 71.0815 81.4767C68.5056 79.649 68.3471 78.9057 65.1473 79.1275C64.8284 78.9987 64.9256 79.0358 64.6918 78.7157C64.6152 77.4332 66.4115 76.347 67.3821 75.7397Z" fill="#4CD2FE"/>
<path d="M65.1473 79.1274C67.8649 75.2823 70.9093 80.2517 72.8589 81.7995C72.3916 82.0561 71.4825 81.7613 71.0815 81.4766C68.5056 79.649 68.3471 78.9057 65.1473 79.1274Z" fill="#E0F7FD"/>
<path d="M127.317 86.756C126.78 86.6277 125.551 86.0479 124.696 85.8028C123.643 85.5011 122.565 85.4876 121.859 85.2714L121.812 84.9938C122.746 83.9715 125.461 83.9319 126.915 83.5753C128.387 83.2148 130.874 81.8865 132.111 82.2802C131.144 83.2276 129.556 84.0065 129.138 84.6064C129.322 85.5213 129.01 85.9112 129.131 86.2207L128.568 86.3589L127.317 86.756Z" fill="#4CD2FE"/>
<path d="M92.844 89.7354C95.9651 90.0298 101.211 89.992 104.336 89.7699L104.748 89.9814L104.851 90.3848C104.069 90.4174 100.786 90.5083 100.231 90.7002C98.5371 90.811 94.5548 90.4703 92.541 90.4267L92.844 89.7354Z" fill="#374BA5"/>
<path d="M132.11 82.2801L132.633 81.9438L132.87 82.0914C132.92 83.5861 130.945 84.5421 129.696 84.7985L129.138 84.6063C129.555 84.0064 131.144 83.2275 132.11 82.2801Z" fill="#E0F7FD"/>
<path d="M97.0663 79.4716C96.4432 79.6531 95.9055 79.8863 95.2939 79.7019L95.322 79.4305C97.2793 77.855 101.336 76.9792 103.783 77.3416C109.365 78.1684 114.473 80.782 120.244 80.8812C121.482 80.9026 122.603 81.0232 123.833 80.6885C125.052 80.4834 126.658 79.2594 127.339 79.4314C127.105 80.3231 125.578 81.6988 124.772 82.1615C122.204 83.6349 118.783 83.508 115.967 82.9156C115.467 82.8104 115.302 82.3484 114.692 82.3074C112.308 83.5711 105.459 80.2381 102.81 79.8856C101.392 79.6967 98.1334 80.1101 97.0663 79.4716Z" fill="#4CD2FE"/>
<path d="M97.0663 79.4716C101.193 77.6557 104.504 78.9378 108.45 80.2635C110.521 80.9734 112.602 81.6547 114.692 82.3073C112.308 83.5711 105.459 80.2381 102.81 79.8856C101.392 79.6967 98.1334 80.1101 97.0663 79.4716Z" fill="#E0F7FD"/>
<path d="M82.3989 84.4967C90.8599 76.4752 94.8896 89.3716 103.26 82.6437C102.491 84.3492 101.765 85.4718 99.9672 86.2852C99.28 86.5962 98.348 86.6053 97.8058 86.0297C96.6216 86.9074 95.8039 85.8675 93.7505 86.0462L93.8971 86.2989C93.3779 86.5003 92.8387 86.3592 92.3633 86.1112C87.8902 83.7766 87.4276 83.1951 82.3989 84.4967Z" fill="#4CD2FE"/>
<path d="M93.7505 86.0467L93.5885 85.4415C94.275 84.6648 96.9968 85.5374 97.8058 86.0302C96.6216 86.9079 95.8039 85.8681 93.7505 86.0467Z" fill="#E0F7FD"/>
<path d="M85.3247 75.6467C84.938 76.1006 84.1103 76.6702 83.4945 76.5752C83.3934 76.1802 83.321 76.1184 83.5656 75.6779C85.2204 72.6984 89.7895 73.8458 92.639 73.3114C93.8601 73.0825 94.5173 72.8029 95.599 72.395C94.5356 74.0481 92.0703 76.1958 89.9497 75.7401C89.3292 75.281 89.4906 75.5146 89.2331 74.871C88.5939 75.4617 86.7093 75.7265 85.8229 75.8501L85.3247 75.6467Z" fill="#4CD2FE"/>
<path d="M85.3247 75.6466C86.3708 74.4354 87.8029 74.3098 89.2331 74.8709C88.5939 75.4617 86.7093 75.7264 85.8229 75.85L85.3247 75.6466Z" fill="#E0F7FD"/>
<path d="M103.501 72.5918C104.656 72.6868 108.253 73.9357 108.435 75.062L107.905 75.4088C106.622 75.3357 103.588 74.44 102.758 73.4522C102.848 72.9046 102.932 73.0017 103.501 72.5918Z" fill="#4CD2FE"/>
<path d="M44.3531 107.345C44.4302 101.056 48.9226 84.376 53.0111 79.7412C54.0411 83.2558 51.3407 91.6784 52.5779 94.5189C52.1198 95.8242 50.9918 98.2864 51.4186 99.4224C52.3124 99.7139 53.0033 99.0455 53.7533 98.5479C56.3065 103.677 60.5586 105.921 64.4128 109.677C69.6222 114.754 73.7328 119.111 80.9473 121.332C81.3881 121.469 81.8047 121.906 82.2138 122.11C78.1564 122.598 67.8031 121.008 63.8096 119.841C55.7455 117.485 48.7109 114.795 44.3531 107.345Z" fill="#728AD9"/>
<path d="M51.3116 101.964C53.1704 102.801 54.9126 104.4 55.8106 106.26L54.9211 108.882C53.0261 109.579 52.0843 109.241 50.8242 107.821C50.7815 105.282 50.8383 104.476 51.3116 101.964Z" fill="#E0F7FD"/>
<path d="M97.8042 37.9995C99.2075 39.4048 99.1685 41.1095 100.028 42.7614C101.765 46.099 103.424 48.697 104.114 52.4583C105.275 58.7809 102.218 65.9019 95.4884 67.3176C94.5052 67.5245 94.1651 67.3556 93.3288 68.1162C93.1073 68.006 92.89 67.8872 92.6775 67.7603C86.7487 64.2485 87.0777 57.1058 89.2651 51.4615C91.3238 46.1493 94.954 42.7302 97.8042 37.9995Z" fill="#ABEAFE"/>
<path d="M94.6748 49.2603C96.7703 50.9101 96.2536 58.3671 92.782 59.1415C89.1484 57.025 93.2865 51.8048 94.6748 49.2603Z" fill="#E0F7FD"/>
<path d="M96.7548 42.4551C100.32 43.1527 98.2136 45.6765 96.8464 47.3162C96.7015 47.4047 96.351 47.5346 96.1776 47.6055L95.7705 47.424C95.0032 46.0998 95.8796 43.5843 96.7548 42.4551Z" fill="#E0F7FD"/>
<path d="M101.004 68.4003L101.241 68.7669C101.9 68.8022 102.676 68.4921 103.364 68.4316C108.079 68.0063 112.617 68.558 117.182 69.7065C118.24 69.9726 120.453 69.8011 121.648 69.9453C124.588 70.2999 137.53 73.4187 137.886 76.1476C135.039 76.4665 133.452 74.615 130.996 74.2322L130.853 74.209C129.764 74.04 126.156 74.0747 125.07 74.306L124.988 74.4578C125.137 74.5207 125.425 74.6536 125.568 74.6914C120.642 75.5019 117.28 74.8339 112.828 72.7107C112.024 72.327 109.196 71.1267 108.257 71.0925C103.229 70.9094 98.0309 71.3371 92.9477 71.0402C90.6837 70.9079 87.6184 71.8227 85.4848 72.4287C80.8046 73.7232 75.3631 77.5629 70.6505 76.5656L69.499 76.3714L70.3494 76.25L70.183 76.0472C67.707 76.0478 67.2866 74.1225 63.7788 73.6889C65.4793 71.8269 82.121 68.8096 85.115 68.7866C87.9322 68.3043 90.8115 68.3125 93.6259 68.8111C94.2894 68.9306 94.2348 68.8597 94.7314 68.5253C94.8503 68.5147 96.3495 68.6036 96.6379 68.6122C98.2308 68.6593 99.4313 68.5814 101.004 68.4003Z" fill="#4E63B0"/>
<path d="M97.8041 37.9999C98.0682 37.4678 98.3324 36.9143 98.6198 36.397C99.8501 38.905 102.414 42.0469 104.125 44.3265C109.822 51.9196 112.64 64.8174 101.004 68.4005C99.4312 68.5816 98.2307 68.6595 96.6378 68.6124C96.3494 68.6038 94.8502 68.5149 94.7313 68.5255C94.275 68.4096 93.7835 68.2518 93.3287 68.1166C94.165 67.356 94.5051 67.5249 95.4883 67.318C102.218 65.9023 105.275 58.7813 104.114 52.4587C103.424 48.6974 101.765 46.0994 100.028 42.7618C99.1684 41.1099 99.2074 39.4052 97.8041 37.9999Z" fill="#4CD2FE"/>
<path d="M72.1047 67.7713C76.2326 67.0893 84.8559 65.3704 88.9118 65.5311C89.6525 66.2755 90.444 67.1 91.2012 67.8142C89.0012 67.5997 86.1354 68.055 83.8686 68.3352C80.0829 68.2955 76.4324 69.6045 73.1534 69.9187C73.1451 69.4368 72.4406 68.5692 72.1047 67.7713Z" fill="#728AD9"/>
<path d="M114.621 59.6838C114.6 58.7531 114.592 57.822 114.598 56.8911C118.008 59.5071 123.661 63.9497 119.93 68.6433C119.806 68.7984 119.681 68.9522 119.553 69.1044C118.642 69.1012 117.583 69.1244 116.686 69.0697C112.861 67.1984 114.776 63.0053 114.621 59.6838Z" fill="#4CD2FE"/>
<path d="M114.621 59.6841C117.123 61.7552 118.949 66.2541 116.686 69.07C112.861 67.1987 114.776 63.0056 114.621 59.6841Z" fill="#ABEAFE"/>
<path d="M106.946 65.9069C108.779 65.8957 111.985 65.7998 113.576 66.7322C113.937 67.2486 113.871 67.009 113.831 67.6315C113.389 68.0657 113.329 67.9143 112.501 67.9299C109.963 67.6317 107.444 67.6657 104.898 67.7494C105.588 67.1428 106.27 66.5286 106.946 65.9069Z" fill="#728AD9"/>
<path d="M123.186 66.729C124.893 66.8852 126.605 67.4198 128.245 67.908C133.676 69.5243 138.974 71.7328 142.685 76.2082C146.608 80.9397 154.246 101.287 153.616 107.433C153.402 109.518 151.653 111.043 150.097 112.279C142.255 118.511 131.776 120.385 122.121 121.882C118.709 122.411 115.306 122.977 111.859 123.215C106.265 123.601 100.689 123.527 95.0863 123.504C90.6452 123.486 85.507 123.552 81.1393 123.128C80.9845 123.113 80.8296 123.083 80.6772 123.053C82.1303 122.781 83.9731 123.376 84.9554 122.482C88.2515 122.681 92.0544 122.576 95.4113 122.604C97.3362 122.621 101.945 122.836 103.609 122.639C105.017 122.394 106.187 122.045 107.522 121.56C118.387 117.612 129.755 114.545 139.902 108.889C143.667 106.79 146.744 104.109 148.715 100.213C149.339 98.978 149.738 97.6012 150.214 96.2939C149.275 91.8003 146.125 83.8947 144.05 79.7741C143.989 79.6119 143.924 79.4516 143.854 79.2935C141.625 74.2991 134.028 70.3362 128.971 68.9459C127.519 68.5468 124.484 67.9161 123.254 67.4179L123.137 67.3697L123.186 66.729Z" fill="#728AD9"/>
<path d="M123.186 66.729C124.893 66.8852 126.605 67.4198 128.245 67.908C133.676 69.5243 138.974 71.7328 142.685 76.2082C146.608 80.9397 154.246 101.287 153.616 107.433C153.402 109.518 151.653 111.043 150.097 112.279C142.255 118.511 131.776 120.385 122.121 121.882C118.709 122.411 115.306 122.977 111.859 123.215C106.265 123.601 100.689 123.527 95.0863 123.504C90.6452 123.486 85.507 123.552 81.1393 123.128C80.9845 123.113 80.8296 123.083 80.6772 123.053C82.1303 122.781 83.9731 123.376 84.9554 122.482C88.2515 122.681 92.0544 122.576 95.4113 122.604C97.3362 122.621 101.945 122.836 103.609 122.639C104.456 122.647 105.42 122.968 106.219 122.93C109.317 122.782 112.809 122.48 115.851 122.017C126.902 120.331 145.331 118.096 152.479 108.68C152.825 102.773 152.528 101.906 150.214 96.2939C149.275 91.8003 146.125 83.8947 144.05 79.7741C143.989 79.6119 143.924 79.4516 143.854 79.2935C141.625 74.2991 134.028 70.3362 128.971 68.9459C127.519 68.5468 124.484 67.9161 123.254 67.4179L123.137 67.3697L123.186 66.729Z" fill="#374BA5"/>
<path d="M123.137 67.3696L123.254 67.4179C124.484 67.9161 127.519 68.5467 128.971 68.9459C134.028 70.3362 141.626 74.2991 143.854 79.2934C143.924 79.4515 143.989 79.6118 144.05 79.774C143.111 80.419 142.334 82.8663 140.831 83.9297C137.914 87.5169 133.948 89.931 129.48 91.0784C128.764 91.4373 128.067 91.8755 127.276 91.8596C126.354 91.4794 120.439 92.6845 119.073 92.8833C112.233 93.8776 105.588 94.6743 98.6583 94.4255C95.6261 94.3166 92.5911 94.5749 89.5331 94.1639C89.8899 94.0884 91.0507 93.6563 91.5667 93.5325C93.268 93.1245 99.2361 92.2047 100.231 90.6999C100.786 90.5081 104.069 90.4172 104.851 90.3845C111.567 90.6144 122.433 88.9701 128.982 87.099C132.628 86.0217 141.825 83.0112 140.564 78.0625C138.499 72.8637 130.195 71.5637 125.367 70.002C124.113 69.5962 121.188 69.8066 120.966 68.4963C121.395 67.7444 122.284 67.3357 123.137 67.3696Z" fill="#728AD9"/>
<path d="M129.48 91.0784L129.241 90.9055L129.194 90.6086C129.752 89.9807 134.859 88.4999 136.142 87.3755C137.195 86.4535 139.682 83.9974 140.831 83.9297C137.914 87.5169 133.948 89.931 129.48 91.0784Z" fill="#374BA5"/>
<path d="M52.5778 94.5187C56.0947 91.1792 62.7749 91.0998 66.4812 94.6445C69.9895 97.9997 64.9952 99.699 62.1519 98.9711C59.3321 98.6371 56.4023 98.2211 53.7533 98.5477C53.0033 99.0453 52.3123 99.7136 51.4185 99.4221C50.9918 98.2862 52.1197 95.824 52.5778 94.5187Z" fill="#E0F7FD"/>
<path d="M127.276 91.8595C125.973 92.7995 121.836 93.27 120.136 93.5324C107.967 95.4107 95.4592 95.8847 83.2281 94.3833C82.1106 94.2462 80.8904 93.9773 79.7682 93.7821C70.9635 92.2517 61.1618 90.3571 54.7524 83.6143C54.4908 83.339 54.362 82.913 54.3698 82.5415C55.2727 82.694 57.2391 85.1256 58.1455 85.7034C59.2497 86.4076 60.6799 87.2729 61.8234 87.8372C69.0241 91.391 81.5358 93.7385 89.533 94.1638C92.591 94.5748 95.626 94.3165 98.6582 94.4254C105.588 94.6742 112.233 93.8775 119.073 92.8831C120.439 92.6844 126.354 91.4793 127.276 91.8595Z" fill="#374BA5"/>
<path d="M73.1536 69.9183C76.4325 69.6042 80.083 68.2952 83.8687 68.3349C84.4057 68.6948 84.4992 68.706 85.115 68.7863C82.121 68.8093 65.4793 71.8267 63.7788 73.6886C67.2866 74.1223 67.707 76.0475 70.1829 76.0469L70.3494 76.2497L69.499 76.3711C68.659 76.0319 68.2727 75.9375 67.3821 75.7395C65.3693 75.1543 62.272 75.0452 60.413 76.0735C58.7776 76.9782 57.4734 78.3986 58.7206 80.29C61.3849 84.3305 67.1181 85.6993 71.497 86.9194C75.0498 87.7386 82.1513 89.1117 85.6368 89.1829L85.1484 89.9258C79.0758 89.1183 60.3992 87.4423 57.824 80.0284C55.7815 74.1484 68.8717 71.0062 73.1536 69.9183Z" fill="#263A8D"/>
<path d="M85.6368 89.1831C88.0398 89.3382 90.4415 89.5596 92.844 89.7351L92.541 90.4265C89.6593 90.5556 87.9765 90.3673 85.1484 89.926L85.6368 89.1831Z" fill="#374BA5"/>
<path d="M143.04 89.4729C147.629 89.1501 146.76 96.6885 145.98 99.4927C141.031 99.0117 135.873 98.2703 130.886 98.9106C127.802 99.3066 123.923 99.8558 120.925 100.598C115.01 102.061 111.812 102.787 105.774 101.853C104.567 101.698 100.954 101.417 100.949 99.925C101.632 99.5229 111.96 98.3547 113.584 98.1437C124.421 96.7364 133.027 93.2826 143.04 89.4729Z" fill="#728AD9"/>
<path d="M83.2937 46.7788C83.7022 46.8341 83.5412 46.7417 83.7967 47.056C83.6679 47.4854 83.1335 49.29 83.1411 49.5824C83.2248 52.5386 83.946 55.3559 82.802 58.2235C81.7173 60.9427 79.5157 61.4897 76.9244 60.3692C71.658 55.5728 78.2588 48.5486 83.2937 46.7788Z" fill="#374BA5"/>
<path d="M79.9217 49.5951C80.8576 48.8182 81.5916 48.318 82.5992 47.6396C82.5379 51.0352 83.3272 56.7951 81.0326 59.4254C79.5638 61.1094 77.3862 59.6276 76.1518 58.3889C75.33 54.5746 77.135 51.9516 79.9217 49.5951Z" fill="#4CD2FE"/>
<path d="M79.9217 49.5952C80.545 50.6966 80.2956 53.2542 79.9664 54.41C79.2686 56.8605 78.3707 57.6229 76.1518 58.389C75.33 54.5747 77.135 51.9517 79.9217 49.5952Z" fill="#ABEAFE"/>
<path d="M72.956 139.126C72.6947 139.126 72.5034 139.089 72.382 139.014C72.27 138.939 72.1954 138.837 72.158 138.706C72.13 138.566 72.116 138.421 72.116 138.272V130.194C72.116 130.045 72.1347 129.909 72.172 129.788C72.2094 129.657 72.284 129.555 72.396 129.48C72.5174 129.396 72.7087 129.354 72.97 129.354H75.966C76.3954 129.354 76.8014 129.424 77.184 129.564C77.576 129.695 77.926 129.9 78.234 130.18C78.542 130.451 78.7847 130.796 78.962 131.216C79.1487 131.627 79.242 132.107 79.242 132.658C79.242 133.022 79.186 133.386 79.074 133.75C78.962 134.105 78.794 134.436 78.57 134.744C78.3554 135.043 78.08 135.299 77.744 135.514C77.408 135.729 77.0114 135.869 76.554 135.934H73.81V138.286C73.81 138.435 73.7914 138.575 73.754 138.706C73.726 138.837 73.6514 138.939 73.53 139.014C73.418 139.089 73.2267 139.126 72.956 139.126ZM78.92 138.916C78.6494 139.103 78.4254 139.173 78.248 139.126C78.08 139.079 77.912 138.93 77.744 138.678L75.392 135.122L77.282 134.87L79.144 137.698C79.2747 137.885 79.354 138.043 79.382 138.174C79.41 138.305 79.3867 138.426 79.312 138.538C79.2374 138.65 79.1067 138.776 78.92 138.916ZM73.81 134.254H76.176C76.344 134.254 76.5074 134.226 76.666 134.17C76.834 134.105 76.9834 134.007 77.114 133.876C77.2447 133.736 77.3474 133.568 77.422 133.372C77.506 133.167 77.548 132.924 77.548 132.644C77.548 132.308 77.4827 132.023 77.352 131.79C77.2214 131.547 77.0347 131.365 76.792 131.244C76.5587 131.113 76.274 131.048 75.938 131.048H73.81V134.254ZM83.6889 139.224C83.0822 139.224 82.5502 139.126 82.0929 138.93C81.6449 138.734 81.2669 138.468 80.9589 138.132C80.6602 137.787 80.4316 137.404 80.2729 136.984C80.1236 136.555 80.0489 136.111 80.0489 135.654C80.0489 134.982 80.2029 134.385 80.5109 133.862C80.8189 133.339 81.2436 132.929 81.7849 132.63C82.3356 132.331 82.9656 132.182 83.6749 132.182C84.1789 132.182 84.6222 132.261 85.0049 132.42C85.3876 132.579 85.7049 132.789 85.9569 133.05C86.2182 133.302 86.4142 133.582 86.5449 133.89C86.6849 134.198 86.7549 134.497 86.7549 134.786C86.7549 135.281 86.6336 135.64 86.3909 135.864C86.1576 136.088 85.8636 136.2 85.5089 136.2H81.8129C81.8222 136.517 81.9202 136.793 82.1069 137.026C82.3029 137.259 82.5456 137.441 82.8349 137.572C83.1336 137.693 83.4369 137.754 83.7449 137.754C83.9782 137.754 84.1836 137.74 84.3609 137.712C84.5476 137.684 84.7062 137.651 84.8369 137.614C84.9676 137.567 85.0796 137.521 85.1729 137.474C85.2756 137.427 85.3689 137.385 85.4529 137.348C85.5369 137.311 85.6162 137.287 85.6909 137.278C85.7936 137.269 85.8962 137.292 85.9989 137.348C86.1016 137.404 86.1856 137.502 86.2509 137.642C86.3069 137.735 86.3442 137.824 86.3629 137.908C86.3909 137.983 86.4049 138.057 86.4049 138.132C86.4049 138.319 86.2929 138.496 86.0689 138.664C85.8449 138.823 85.5276 138.953 85.1169 139.056C84.7156 139.168 84.2396 139.224 83.6889 139.224ZM81.8129 135.206H84.6829C84.8416 135.206 84.9629 135.183 85.0469 135.136C85.1309 135.08 85.1729 134.968 85.1729 134.8C85.1729 134.585 85.1076 134.394 84.9769 134.226C84.8462 134.049 84.6689 133.913 84.4449 133.82C84.2209 133.717 83.9596 133.666 83.6609 133.666C83.3156 133.666 83.0029 133.736 82.7229 133.876C82.4429 134.007 82.2189 134.189 82.0509 134.422C81.8922 134.655 81.8129 134.917 81.8129 135.206ZM91.4458 139.042C90.9884 139.042 90.5778 138.958 90.2138 138.79C89.8591 138.613 89.5558 138.37 89.3038 138.062C89.0611 137.745 88.8744 137.381 88.7438 136.97C88.6224 136.559 88.5618 136.116 88.5618 135.64C88.5711 135.164 88.6411 134.721 88.7718 134.31C88.9024 133.89 89.0891 133.526 89.3318 133.218C89.5838 132.91 89.8871 132.667 90.2418 132.49C90.5964 132.313 90.9978 132.224 91.4458 132.224C91.8751 132.224 92.2764 132.313 92.6498 132.49C93.0324 132.667 93.3684 132.915 93.6578 133.232C93.9564 133.549 94.1898 133.918 94.3578 134.338C94.5258 134.749 94.6098 135.192 94.6098 135.668C94.6098 136.153 94.5258 136.601 94.3578 137.012C94.1898 137.423 93.9611 137.782 93.6718 138.09C93.3824 138.389 93.0464 138.622 92.6638 138.79C92.2811 138.958 91.8751 139.042 91.4458 139.042ZM88.6458 141.954C88.3938 141.954 88.2071 141.917 88.0858 141.842C87.9644 141.767 87.8898 141.669 87.8618 141.548C87.8338 141.427 87.8198 141.287 87.8198 141.128V133.078C87.8198 132.919 87.8338 132.779 87.8618 132.658C87.8898 132.537 87.9598 132.439 88.0718 132.364C88.1931 132.28 88.3798 132.238 88.6318 132.238C88.8744 132.238 89.0658 132.275 89.2058 132.35C89.3458 132.425 89.4391 132.551 89.4858 132.728V141.114C89.4951 141.273 89.4811 141.413 89.4438 141.534C89.4158 141.665 89.3411 141.767 89.2198 141.842C89.0984 141.917 88.9071 141.954 88.6458 141.954ZM91.2218 137.474C91.5484 137.474 91.8424 137.399 92.1038 137.25C92.3651 137.091 92.5704 136.877 92.7198 136.606C92.8784 136.326 92.9578 136.013 92.9578 135.668C92.9578 135.313 92.8784 135.001 92.7198 134.73C92.5704 134.459 92.3651 134.249 92.1038 134.1C91.8424 133.941 91.5484 133.862 91.2218 133.862C90.9044 133.862 90.6151 133.941 90.3538 134.1C90.0924 134.259 89.8824 134.473 89.7238 134.744C89.5744 135.005 89.4998 135.313 89.4998 135.668C89.4998 136.013 89.5744 136.326 89.7238 136.606C89.8824 136.877 90.0924 137.091 90.3538 137.25C90.6151 137.399 90.9044 137.474 91.2218 137.474ZM98.2005 139.14C97.8551 139.14 97.5471 139.117 97.2765 139.07C97.0151 139.023 96.7865 138.944 96.5905 138.832C96.4038 138.72 96.2498 138.571 96.1285 138.384C96.0071 138.188 95.9138 137.95 95.8485 137.67C95.7925 137.39 95.7645 137.054 95.7645 136.662V129.914C95.7645 129.755 95.7785 129.615 95.8065 129.494C95.8438 129.363 95.9185 129.261 96.0305 129.186C96.1518 129.102 96.3431 129.06 96.6045 129.06C96.8658 129.06 97.0525 129.097 97.1645 129.172C97.2858 129.247 97.3605 129.349 97.3885 129.48C97.4258 129.601 97.4445 129.741 97.4445 129.9V136.592C97.4445 136.769 97.4538 136.919 97.4725 137.04C97.5005 137.152 97.5425 137.245 97.5985 137.32C97.6638 137.385 97.7431 137.432 97.8365 137.46C97.9391 137.488 98.0605 137.502 98.2005 137.502C98.3218 137.502 98.4291 137.516 98.5225 137.544C98.6251 137.572 98.7045 137.642 98.7605 137.754C98.8258 137.866 98.8585 138.048 98.8585 138.3C98.8585 138.561 98.8258 138.753 98.7605 138.874C98.7045 138.995 98.6251 139.07 98.5225 139.098C98.4198 139.126 98.3125 139.14 98.2005 139.14ZM105.607 139.112C105.336 139.112 105.135 139.061 105.005 138.958C104.874 138.855 104.809 138.715 104.809 138.538L104.907 138.076C104.832 138.197 104.706 138.342 104.529 138.51C104.351 138.669 104.118 138.813 103.829 138.944C103.539 139.065 103.189 139.126 102.779 139.126C102.34 139.126 101.925 139.037 101.533 138.86C101.15 138.673 100.809 138.421 100.511 138.104C100.221 137.777 99.988 137.409 99.8107 136.998C99.6427 136.578 99.5587 136.13 99.5587 135.654C99.5587 135.197 99.6427 134.767 99.8107 134.366C99.988 133.955 100.226 133.591 100.525 133.274C100.823 132.957 101.164 132.709 101.547 132.532C101.939 132.345 102.349 132.252 102.779 132.252C103.161 132.252 103.483 132.303 103.745 132.406C104.015 132.509 104.244 132.639 104.431 132.798C104.617 132.947 104.771 133.106 104.893 133.274L104.809 132.868C104.809 132.663 104.874 132.509 105.005 132.406C105.135 132.294 105.341 132.238 105.621 132.238C105.882 132.238 106.069 132.28 106.181 132.364C106.293 132.439 106.363 132.546 106.391 132.686C106.419 132.817 106.433 132.966 106.433 133.134V138.258C106.433 138.417 106.419 138.561 106.391 138.692C106.363 138.823 106.288 138.925 106.167 139C106.055 139.075 105.868 139.112 105.607 139.112ZM103.031 137.488C103.348 137.488 103.633 137.409 103.885 137.25C104.137 137.091 104.337 136.877 104.487 136.606C104.645 136.326 104.725 136.018 104.725 135.682C104.725 135.318 104.645 135.001 104.487 134.73C104.328 134.459 104.118 134.249 103.857 134.1C103.605 133.941 103.32 133.862 103.003 133.862C102.657 133.862 102.349 133.946 102.079 134.114C101.808 134.273 101.593 134.492 101.435 134.772C101.285 135.043 101.211 135.351 101.211 135.696C101.211 136.032 101.29 136.335 101.449 136.606C101.607 136.877 101.822 137.091 102.093 137.25C102.373 137.409 102.685 137.488 103.031 137.488ZM111.169 139.168C110.721 139.168 110.283 139.093 109.853 138.944C109.433 138.785 109.051 138.557 108.705 138.258C108.369 137.959 108.099 137.595 107.893 137.166C107.697 136.727 107.599 136.233 107.599 135.682C107.599 135.131 107.697 134.641 107.893 134.212C108.099 133.783 108.369 133.419 108.705 133.12C109.041 132.821 109.419 132.593 109.839 132.434C110.259 132.275 110.693 132.196 111.141 132.196C111.468 132.196 111.776 132.243 112.065 132.336C112.364 132.429 112.621 132.541 112.835 132.672C113.05 132.803 113.204 132.933 113.297 133.064C113.419 133.176 113.521 133.283 113.605 133.386C113.689 133.489 113.717 133.615 113.689 133.764C113.661 133.857 113.619 133.946 113.563 134.03C113.507 134.105 113.437 134.184 113.353 134.268C113.129 134.52 112.91 134.613 112.695 134.548C112.574 134.483 112.453 134.413 112.331 134.338C112.21 134.263 112.084 134.193 111.953 134.128C111.832 134.053 111.706 133.993 111.575 133.946C111.445 133.899 111.3 133.876 111.141 133.876C110.787 133.876 110.469 133.955 110.189 134.114C109.919 134.263 109.704 134.473 109.545 134.744C109.396 135.015 109.321 135.327 109.321 135.682C109.321 136.037 109.396 136.354 109.545 136.634C109.704 136.905 109.919 137.119 110.189 137.278C110.46 137.427 110.768 137.502 111.113 137.502C111.281 137.502 111.44 137.483 111.589 137.446C111.748 137.399 111.888 137.343 112.009 137.278C112.131 137.203 112.229 137.129 112.303 137.054C112.406 136.989 112.499 136.928 112.583 136.872C112.667 136.816 112.756 136.788 112.849 136.788C112.961 136.788 113.069 136.83 113.171 136.914C113.283 136.989 113.405 137.11 113.535 137.278C113.657 137.418 113.722 137.553 113.731 137.684C113.75 137.815 113.722 137.941 113.647 138.062C113.582 138.183 113.47 138.295 113.311 138.398C113.199 138.51 113.031 138.627 112.807 138.748C112.593 138.86 112.341 138.958 112.051 139.042C111.771 139.126 111.477 139.168 111.169 139.168ZM118.265 139.224C117.658 139.224 117.126 139.126 116.669 138.93C116.221 138.734 115.843 138.468 115.535 138.132C115.236 137.787 115.008 137.404 114.849 136.984C114.7 136.555 114.625 136.111 114.625 135.654C114.625 134.982 114.779 134.385 115.087 133.862C115.395 133.339 115.82 132.929 116.361 132.63C116.912 132.331 117.542 132.182 118.251 132.182C118.755 132.182 119.198 132.261 119.581 132.42C119.964 132.579 120.281 132.789 120.533 133.05C120.794 133.302 120.99 133.582 121.121 133.89C121.261 134.198 121.331 134.497 121.331 134.786C121.331 135.281 121.21 135.64 120.967 135.864C120.734 136.088 120.44 136.2 120.085 136.2H116.389C116.398 136.517 116.496 136.793 116.683 137.026C116.879 137.259 117.122 137.441 117.411 137.572C117.71 137.693 118.013 137.754 118.321 137.754C118.554 137.754 118.76 137.74 118.937 137.712C119.124 137.684 119.282 137.651 119.413 137.614C119.544 137.567 119.656 137.521 119.749 137.474C119.852 137.427 119.945 137.385 120.029 137.348C120.113 137.311 120.192 137.287 120.267 137.278C120.37 137.269 120.472 137.292 120.575 137.348C120.678 137.404 120.762 137.502 120.827 137.642C120.883 137.735 120.92 137.824 120.939 137.908C120.967 137.983 120.981 138.057 120.981 138.132C120.981 138.319 120.869 138.496 120.645 138.664C120.421 138.823 120.104 138.953 119.693 139.056C119.292 139.168 118.816 139.224 118.265 139.224ZM116.389 135.206H119.259C119.418 135.206 119.539 135.183 119.623 135.136C119.707 135.08 119.749 134.968 119.749 134.8C119.749 134.585 119.684 134.394 119.553 134.226C119.422 134.049 119.245 133.913 119.021 133.82C118.797 133.717 118.536 133.666 118.237 133.666C117.892 133.666 117.579 133.736 117.299 133.876C117.019 134.007 116.795 134.189 116.627 134.422C116.468 134.655 116.389 134.917 116.389 135.206ZM80.9047 155.098C80.718 155.098 80.5687 155.065 80.4567 155C80.3447 154.925 80.2607 154.841 80.2047 154.748C80.158 154.655 80.1254 154.575 80.1067 154.51L77.3627 146.474C77.2694 146.175 77.2554 145.951 77.3207 145.802C77.386 145.643 77.5774 145.513 77.8947 145.41C78.1094 145.335 78.282 145.303 78.4127 145.312C78.5434 145.321 78.6507 145.377 78.7347 145.48C78.828 145.573 78.9074 145.723 78.9727 145.928L80.9887 152.032L82.7947 145.984C82.8227 145.891 82.86 145.797 82.9067 145.704C82.9627 145.601 83.0467 145.517 83.1587 145.452C83.2707 145.387 83.4247 145.354 83.6207 145.354C83.8447 145.354 84.0127 145.391 84.1247 145.466C84.2367 145.541 84.316 145.625 84.3627 145.718C84.4187 145.802 84.456 145.881 84.4747 145.956L86.2807 152.074L88.3107 145.942C88.376 145.727 88.4507 145.569 88.5347 145.466C88.628 145.363 88.7447 145.307 88.8847 145.298C89.0247 145.279 89.1974 145.307 89.4027 145.382C89.6174 145.457 89.7714 145.541 89.8647 145.634C89.958 145.718 90.0047 145.83 90.0047 145.97C90.0047 146.101 89.972 146.269 89.9067 146.474L87.1767 154.524C87.158 154.58 87.1207 154.655 87.0647 154.748C87.018 154.841 86.9387 154.925 86.8267 155C86.7147 155.065 86.5607 155.098 86.3647 155.098C86.1687 155.098 86.0147 155.056 85.9027 154.972C85.7907 154.888 85.7067 154.795 85.6507 154.692C85.5947 154.589 85.5574 154.515 85.5387 154.468L83.6347 148.308L81.7307 154.454C81.712 154.519 81.6747 154.603 81.6187 154.706C81.572 154.809 81.4927 154.902 81.3807 154.986C81.2687 155.061 81.11 155.098 80.9047 155.098ZM95.7014 155.112C95.4307 155.112 95.2301 155.061 95.0994 154.958C94.9687 154.855 94.9034 154.715 94.9034 154.538L95.0014 154.076C94.9267 154.197 94.8007 154.342 94.6234 154.51C94.4461 154.669 94.2127 154.813 93.9234 154.944C93.6341 155.065 93.2841 155.126 92.8734 155.126C92.4347 155.126 92.0194 155.037 91.6274 154.86C91.2447 154.673 90.9041 154.421 90.6054 154.104C90.3161 153.777 90.0827 153.409 89.9054 152.998C89.7374 152.578 89.6534 152.13 89.6534 151.654C89.6534 151.197 89.7374 150.767 89.9054 150.366C90.0827 149.955 90.3207 149.591 90.6194 149.274C90.9181 148.957 91.2587 148.709 91.6414 148.532C92.0334 148.345 92.4441 148.252 92.8734 148.252C93.2561 148.252 93.5781 148.303 93.8394 148.406C94.1101 148.509 94.3387 148.639 94.5254 148.798C94.7121 148.947 94.8661 149.106 94.9874 149.274L94.9034 148.868C94.9034 148.663 94.9687 148.509 95.0994 148.406C95.2301 148.294 95.4354 148.238 95.7154 148.238C95.9767 148.238 96.1634 148.28 96.2754 148.364C96.3874 148.439 96.4574 148.546 96.4854 148.686C96.5134 148.817 96.5274 148.966 96.5274 149.134V154.258C96.5274 154.417 96.5134 154.561 96.4854 154.692C96.4574 154.823 96.3827 154.925 96.2614 155C96.1494 155.075 95.9627 155.112 95.7014 155.112ZM93.1254 153.488C93.4427 153.488 93.7274 153.409 93.9794 153.25C94.2314 153.091 94.4321 152.877 94.5814 152.606C94.7401 152.326 94.8194 152.018 94.8194 151.682C94.8194 151.318 94.7401 151.001 94.5814 150.73C94.4227 150.459 94.2127 150.249 93.9514 150.1C93.6994 149.941 93.4147 149.862 93.0974 149.862C92.7521 149.862 92.4441 149.946 92.1734 150.114C91.9027 150.273 91.6881 150.492 91.5294 150.772C91.3801 151.043 91.3054 151.351 91.3054 151.696C91.3054 152.032 91.3847 152.335 91.5434 152.606C91.7021 152.877 91.9167 153.091 92.1874 153.25C92.4674 153.409 92.7801 153.488 93.1254 153.488ZM101.334 155.14C100.877 155.14 100.485 155.093 100.158 155C99.8314 154.907 99.5654 154.762 99.3601 154.566C99.1548 154.37 99.0008 154.118 98.8981 153.81C98.8048 153.493 98.7581 153.119 98.7581 152.69V146.754C98.7581 146.586 98.7721 146.441 98.8001 146.32C98.8374 146.199 98.9121 146.105 99.0241 146.04C99.1454 145.965 99.3321 145.928 99.5841 145.928C99.8454 145.928 100.032 145.965 100.144 146.04C100.265 146.115 100.34 146.217 100.368 146.348C100.405 146.469 100.424 146.605 100.424 146.754V152.634C100.424 152.83 100.438 152.989 100.466 153.11C100.503 153.231 100.555 153.325 100.62 153.39C100.695 153.446 100.788 153.488 100.9 153.516C101.021 153.535 101.166 153.544 101.334 153.544C101.511 153.544 101.661 153.558 101.782 153.586C101.913 153.614 102.011 153.684 102.076 153.796C102.141 153.899 102.174 154.071 102.174 154.314C102.174 154.575 102.132 154.767 102.048 154.888C101.973 155 101.871 155.07 101.74 155.098C101.619 155.126 101.483 155.14 101.334 155.14ZM98.1841 148.378L99.6261 148.392L101.558 148.336C101.717 148.336 101.857 148.355 101.978 148.392C102.109 148.42 102.211 148.495 102.286 148.616C102.361 148.728 102.398 148.915 102.398 149.176C102.398 149.419 102.361 149.601 102.286 149.722C102.211 149.843 102.113 149.923 101.992 149.96C101.871 149.988 101.731 150.002 101.572 150.002L99.6961 149.974L98.1421 149.988C97.9088 149.979 97.7454 149.913 97.6521 149.792C97.5681 149.661 97.5261 149.451 97.5261 149.162C97.5261 148.891 97.5774 148.695 97.6801 148.574C97.7921 148.443 97.9601 148.378 98.1841 148.378ZM106.774 155.224C106.167 155.224 105.635 155.126 105.178 154.93C104.73 154.734 104.352 154.468 104.044 154.132C103.745 153.787 103.517 153.404 103.358 152.984C103.209 152.555 103.134 152.111 103.134 151.654C103.134 150.982 103.288 150.385 103.596 149.862C103.904 149.339 104.329 148.929 104.87 148.63C105.421 148.331 106.051 148.182 106.76 148.182C107.264 148.182 107.707 148.261 108.09 148.42C108.473 148.579 108.79 148.789 109.042 149.05C109.303 149.302 109.499 149.582 109.63 149.89C109.77 150.198 109.84 150.497 109.84 150.786C109.84 151.281 109.719 151.64 109.476 151.864C109.243 152.088 108.949 152.2 108.594 152.2H104.898C104.907 152.517 105.005 152.793 105.192 153.026C105.388 153.259 105.631 153.441 105.92 153.572C106.219 153.693 106.522 153.754 106.83 153.754C107.063 153.754 107.269 153.74 107.446 153.712C107.633 153.684 107.791 153.651 107.922 153.614C108.053 153.567 108.165 153.521 108.258 153.474C108.361 153.427 108.454 153.385 108.538 153.348C108.622 153.311 108.701 153.287 108.776 153.278C108.879 153.269 108.981 153.292 109.084 153.348C109.187 153.404 109.271 153.502 109.336 153.642C109.392 153.735 109.429 153.824 109.448 153.908C109.476 153.983 109.49 154.057 109.49 154.132C109.49 154.319 109.378 154.496 109.154 154.664C108.93 154.823 108.613 154.953 108.202 155.056C107.801 155.168 107.325 155.224 106.774 155.224ZM104.898 151.206H107.768C107.927 151.206 108.048 151.183 108.132 151.136C108.216 151.08 108.258 150.968 108.258 150.8C108.258 150.585 108.193 150.394 108.062 150.226C107.931 150.049 107.754 149.913 107.53 149.82C107.306 149.717 107.045 149.666 106.746 149.666C106.401 149.666 106.088 149.736 105.808 149.876C105.528 150.007 105.304 150.189 105.136 150.422C104.977 150.655 104.898 150.917 104.898 151.206ZM111.815 155.14C111.563 155.14 111.376 155.098 111.255 155.014C111.143 154.939 111.073 154.837 111.045 154.706C111.017 154.575 111.003 154.431 111.003 154.272V149.078C111.003 148.91 111.017 148.765 111.045 148.644C111.073 148.513 111.143 148.415 111.255 148.35C111.376 148.275 111.567 148.238 111.829 148.238C112.081 148.238 112.263 148.271 112.375 148.336C112.496 148.401 112.571 148.485 112.599 148.588C112.636 148.681 112.655 148.775 112.655 148.868L112.543 149.12C112.589 149.045 112.655 148.957 112.739 148.854C112.823 148.742 112.935 148.635 113.075 148.532C113.215 148.42 113.383 148.331 113.579 148.266C113.775 148.191 114.008 148.154 114.279 148.154C114.391 148.154 114.507 148.168 114.629 148.196C114.759 148.215 114.885 148.247 115.007 148.294C115.137 148.331 115.254 148.383 115.357 148.448C115.459 148.513 115.539 148.593 115.595 148.686C115.651 148.77 115.679 148.868 115.679 148.98C115.679 149.279 115.604 149.531 115.455 149.736C115.305 149.941 115.128 150.044 114.923 150.044C114.783 150.044 114.68 150.03 114.615 150.002C114.549 149.974 114.493 149.941 114.447 149.904C114.409 149.867 114.349 149.834 114.265 149.806C114.19 149.778 114.069 149.764 113.901 149.764C113.761 149.764 113.616 149.787 113.467 149.834C113.327 149.881 113.196 149.951 113.075 150.044C112.953 150.137 112.855 150.259 112.781 150.408C112.706 150.548 112.669 150.711 112.669 150.898V154.3C112.669 154.459 112.655 154.603 112.627 154.734C112.599 154.855 112.524 154.953 112.403 155.028C112.281 155.103 112.085 155.14 111.815 155.14Z" fill="black"/>
<defs>
<filter id="filter0_d_692_3973" x="11.8161" y="20.158" width="171.324" height="153.781" filterUnits="userSpaceOnUse" color-interpolation-filters="sRGB">
<feFlood flood-opacity="0" result="BackgroundImageFix"/>
<feColorMatrix in="SourceAlpha" type="matrix" values="0 0 0 0 0 0 0 0 0 0 0 0 0 0 0 0 0 0 127 0" result="hardAlpha"/>
<feOffset dy="4"/>
<feComposite in2="hardAlpha" operator="out"/>
<feColorMatrix type="matrix" values="0 0 0 0 0.862745 0 0 0 0 0.862745 0 0 0 0 0.862745 0 0 0 1 0"/>
<feBlend mode="normal" in2="BackgroundImageFix" result="effect1_dropShadow_692_3973"/>
<feBlend mode="normal" in="SourceGraphic" in2="effect1_dropShadow_692_3973" result="shape"/>
</filter>
</defs>
</svg>
