<svg width="61" height="61" viewBox="0 0 61 61" fill="none" xmlns="http://www.w3.org/2000/svg">
<path d="M30.3606 11.8041C30.3988 11.7613 30.4474 11.7077 30.49 11.6703C32.0405 10.3076 33.4901 8.98477 35.2512 7.88725C35.6442 7.64235 36.3879 7.09145 36.8034 6.91762C38.8468 6.06297 41.6004 5.52036 43.8106 5.62362C45.8128 5.71717 48.0683 6.15899 49.884 6.97594C50.6152 7.30489 51.7051 8.10432 52.4164 8.56867C53.4854 9.26642 54.2109 9.83478 55.0565 10.7765C56.3243 12.1882 57.9796 15.1778 58.5131 17.0036C59.0455 18.8876 59.252 20.8486 59.1236 22.8022C59.0196 24.5092 58.1578 27.4452 57.3752 29.0165C56.5245 30.7244 54.3439 33.1138 52.8888 34.4001C52.8811 34.6466 52.8977 34.9055 52.9372 35.1468C53.291 37.3073 52.709 39.6485 50.556 40.602C49.8836 40.8997 49.0175 41.1258 48.2661 41.0552C48.1523 42.1338 48.08 43.3741 47.3396 44.2154C46.2144 45.4939 45.1106 45.6533 43.5749 45.8338C43.4521 47.2808 43.4278 47.751 42.5562 48.9448C42.5272 48.9822 42.4971 49.0186 42.4658 49.054C40.8847 50.8598 39.2862 50.5064 37.1997 50.3168C36.7599 50.2768 36.5363 50.6689 36.2851 50.9337C35.7177 51.5315 35.0768 52.1156 34.5151 52.7254C32.9812 54.1918 31.2617 56.6165 28.9875 56.7047C27.7096 56.7543 26.6447 56.5486 25.6824 55.6788C24.4874 54.5987 24.3809 53.5574 24.274 52.1053C22.4889 51.9086 20.8147 51.4919 19.9618 49.7308C19.5809 48.9443 19.5738 48.2135 19.5274 47.3619C18.9264 47.2778 18.2799 47.1692 17.7006 46.9906C15.6513 46.3587 14.6239 44.5086 14.7223 42.4484C11.6515 42.3006 9.80407 40.8524 9.97188 37.5904C9.98969 37.3246 10.0001 36.4476 9.79871 36.2606C5.76415 32.57 2.26431 28.5817 1.84146 22.9046C1.32538 15.9759 4.94562 10.2273 10.9074 7.01079C12.4787 6.1631 15.0426 5.76457 16.7811 5.62514C17.0411 5.60683 17.3478 5.60517 17.6086 5.60619C21.4112 5.61213 25.0875 6.97201 27.9786 9.44209C28.7781 10.1221 29.607 11.0461 30.3606 11.8041Z" fill="#7C5741"/>
<path d="M11.2612 34.8981C9.83476 33.211 8.29517 31.8345 6.83177 30.2877C4.58742 27.9153 3.48266 23.6167 3.73286 20.444C4.04561 16.4564 5.71219 13.4495 8.76327 10.8841C11.5322 8.54749 15.1175 7.40958 18.7271 7.72191C19.7894 7.81216 20.3813 8.00213 21.3501 8.24136C24.7997 9.09304 26.5066 10.8698 28.9546 13.2291C28.1915 14.2893 26.3468 15.6446 25.3204 16.5624C24.3389 17.413 23.3803 18.2737 22.3713 19.0914C21.3648 19.9071 20.1998 20.7253 19.3743 21.7197C18.4308 22.8562 19.0721 24.1456 20.1506 24.8975C21.6855 25.9674 23.6595 26.3663 25.5003 26.0671C29.6563 25.3545 31.1098 21.9375 35.5441 22.268C36.8307 22.3692 38.065 22.8216 39.1124 23.5757C40.064 24.2513 40.8194 25.2087 41.6604 26.0137C42.239 26.5677 42.9411 27.0689 43.4941 27.6431C45.7911 30.028 48.2278 32.3027 50.5031 34.7024C51.4565 35.708 51.2924 37.1751 50.5465 38.2217C49.895 39.167 48.4288 39.3812 47.5209 38.6994C46.8683 38.2035 46.3337 37.4731 45.7454 36.8985C44.6739 35.7671 43.5083 34.7235 42.4085 33.624C41.5465 32.7622 40.7944 31.8703 39.867 31.0583C38.8633 30.1794 38.4415 30.9992 37.7837 31.808C39.041 33.1143 40.2154 34.4702 41.5343 35.7295C42.5186 36.6692 43.5289 37.6163 44.4524 38.6155C45.084 39.2988 46.361 40.3517 46.3357 41.3535C46.3187 42.0271 45.9748 42.8343 45.4974 43.3059C44.9759 43.8593 43.3384 43.9566 42.7738 43.4893C41.7916 42.6766 40.8927 41.6518 39.9807 40.741L34.5118 35.378C33.674 35.6196 33.4992 35.8283 33.371 36.6874C34.1619 38.4251 37.2547 40.8245 38.607 42.2908C39.5503 43.3136 40.7943 44.3382 41.458 45.5624C41.8698 46.3217 41.1892 47.8942 40.4052 48.1918C40.3439 48.2799 40.2773 48.3504 40.2713 48.4533C40.0899 48.6963 40.08 48.6836 39.7389 48.7552C39.3825 48.8301 38.0175 48.8123 37.7932 48.6562L37.7734 48.5524C37.7991 48.3981 37.7944 48.3442 37.7894 48.1864C37.528 45.0061 36.2867 43.2614 32.8977 43.3529C33.1605 40.5835 31.4076 38.7536 28.7007 38.5012C28.5344 38.486 28.368 38.4731 28.2014 38.4624C28.3129 37.2375 28.0591 36.3004 27.257 35.3414C26.4623 34.4083 25.3289 33.8298 24.1071 33.7336C23.9203 33.7174 23.7214 33.714 23.5338 33.7125C23.5337 33.0579 23.5412 32.4836 23.2825 31.8771C22.5241 30.0996 21.0479 29.0384 19.1131 29.0264C16.6157 29.0109 15.4144 30.9672 13.7694 32.5126C12.8292 33.4207 12.3677 34.0319 11.2612 34.8981Z" fill="#B29162"/>
<path d="M37.7734 48.5523C38.1598 48.4374 39.8605 48.4067 40.2713 48.4532C40.0899 48.6963 40.08 48.6836 39.7389 48.7552C39.3825 48.83 38.0175 48.8122 37.7932 48.6561L37.7734 48.5523Z" fill="#CCB5C2"/>
<path d="M37.7894 48.1863C38.7395 48.2279 39.4565 48.2638 40.4052 48.1917C40.3439 48.2798 40.2773 48.3503 40.2713 48.4532C39.8605 48.4066 38.1598 48.4374 37.7734 48.5523C37.7991 48.3981 37.7944 48.3441 37.7894 48.1863Z" fill="#A088A8"/>
<path d="M7.0797 27.4094C6.74879 26.4857 7.41574 26.1122 8.12409 25.6987C8.69233 25.367 9.51285 24.9168 10.175 25.1573C10.3431 25.2206 10.6016 25.8322 10.6796 26.0098C10.3652 26.5016 9.5533 27.2576 9.01722 27.3809C8.81909 27.4722 8.65688 27.8597 8.52881 28.0787C8.11479 28.0923 7.69173 28.0816 7.27664 28.0762C7.24751 27.8431 7.21909 27.5967 7.0797 27.4094Z" fill="#7C5741"/>
<path d="M7.0797 27.4093C7.68583 27.5031 8.4173 27.5129 9.01723 27.3809C8.8191 27.4721 8.65689 27.8597 8.52881 28.0787C8.1148 28.0922 7.69173 28.0815 7.27664 28.0762C7.24751 27.8431 7.2191 27.5967 7.0797 27.4093Z" fill="#C4A7B2"/>
<path d="M6.85262 20.9434C10.148 20.5373 10.0184 22.6299 7.96819 22.8277C7.43003 22.9154 6.81116 22.9451 6.26627 22.934C5.67705 22.6022 5.20644 22.0023 5.72267 21.3419C6.01482 20.9682 6.41257 20.972 6.85262 20.9434Z" fill="#7C5741"/>
<path d="M12.4365 28.3997C12.999 28.4125 13.7093 28.7871 13.5027 29.4559C13.2263 30.3506 12.1301 31.2023 11.3618 31.6723C11.1038 31.7268 10.9668 31.645 10.7586 31.5058C9.35951 30.5711 11.6515 28.891 12.4365 28.3997Z" fill="#7C5741"/>
<path d="M42.3848 7.59019C43.5918 7.43203 45.0262 7.63445 46.2089 7.90323C48.6701 8.46248 50.4475 9.31052 52.4017 10.9229C58.3734 15.8502 58.7997 26.3226 52.8564 31.437C52.3982 31.8313 51.9067 32.4156 51.5066 32.8854C50.1422 31.5254 48.7723 30.2291 47.3653 28.9157C46.6439 28.2421 45.871 27.3137 45.1707 26.5832C43.9842 25.3362 42.7604 24.1252 41.5012 22.9518C41.4948 22.9455 41.4885 22.9393 41.4822 22.9331C40.1456 21.6726 38.4541 20.8532 36.6366 20.5856C34.0141 20.1849 31.6466 20.6268 29.4372 22.0789C27.8075 23.15 26.5172 24.2303 24.4664 24.248C22.9408 24.2611 21.7594 23.9614 20.6433 22.904C21.0988 22.5767 21.5251 22.1723 21.98 21.8288C23.8095 20.4473 25.5052 18.9796 27.2213 17.4631C28.625 16.2226 30.1741 15.0174 31.5511 13.7497C33.1546 12.2736 34.0731 10.8932 35.993 9.69546C37.7133 8.62225 40.3581 7.74341 42.3848 7.59019Z" fill="#FCE7C8"/>
<path d="M18.9749 30.817C20.8239 30.7258 22.2302 32.7225 21.279 34.2775C20.6282 35.3415 18.9684 36.6891 18.0646 37.6262C17.182 38.5412 15.7763 40.2534 14.5517 40.5098C12.7756 40.4495 11.3895 39.1753 11.9873 37.3893C12.2868 36.4943 13.8713 35.2296 14.5698 34.4908C15.5948 33.4065 16.6005 32.2356 17.7542 31.2999C18.0531 31.0575 18.5997 30.8905 18.9749 30.817Z" fill="#FCE7C8"/>
<path d="M33.2508 45.1661C33.7537 45.1092 34.4972 45.2908 34.8881 45.6154C37.7637 47.9799 33.7948 50.5261 32.1945 52.1655C31.2378 53.1455 30.3024 54.5732 28.9005 54.7766C28.3785 54.8205 27.6648 54.7009 27.2184 54.4223C26.6664 54.0778 26.4391 53.6837 26.2665 53.0796C26.147 52.661 26.1451 51.7785 26.4053 51.438C27.0365 50.612 27.9537 49.8618 28.6907 49.1114C29.8329 47.9484 30.9141 46.6869 32.1471 45.6274C32.4354 45.3795 32.8834 45.2431 33.2508 45.1661Z" fill="#FCE7C8"/>
<path d="M28.5694 40.3433C30.1363 40.1494 31.4612 41.9491 31.0186 43.4264C30.7837 43.9016 30.3164 44.4945 29.9386 44.8512C28.2381 46.457 26.6108 48.1158 24.9453 49.749C24.7417 49.9485 24.4055 50.0357 24.1309 50.0635C22.7874 50.0053 21.7985 49.6429 21.4795 48.1729C21.072 46.4411 22.9078 45.3148 24.0266 44.2293C25.1893 43.1013 26.9393 40.6185 28.5694 40.3433Z" fill="#FCE7C8"/>
<path d="M23.9049 35.6412C24.4498 35.5954 24.9912 35.7626 25.4154 36.1077C25.9298 36.5216 26.2536 37.127 26.3125 37.7846C26.3769 38.4905 26.2201 38.8736 25.7764 39.3948C24.5903 40.7885 23.167 41.9504 21.9123 43.2778C21.3843 43.8364 20.8762 44.4151 20.25 44.8699C19.8877 45.1327 19.6257 45.2423 19.183 45.2843C17.3459 45.2044 15.9196 43.7069 16.9067 41.8322C16.9621 41.727 17.3889 41.2841 17.4841 41.19C18.4022 40.2817 19.3918 39.4423 20.2538 38.4775C21.1228 37.5591 22.0056 36.3593 23.1522 35.8095C23.3535 35.7129 23.6774 35.6712 23.9049 35.6412Z" fill="#FCE7C8"/>
</svg>
