<svg width="61" height="61" viewBox="0 0 61 61" fill="none" xmlns="http://www.w3.org/2000/svg">
<path d="M23.2488 3.83061C27.7274 2.61129 32.4408 2.53887 36.9547 3.62004C43.2803 5.13511 48.8693 8.8314 52.7394 14.0591C58.2885 21.5548 59.6858 31.3425 56.4555 40.0915C53.2253 48.8404 45.8028 55.3718 36.7141 57.4631C32.6147 58.4063 28.3541 58.4019 24.2566 57.4501C15.7826 55.4819 8.72883 49.6407 5.21523 41.6823C1.70162 33.7238 2.13781 24.5759 6.39273 16.9879C8.2002 13.7645 10.6354 10.9361 13.5545 8.66979C14.629 7.83563 15.7635 7.08182 16.9489 6.41461C18.9344 5.29705 21.0504 4.42913 23.2488 3.83061Z" fill="#7C5741"/>
<path d="M29.6569 4.53638C43.9753 4.08835 55.9489 15.3263 56.4084 29.6443C56.868 43.9623 45.6397 55.9449 31.3221 56.416C16.9881 56.8876 4.98884 45.6438 4.52875 31.3095C4.06866 16.9751 15.3222 4.98492 29.6569 4.53638Z" fill="#89A1E8"/>
<path d="M42.2049 13.0182C42.6199 13.0166 43.5059 13.4661 43.8734 13.6895C47.3118 15.7793 50.1352 20.8509 51.1851 24.6531C51.9359 27.3718 52.1445 30.5218 51.7187 33.3048C51.5986 34.2197 51.2276 35.1243 51.0439 36.0148C49.549 43.2618 43.2523 49.4728 36.1519 51.3686C30.5549 52.8698 24.5899 52.0695 19.5865 49.1463C14.5879 46.2597 10.7868 41.0095 9.31573 35.4386C8.1612 31.0662 8.99506 26.1106 10.7223 21.9845C11.1859 20.8771 11.9288 19.6924 12.5105 18.6436C13.03 17.7069 13.7077 16.7211 14.4345 15.9365C16.98 13.1885 20.9839 10.6015 24.6075 9.70284C27.5295 8.98692 30.6348 8.63093 33.6117 9.21472C34.0507 9.30086 34.8355 9.44627 35.2073 9.68122C35.6633 9.75496 35.8518 9.97347 36.1214 10.0518C37.0072 9.96817 40.7924 11.5224 41.1234 12.3675C41.4843 12.1543 41.9923 12.7577 42.2049 13.0182Z" fill="white"/>
<path d="M42.2049 13.0182C42.6199 13.0166 43.5059 13.4661 43.8734 13.6895C47.3118 15.7793 50.1352 20.8509 51.1851 24.6531C51.9359 27.3718 52.1445 30.5218 51.7187 33.3048C51.5986 34.2197 51.2276 35.1243 51.0439 36.0148C49.549 43.2618 43.2523 49.4728 36.1519 51.3686C30.5549 52.8698 24.5899 52.0695 19.5865 49.1463C14.5879 46.2597 10.7868 41.0095 9.31573 35.4386C8.1612 31.0662 8.99506 26.1106 10.7223 21.9845C11.1859 20.8771 11.9288 19.6924 12.5105 18.6436C13.03 17.7069 13.7077 16.7211 14.4345 15.9365C16.98 13.1885 20.9839 10.6015 24.6075 9.70284C27.5295 8.98692 30.6348 8.63093 33.6117 9.21472C34.0507 9.30086 34.8355 9.44627 35.2073 9.68122C34.8712 10.046 34.6224 10.434 34.1405 10.4244C33.4967 10.4115 32.8526 10.3678 32.2105 10.3398C31.2294 10.3052 30.2473 10.309 29.2665 10.3514C24.2419 10.6147 19.2698 12.9785 15.8747 16.6565C14.9278 17.6823 13.5533 19.2207 12.8511 20.422C11.0949 23.4268 10.2686 27.2727 10.3854 30.7373C10.5039 33.2352 10.7658 35.715 11.7861 38.0283C12.1547 38.8641 12.6397 39.5547 13.0159 40.3441C14.4373 43.3263 16.9413 45.5281 19.5715 47.4332C20.3694 48.011 21.3762 48.4235 22.2682 48.8367C25.1338 50.2429 27.8207 50.5513 30.9643 50.5126C31.8596 50.5015 33.4102 50.3898 34.2836 50.2099C38.2546 49.3917 42.2639 47.4359 45.0397 44.4409C45.692 43.7371 47.1137 42.1971 47.623 41.4175C48.9409 39.3997 50.1539 36.3688 50.5305 34.0027C50.6989 32.9437 50.7447 31.2745 50.6998 30.1873C50.6429 28.8117 50.4426 26.3115 50.0541 25.0218C49.3 22.5181 47.5493 19.1011 45.7844 17.1833C44.4772 15.763 43.134 14.7555 42.2049 13.0182Z" fill="#7C5741"/>
<path d="M36.1214 10.0519C37.0072 9.96831 40.7924 11.5225 41.1234 12.3676C41.04 12.4658 40.8933 12.6306 40.764 12.6191C39.4325 12.5001 37.0516 10.7507 36.1214 10.0519Z" fill="#60417A"/>
<path d="M40.6928 18.502C41.9113 18.312 42.3917 19.3075 42.718 20.2965C41.8869 21.8215 41.1924 23.3621 40.4489 24.9266C39.8521 26.1822 39.2232 27.42 38.6455 28.6853C37.9519 30.2042 36.4871 34.1062 35.5215 35.1579C34.4126 36.3656 26.6395 39.6458 24.6432 40.5816C23.2135 41.2517 21.8258 41.9986 20.4196 42.715C20.0274 42.6938 19.8288 42.6205 19.4943 42.4244C18.6447 41.9262 18.1819 41.5227 18.6099 40.5159C19.1327 39.286 19.7054 38.098 20.2699 36.8953C21.0517 35.2206 21.8179 33.5386 22.5682 31.8495C22.9979 30.9065 23.4144 29.9574 23.8176 29.0027C24.2647 27.9178 24.9118 25.9107 25.9189 25.2681C27.2948 24.3904 29.0093 23.901 30.4852 23.1876C32.9971 21.9734 35.4719 20.6695 38.0217 19.5372C38.6873 19.2419 40.0047 18.6634 40.6928 18.502Z" fill="#7C5741"/>
<path d="M40.5894 20.4734L40.6126 20.5133C40.3856 22.4765 38.9781 24.9203 38.0931 26.6385L36.1859 30.396C35.7751 31.2088 35.2716 32.5139 34.8344 33.2248C34.0938 32.9778 33.7793 32.8877 33.2368 32.3156C32.838 30.998 33.1874 29.7602 31.8921 28.7222C29.5346 27.3953 29.1923 28.7431 27.1849 26.4293C30.5136 24.5427 34.0918 23.0112 37.5632 21.4042C38.4936 20.9735 39.6661 20.8555 40.5894 20.4734Z" fill="#E45A5C"/>
<path d="M26.2996 27.3937C26.4721 27.4272 26.7881 27.6908 26.9414 27.8039C28.6634 29.0739 27.3632 30.8218 28.594 32.3029C29.153 32.9756 29.9169 33.0023 30.7482 33.0326C32.0847 33.0813 32.5765 33.6331 33.4108 34.5898C32.6482 35.2014 30.5453 36.0578 29.5255 36.5364C28.0959 37.2072 26.6227 37.9491 25.195 38.6056C23.3948 39.4576 21.957 40.1035 20.1129 40.8468C20.8785 38.8927 21.6517 36.8824 22.4752 34.9531C23.2284 33.1886 24.3311 31.4271 25.0945 29.6454C25.3875 28.9617 25.8775 27.9801 26.2996 27.3937Z" fill="#F5ECE5"/>
<path d="M29.7218 29.2257C30.5982 29.2542 32.1603 29.5116 31.9648 30.9263C31.9238 31.223 31.5098 31.4855 31.2413 31.6052C28.8439 31.9642 28.4189 29.6014 29.7218 29.2257Z" fill="#F5ECE5"/>
<path d="M27.7465 12.4961C28.1267 12.4921 28.507 12.4951 28.8871 12.5049C29.3832 13.0412 30.0478 14.2921 30.4539 14.9514C30.8616 15.6131 31.1857 16.0799 31.6599 16.7013C31.6178 15.3551 31.6809 13.8443 31.4826 12.5154L33.0968 12.5465C33.0665 13.8473 33.0668 15.1487 33.0978 16.4495C33.1255 17.369 33.2248 18.8582 33.1448 19.7365L33.1027 19.8133C32.7733 19.9409 32.224 19.9609 31.8691 19.9707C31.329 18.9263 30.1216 16.3107 29.4373 15.5147C29.3444 16.6727 29.3676 18.4963 29.3762 19.6729C28.888 19.6773 28.389 19.669 27.8999 19.6661C27.8076 17.4323 27.7509 14.7232 27.7465 12.4961Z" fill="#E45A5C"/>
<path d="M29.5449 41.3851C30.0728 41.3262 32.8287 41.3906 33.1166 41.7563C33.1634 41.9654 33.2171 42.1166 33.1569 42.3215C32.8403 42.5879 29.9068 42.4204 29.2504 42.626C28.5112 42.8575 28.7499 43.1999 28.8969 43.816C30.0181 44.2265 31.4247 44.0107 32.517 44.4741C33.3338 44.8207 33.2431 45.9168 33.209 46.6256C33.1662 47.512 32.4357 47.8167 31.6989 48.0262C30.4171 48.3106 29.1082 48.0812 27.8449 47.8292C27.83 47.5113 27.8412 47.1447 27.8433 46.8228C28.9166 47.1173 30.212 46.9874 31.2889 47.0155C32.1905 47.039 32.0657 45.866 31.888 45.7869C30.4066 45.1284 27.9556 46.1693 27.8313 43.697C27.7526 42.1316 27.6026 41.5237 29.5449 41.3851Z" fill="#7C5741"/>
<path d="M43.0864 29.7897C43.8259 29.9232 45.8449 29.981 46.5989 29.9675C46.6007 30.3113 46.5819 30.6957 46.572 31.0429C45.546 31.0588 44.1411 30.9628 43.0818 30.9362L43.0864 29.7897Z" fill="#7C5741"/>
<path d="M14.5642 29.7794C15.3473 29.9641 17.1384 30.049 18.004 30.1044C18.0092 30.3493 18.042 30.7927 17.9354 30.9871C17.4197 31.0903 15.177 31.0476 14.5083 31.0528C14.5533 30.7171 14.5542 30.1364 14.5642 29.7794Z" fill="#7C5741"/>
<path d="M16.1238 23.8761C16.5177 23.9568 18.9567 25.7006 19.0677 26.063C18.9757 26.2263 18.8192 26.2606 18.636 26.3362C17.8878 26.0831 16.2362 25.0392 15.5448 24.5776C15.7127 24.3294 15.9249 24.1015 16.1238 23.8761Z" fill="#7C5741"/>
<path d="M19.1118 19.2288C19.6116 19.3713 21.7915 21.5543 21.7387 22.1373L21.6068 22.1912C21.0641 21.8265 19.1147 20.1893 18.8613 19.6533C18.8909 19.424 18.9366 19.4386 19.1118 19.2288Z" fill="#541C36"/>
<path d="M39.4448 38.8196C39.8275 38.9777 41.8476 40.9016 41.8622 41.3197L41.7192 41.449C41.5799 41.4775 41.4147 41.5415 41.2764 41.4506C40.5879 40.9982 39.7238 40.0001 39.3363 39.2731C39.254 39.119 39.3793 38.9484 39.4448 38.8196Z" fill="#541C36"/>
<path d="M42.2235 34.7137C42.5826 34.749 44.8456 35.9059 45.1306 36.2937C45.2707 36.4844 45.2355 36.5253 45.2105 36.7207C44.6441 36.5217 42.5509 35.5714 42.1581 35.1697C42.1114 34.9398 42.143 34.9672 42.2235 34.7137Z" fill="#0C0313"/>
</svg>
