<svg width="61" height="61" viewBox="0 0 61 61" fill="none" xmlns="http://www.w3.org/2000/svg">
<path d="M59.3784 33.194C57.949 48.612 44.6644 60.1904 29.1957 59.5004C13.7271 58.8104 1.5262 46.095 1.47525 30.611C1.42431 15.1271 13.5412 2.33173 29.005 1.53991C44.4688 0.748103 57.8293 12.2389 59.3602 27.6471C59.3756 27.8018 59.3897 27.9567 59.4026 28.1117C59.4287 28.4256 59.4497 28.7399 59.4655 29.0546C59.5087 29.911 59.5139 30.7689 59.4811 31.6257C59.4641 32.0701 59.4368 32.5141 59.3994 32.9573C59.3927 33.0362 59.3858 33.1152 59.3784 33.194Z" fill="#2E8F31" stroke="#2E8F31" stroke-width="2"/>
<path d="M28.9403 3.13054C44.0517 2.26683 57.0028 13.8155 57.869 28.9268C58.7353 44.0381 47.1887 56.9911 32.0776 57.8599C16.9629 58.7289 4.00609 47.1791 3.13963 32.0642C2.27317 16.9493 13.8252 3.99445 28.9403 3.13054Z" fill="#6EC656"/>
<path d="M44.1207 17.6519C44.5248 17.7375 47.1969 20.5611 47.6522 21.0324C46.7285 21.6979 45.675 23.0218 44.8611 23.8653C43.9381 24.8217 42.9593 25.6407 42.0305 26.563C41.1553 27.4322 40.326 28.4019 39.4432 29.2818L29.3496 39.3822C28.2779 40.475 26.865 41.5736 25.9578 42.7425C24.6469 41.4024 23.349 40.1643 22.0028 38.8681C21.0205 37.9223 20.1136 36.8534 19.1166 35.8829C18.0306 34.7557 16.0911 33.3722 15.5896 31.9811C16.3757 31.318 18.0847 29.6021 18.7152 29.1891C18.7501 29.2064 18.7843 29.2248 18.8177 29.2444C19.3992 29.5784 20.4043 30.6673 20.9213 31.19L23.8926 34.1547C24.5368 34.8086 25.2157 35.5847 25.8996 36.1668C26.2205 35.8851 26.5374 35.5989 26.8504 35.3084C28.146 34.1172 29.1388 33.0293 30.364 31.795L36.753 25.4051C38.014 24.1586 39.2565 23.0152 40.4549 21.6942C41.5519 20.485 42.8959 19.3996 44.0434 18.2373C44.1551 18.1241 44.1134 17.8257 44.1207 17.6519Z" fill="#FEFEFE"/>
</svg>
