<svg width="61" height="61" viewBox="0 0 61 61" fill="none" xmlns="http://www.w3.org/2000/svg">
<g clip-path="url(#clip0_706_1971)">
<path d="M0 28.2377C1.00902 28.2703 0.917716 27.8108 1.72457 27.4745C2.34359 27.2165 2.97548 26.9817 3.58701 26.6984C4.79772 26.2923 5.94546 25.8659 7.11919 25.3609C7.70065 25.1108 8.42056 24.9812 9.01078 24.7227C10.2721 24.1887 11.5264 23.6745 12.8316 23.2508C13.0261 23.1876 13.2644 23.1193 13.44 23.0212C13.6205 22.7098 13.5629 22.4864 13.4687 22.1499C13.125 20.922 12.6511 19.7584 12.2179 18.5642C11.6692 17.0513 11.2099 15.5004 10.7107 13.9731L9.55025 10.361C9.25878 9.47963 7.89759 5.68506 8.03884 4.9735L8.10043 4.90648C8.9203 4.93193 13.0891 7.55562 13.9831 8.04994C15.9986 9.16438 18.0622 10.2058 20.0922 11.295C20.9742 11.7683 21.8228 12.309 22.7073 12.7745C22.8852 12.8682 24.1654 13.621 24.2505 13.5984C24.2588 13.5962 24.3152 13.5472 24.326 13.5355C24.838 12.9836 25.8489 9.75168 26.2107 8.78807C26.564 7.84728 26.948 6.9081 27.3231 5.97516C27.603 5.27872 27.9758 4.62935 28.2398 3.92327C28.4662 3.318 29.285 0.885906 29.5365 0.51123C30.1895 0.584596 31.248 3.85882 31.5157 4.56506C32.3447 6.75232 33.1176 8.93081 34.119 11.0519C34.3474 11.5358 34.8093 13.341 35.1769 13.5757C35.9037 13.5446 38.6757 12.4767 39.4877 12.1885C40.3698 11.8753 41.3313 11.5477 42.2046 11.2228C42.6008 11.0754 43.4632 10.8946 43.8586 10.7548C45.0689 10.3268 52.1363 7.92705 52.8685 7.98989C52.9176 8.05667 52.9878 8.13709 52.9425 8.22853C52.274 9.57816 51.3354 10.8188 50.6102 12.1467C50.4392 12.4863 50.4169 12.8476 50.2022 13.1727C49.9244 13.5917 49.5573 13.9523 49.2613 14.3559C48.4827 15.4172 47.6998 16.4639 47.0464 17.6088C46.5958 18.3983 46.1992 19.1941 45.7894 20.001C45.6262 20.3223 45.098 20.784 44.9021 21.1174C44.5804 21.6607 42.9898 23.8134 43.0748 24.293C43.2341 24.4945 43.5401 24.6177 43.7833 24.688C45.1662 25.0879 46.5494 25.4855 47.9293 25.8964C48.4846 26.0617 49.1145 26.1277 49.669 26.305C51.0588 26.7495 52.4319 27.2061 53.8499 27.5552C54.2637 27.6571 54.7187 27.93 55.1401 28.0374C56.2434 28.3763 57.4101 28.6821 58.505 29.0309C58.9722 29.1798 60.3143 29.4046 60.5663 29.5316C60.3346 30.1537 57.9187 30.7593 57.2796 30.9594L53.3391 32.2133C50.4347 33.143 47.2757 34.4057 44.3546 35.0168C44.5855 35.7981 45.2907 37.1326 45.6638 37.9143C46.5562 39.8271 47.488 41.7212 48.4587 43.5954C48.9969 44.6191 51.4841 49.1094 51.505 49.9723C51.2864 50.1062 51.0157 49.9703 50.7832 49.941C50.2504 49.8739 49.7527 49.5788 49.2742 49.4315C48.07 49.0608 46.956 48.6322 45.8126 48.1113C44.7477 47.6765 43.5635 47.3557 42.4766 46.9675C40.993 46.4479 39.5626 45.8197 38.0508 45.3504C36.9867 45.0201 36.2223 44.6325 35.0867 44.4424C34.6987 45.2259 34.7038 45.6387 34.4381 46.2232C33.9145 47.3749 33.3833 48.5034 32.8826 49.6736C32.312 51.0072 31.8272 52.2576 31.3098 53.6055C30.5606 55.5569 29.6128 57.4705 29.003 59.4887C28.8496 59.9963 28.6148 60.4049 28.4589 61H28.3014C28.122 59.9742 27.8223 59.7669 27.5258 58.9024C27.2215 58.0153 26.9722 56.9909 26.6471 56.0802C26.2691 55.0217 26.1643 53.7556 25.7494 52.6837C25.3118 51.5462 25.0888 50.3509 24.7581 49.1865C24.1864 47.1731 23.5444 45.1423 23.0329 43.1149C22.6457 42.7733 21.6249 43.2636 21.2273 43.3865C19.594 43.8914 7.05825 48.7354 6.38516 48.588C6.18912 48.072 7.7187 45.9035 8.01626 45.3493C9.33103 42.8447 10.6797 40.3579 12.0619 37.8898C12.5813 36.959 13.2824 36.0978 13.607 35.0685C12.9269 34.6648 12.0458 34.401 11.3743 33.995C9.75011 33.0128 8.08155 32.2896 6.39517 31.4579L2.2351 29.4111C1.45361 29.0254 0.873301 28.5341 0 28.496V28.2377Z" fill="#825F4A"/>
<path d="M29.5546 4.2804C30.1141 5.08731 30.8186 6.97176 31.1656 7.9088C31.6566 9.24341 32.1662 10.5711 32.6945 11.8914C33.1979 13.184 33.657 14.4929 34.3831 15.6799C35.1154 15.2362 37.3131 14.5845 38.241 14.2962C39.417 13.93 40.5897 13.5536 41.7591 13.1671C44.4816 12.2723 46.925 11.2373 49.7693 10.5152C49.194 11.2104 48.6884 12.1821 48.1733 12.9376C46.8767 14.8393 45.7293 16.866 44.5046 18.7959C43.039 21.1054 41.6468 22.9523 40.3537 25.4388C43.2099 26.0079 46.2951 26.9863 49.1002 27.8319C51.6164 28.5904 52.9157 29.2086 55.6026 29.4814C54.495 30.712 54.0491 30.2835 52.6555 30.7639C50.1285 31.6349 47.5463 32.3248 45.0313 33.2257C44.052 33.5765 42.9092 33.8793 41.9911 34.3525C42.525 34.9858 43.64 37.1833 44.003 37.9464L46.0741 42.201C46.8043 43.7266 47.9856 46.453 48.9876 47.6374C48.1474 47.2272 46.5154 46.7123 45.563 46.3743L39.2781 44.1515C38.2253 43.7874 35.1164 42.7633 34.3818 42.1018C33.9498 42.9467 33.5154 44.0776 33.1266 44.9662C31.9339 47.7421 30.7998 50.5429 29.725 53.3666C29.2578 54.6074 28.9246 55.2125 28.3568 56.3734C27.8855 54.3255 27.299 52.4436 26.6827 50.4389C26.204 48.8817 25.8429 47.2848 25.3336 45.7268C24.8016 44.0994 24.5324 42.3914 23.8523 40.8032C20.0872 41.7908 16.4019 43.6094 12.6878 44.8061C11.8357 45.0807 10.4118 45.7286 9.58558 45.7736C9.81522 45.1483 10.2469 44.5435 10.5422 43.9445C11.6049 41.8499 12.8739 39.9197 13.957 37.8319C14.4272 36.9257 15.295 35.1764 15.8932 34.4069C15.4271 34.2288 14.7681 33.8795 14.3305 33.6265C11.0106 31.7074 7.16017 30.3179 3.89147 28.3713C4.75789 28.079 5.58193 27.6397 6.42877 27.3249C7.8849 26.7837 9.28439 26.2423 10.7218 25.6552C12.3034 25.0091 14.1581 24.5552 15.641 23.6769C15.4781 23.3451 15.1388 22.248 15.0043 21.8457L13.7183 17.9059C12.886 15.3064 11.8632 12.762 11.0578 10.1498C10.829 9.40771 10.6026 8.6414 10.3431 7.91261C12.1143 8.73039 13.8948 9.69984 15.5996 10.6537C16.5128 11.1648 17.7786 11.7365 18.6235 12.2592C20.672 13.5266 22.6763 14.5546 24.8028 15.6738C24.9357 15.7437 25.0336 15.7487 25.1792 15.7278C25.3398 15.6355 25.5432 15.1955 25.6034 15.0082C26.537 12.102 27.7904 9.33241 28.8837 6.48638C29.1706 5.73963 29.3156 5.02495 29.5546 4.2804Z" fill="#FF5D1D"/>
<path d="M32.0486 20.0681C32.0917 20.4271 31.97 21.4081 31.9872 21.863C32.0737 24.1568 31.8755 26.8632 32.0464 29.1144C33.8333 29.466 35.7066 29.5026 37.4803 30.0749C37.9186 30.2163 39.129 30.1846 39.1865 30.7557C38.9292 31.0923 37.8716 31.1469 37.4843 31.3314C35.946 32.0644 33.181 32.735 31.9231 33.798C31.727 34.4589 31.6235 35.1603 31.4442 35.8243C30.8133 38.1607 30.4662 40.3942 29.5567 42.6451C29.272 41.1744 29.0353 40.1535 28.5899 38.7227C28.1408 37.2801 27.986 36.3875 27.2453 35.0221C26.9281 35.1625 26.6717 35.2234 26.3389 35.3125C24.927 35.7144 23.3165 35.8733 21.8732 36.1648C21.2347 36.2937 20.555 36.4153 19.9131 36.5163C20.7412 35.4181 21.5236 34.2766 22.3404 33.1689C23.0261 32.2391 23.8434 31.4544 24.3626 30.4182C23.694 27.7933 22.5808 25.4526 21.8475 22.8739C21.6781 22.278 21.5992 21.7023 21.2839 21.1558C22.9533 22.6967 25.403 24.3045 27.2142 25.815C28.7715 25.0056 30.2503 21.5347 32.0486 20.0681Z" fill="#FFE670"/>
</g>
<defs>
<clipPath id="clip0_706_1971">
<rect width="61" height="61" fill="white"/>
</clipPath>
</defs>
</svg>
