<svg width="61" height="61" viewBox="0 0 61 61" fill="none" xmlns="http://www.w3.org/2000/svg">
<g clip-path="url(#clip0_706_2197)">
<path d="M58.6797 46.7552C58.5875 47.5852 58.639 48.458 58.6092 49.2973C58.7072 49.9989 57.9777 50.9051 57.8953 51.4546C57.2322 55.8772 54.0355 59.6437 49.2831 59.5513C47.4412 59.3317 46.972 55.4292 46.0074 54.4886C44.3247 52.8478 41.5116 55.1976 40.1368 55.8421C34.6701 58.4047 28.4525 57.7621 22.9867 55.5967C21.813 55.1317 20.6742 54.4622 19.6008 53.8139C17.1696 52.5531 15.4273 51.2273 13.3198 49.5108C9.85086 46.6855 6.51117 43.7552 3.60917 40.3257C2.85322 39.4324 1.92145 38.2143 1.99616 36.9842C2.07907 35.1094 2.60616 33.4813 3.14819 31.72C4.74108 26.6212 6.95497 21.7378 9.73994 17.1794C10.178 16.4656 10.6606 15.7358 11.1049 15.0204C11.2901 14.6681 11.7753 14.2206 11.9346 13.8863C12.4496 12.8052 12.9781 12.3308 13.7567 11.451C14.8954 10.1643 16.1461 8.35028 17.4878 7.25276C19.7859 5.44777 22.7584 2.59141 25.8418 2.6434C27.6761 2.67432 29.5826 3.16389 31.3366 3.60969C33.422 4.13974 35.9994 4.28534 37.5428 6.00666C38.7584 7.36237 38.5877 8.97893 38.6221 10.6703C38.6165 11.7522 37.6068 13.3283 36.8749 14.0624C36.5653 14.3728 35.9477 14.3737 35.5506 14.4829C34.5401 14.9445 34.3017 14.8216 33.2593 14.6476C33.0257 14.6086 32.2072 14.8532 31.9174 14.7879C31.6502 14.7923 31.1811 14.5499 30.9508 14.5362C29.8078 14.4682 29.1774 14.402 28.3959 13.4241C27.8143 12.6965 27.4204 11.8564 27.5216 10.854C25.8127 11.4779 25.0913 11.8836 23.9956 13.3331C23.6179 13.8328 22.9937 14.3148 22.6308 14.8761C21.7489 16.2398 21.2274 17.9541 21.2674 19.5746C21.2521 20.3172 21.2487 21.1369 21.1867 21.8723C21.1198 22.6651 20.9546 23.4861 20.899 24.2837C20.6985 26.3599 20.3874 27.5171 19.4959 29.3853C19.2565 29.887 18.5571 30.5525 18.5768 30.9508C18.8496 31.2421 20.7774 31.1063 21.2014 30.9429C21.5163 30.8216 21.9933 30.3795 22.3098 30.2044C23.4706 29.5306 24.6305 28.7788 25.7854 28.1064C26.6325 27.6131 27.7492 27.3726 28.7033 27.2406C29.1133 27.1889 29.8889 26.9499 30.2716 26.9524C31.3037 26.9593 33.2455 27.3187 34.1679 27.7441C35.9008 28.5431 37.8615 30.0663 39.2303 31.4188C39.5808 31.7651 40.2837 32.5755 40.5276 32.9526C41.7421 32.4464 42.5528 31.7152 43.6498 31.0997C47.7753 28.7853 53.3168 28.1615 56.7444 32.0656C57.8132 33.2829 59.1672 34.7484 59.2154 36.4419C59.1524 38.108 59.2451 39.8175 59.1769 41.502C59.136 42.5111 58.6873 44.787 58.7216 45.6615C58.706 45.9209 58.6567 46.5256 58.6797 46.7552Z" fill="#7C5741"/>
<path d="M14.7386 13.5574C15.4944 12.3913 16.4784 11.2874 17.4444 10.2924C19.2491 8.43337 22.9345 4.85943 25.6082 4.8284C27.3929 4.80768 34.6646 5.97273 35.8825 7.19782C36.6515 7.9714 36.5167 10.3832 36.4991 11.4334C36.273 11.4321 35.9816 11.4729 35.7564 11.4451C35.5264 11.4168 35.1706 11.1157 34.9549 11.1618C34.8244 11.3443 34.6709 12.0977 34.6076 12.3621C34.0907 11.6701 33.5566 11.046 33.2399 10.2451C32.9008 10.9823 32.3688 11.5911 31.9482 12.3202C31.6499 11.486 31.3702 10.7731 30.5674 10.2802C30.4685 10.1652 30.3615 10.1194 30.2286 10.0449C29.6307 9.61227 28.8926 9.08203 28.2504 8.7286C26.17 8.91273 24.9842 9.46507 23.4557 10.85C22.8681 11.3824 22.3437 11.8018 21.8226 12.4482C19.792 14.9678 19.1317 17.4724 19.02 20.6345C18.9876 21.5507 19.03 22.6804 18.9458 23.5496C18.8096 25.009 18.4486 26.4384 17.8759 27.7876C17.1899 29.4211 16.0573 30.3517 14.8108 31.5431C14.3425 31.9908 13.875 32.3824 13.5379 32.9437L13.5906 33.0135C14.1315 33.2053 17.3717 32.9418 18.1062 32.9147C19.132 32.896 20.1504 32.9184 21.1763 32.879C22.0314 32.8462 22.7376 32.2614 23.4275 31.7983C24.8352 30.8533 26.5203 29.6355 28.2572 29.4639C32.7381 28.5113 35.6845 30.5082 38.5281 33.75C39.0777 34.3765 39.5671 35.071 40.1217 35.6886C41.3155 35.2914 42.2304 34.3118 43.291 33.6348C43.9518 33.1866 44.6786 32.7947 45.379 32.4201C48.2833 30.8674 51.9176 30.2972 54.5872 32.6386C55.3606 33.3169 56.2871 34.4262 56.7381 35.334C56.8113 36.2461 56.7842 37.3679 56.7612 38.2645C56.6369 43.1134 57.1605 47.9302 55.4898 52.5915C55.1747 53.4705 54.742 54.5423 54.1789 55.3068C54.137 55.4171 53.773 55.8446 53.6695 55.9402C52.4347 57.0808 51.1738 57.4187 49.5681 57.4387C48.989 56.2076 48.1531 53.7614 47.2517 52.9627C44.5352 50.5557 41.3543 52.7956 38.8807 54.2988C38.1026 54.7716 35.2766 55.5423 34.3291 55.5359C32.6774 55.5247 30.6867 55.6277 29.0247 55.4121C24.8685 54.6658 20.5182 52.2813 17.009 49.9905C16.1977 49.4525 15.5656 48.7388 14.7943 48.1444C11.289 45.4427 7.18307 41.5763 4.42137 38.2037C3.02356 36.4967 6.17621 28.6953 6.94348 26.7481C7.19379 26.1128 7.83608 25.0838 8.14447 24.4312C9.88804 20.8149 11.9597 16.4833 14.7386 13.5574Z" fill="#FEEEA3"/>
<path d="M49.5681 57.4387C48.989 56.2075 48.1531 53.7614 47.2517 52.9627C44.5352 50.5557 41.3543 52.7956 38.8807 54.2988C38.1026 54.7716 35.2766 55.5423 34.3291 55.5359C32.6774 55.5247 30.6867 55.6276 29.0247 55.4121C24.8685 54.6658 20.5182 52.2812 17.009 49.9905C16.1977 49.4524 15.5656 48.7387 14.7943 48.1443C11.289 45.4427 7.18307 41.5763 4.42137 38.2036C3.02356 36.4966 6.17621 28.6953 6.94348 26.748C7.19379 26.1128 7.83608 25.0837 8.14447 24.4312C9.88804 20.8148 11.9597 16.4833 14.7386 13.5574C14.7505 13.67 14.7603 13.7827 14.7731 13.8952C14.8521 14.5916 13.8667 16.8228 13.5862 17.5579C11.6858 22.5383 7.44542 29.4604 8.39961 34.8604C8.70027 36.5616 9.54557 38.1974 10.5279 39.602C11.4454 40.9138 12.5761 41.965 13.6954 43.0929C15.0665 44.4745 16.3405 45.9791 17.8472 47.2214C18.4226 47.6958 19.0254 48.1369 19.6009 48.6112C20.0372 48.9706 20.4485 49.3681 20.9086 49.6972C22.6288 50.9277 25.0997 52.1856 27.1566 52.6993C28.0781 52.9294 29.0404 53.0307 29.9825 53.1388C31.3282 53.2933 32.6077 53.4249 33.9648 53.2923C35.0475 53.1865 36.1714 53.1031 37.2382 52.8887C39.3659 52.461 41.8199 51.3871 43.2311 49.6779C44.4098 48.2503 44.7397 46.5736 44.5562 44.7644C44.3293 42.5254 42.8712 39.2657 41.5871 37.4541C41.1517 36.8398 40.5052 36.3228 40.1217 35.6885C41.3155 35.2913 42.2304 34.3117 43.291 33.6347C43.9518 33.1866 44.6786 32.7946 45.379 32.4201C48.2833 30.8673 51.9176 30.2972 54.5872 32.6386C55.3606 33.3168 56.2871 34.4262 56.7381 35.3339C56.8113 36.246 56.7842 37.3678 56.7612 38.2645C56.6369 43.1133 57.1605 47.9302 55.4898 52.5914C55.1747 53.4704 54.742 54.5423 54.1789 55.3068C54.137 55.4171 53.773 55.8445 53.6695 55.9402C52.4347 57.0807 51.1738 57.4186 49.5681 57.4387Z" fill="#E8D47C"/>
<path d="M54.1788 55.3068C53.9921 55.1312 53.9376 54.8938 53.8585 54.6536C53.6322 53.9661 53.3575 53.4662 52.9712 52.8571C52.1036 51.5006 51.1903 50.174 50.2324 48.8796C48.6295 46.7143 46.901 44.8817 46.9311 42.0084C46.9456 40.6186 46.7086 39.6251 47.8568 38.5354C50.2602 36.2542 53.5016 35.3981 56.7381 35.334C56.8112 36.2461 56.7841 37.3679 56.7612 38.2645C56.6368 43.1134 57.1605 47.9302 55.4898 52.5915C55.1747 53.4705 54.742 54.5424 54.1788 55.3068Z" fill="#FEEEA3"/>
<path d="M13.5379 32.9437L13.5906 33.0134C14.1315 33.2053 17.3717 32.9418 18.1062 32.9147C19.132 32.896 20.1504 32.9183 21.1763 32.879C22.0314 32.8461 22.7376 32.2613 23.4275 31.7982C24.8352 30.8533 26.5203 29.6354 28.2572 29.4639C28.1279 29.5771 27.9981 29.9731 27.7633 30.27C26.3056 32.1124 24.8027 34.6083 24.6326 36.9958C24.4609 39.4078 25.6934 41.6047 27.2645 43.3504C28.0791 44.2555 30.5037 46.3098 31.6168 46.7397L31.3782 46.9078C30.8759 46.8497 30.3607 46.6043 29.8904 46.4448C28.106 45.8396 26.0152 44.8753 24.5609 43.6656C23.598 42.8646 22.3361 41.7452 21.5112 40.8132C20.0964 39.2149 18.4968 35.5636 18.324 33.4517C17.1479 33.2939 15.8803 33.0966 14.6946 33.141C14.3001 33.1557 13.8693 33.2833 13.4675 33.2155L13.4346 33.119L13.5379 32.9437Z" fill="#E8D47C"/>
<path d="M30.2286 10.0448C30.3614 10.1193 30.4685 10.1651 30.5674 10.2802C30.5054 10.382 30.4391 11.1053 30.3937 11.3284C30.1166 11.573 29.7022 12.0754 29.3909 12.0806C29.3413 11.8122 29.8912 11.3142 29.9731 11.0648C30.0827 10.731 30.1198 10.4027 30.2286 10.0448Z" fill="#E8D47C"/>
<path d="M59.2154 36.4419C59.2937 37.0151 59.264 38.1756 59.2664 38.7996L59.2805 43.286C59.2816 43.8574 59.247 44.8234 59.2775 45.3481L59.171 45.5468C58.9307 45.4675 59.0615 45.2444 58.8697 45.2712C58.7758 45.4297 58.7658 45.4893 58.7216 45.6615C58.6873 44.787 59.136 42.5111 59.1769 41.502C59.2451 39.8175 59.1524 38.108 59.2154 36.4419Z" fill="#BA9C49" fill-opacity="0.384314"/>
<path d="M21.2674 19.5747C21.4672 20.1553 21.5524 23.6117 21.2664 24.1373C21.2005 24.0524 21.1959 24.018 21.164 23.9183L21.0598 23.942C21.0081 24.0554 20.9565 24.1737 20.899 24.2838C20.9546 23.4862 21.1198 22.6652 21.1867 21.8723C21.2487 21.137 21.2521 20.3173 21.2674 19.5747Z" fill="#BA9C49" fill-opacity="0.164706"/>
<path d="M58.7216 45.6615C58.7657 45.4893 58.7757 45.4298 58.8697 45.2713C59.0615 45.2445 58.9307 45.4675 59.1709 45.5468L59.2774 45.3481C59.3157 45.759 59.305 47.2085 59.0837 47.5164L58.983 47.5292L59.1028 47.4829L58.9368 47.4853C58.6138 47.142 58.7812 47.1091 58.6797 46.7552C58.6567 46.5256 58.7059 45.9209 58.7216 45.6615Z" fill="#BA9C49" fill-opacity="0.0117647"/>
</g>
<defs>
<clipPath id="clip0_706_2197">
<rect width="61" height="61" fill="white"/>
</clipPath>
</defs>
</svg>
