<svg width="61" height="61" viewBox="0 0 61 61" fill="none" xmlns="http://www.w3.org/2000/svg">
<path d="M6.84147 41.2309C7.38976 40.9556 8.40859 40.6221 8.4961 39.988C8.85149 37.4126 8.90177 34.1875 11.5569 32.8212C12.0797 32.5523 12.6224 32.5069 13.1811 32.3459C15.3944 31.4808 17.5625 31.1253 19.8953 31.8565C22.7153 32.7403 26.4204 34.7504 26.6805 38.0653C26.7876 39.431 24.7184 39.2858 24.9553 40.515C25.0584 40.6582 25.3117 40.7512 25.4757 40.7957C26.7962 41.154 26.7923 42.2941 26.6304 43.4489C26.426 44.9066 25.4916 45.8579 24.4588 46.8168C24.3641 46.9231 24.1598 47.1351 24.2837 47.2766C24.8893 47.9681 25.7742 48.3954 26.4853 48.9642C27.3879 49.6862 28.2927 50.5446 29.0275 51.4387C29.5285 52.0483 29.7405 52.7591 30.4018 53.2384C31.4185 52.7789 31.604 51.7462 32.3728 50.9404C33.3988 49.8651 34.4787 48.9586 35.711 48.1262C36.5582 47.533 35.3394 46.5636 34.9394 46.1481C33.4998 44.8749 33.0768 43.0238 33.5437 41.1949C34.0901 40.9573 35.0002 40.6922 35.1947 40.1268C35.3756 39.601 35.3167 38.7087 35.4028 38.1342C35.7056 36.114 36.2663 33.7 38.3327 32.7919C38.931 32.529 39.5005 32.4612 40.1143 32.2808C40.6524 32.1226 41.3837 31.7806 41.9015 31.6764C44.1515 31.2238 45.8803 31.5072 47.9614 32.349C49.8802 33.125 52.1803 34.6361 53.0339 36.5887C53.3755 37.3702 53.3921 38.0238 53.3144 38.8478C52.8022 39.0649 50.7487 40.2264 52.0274 40.7618C52.5015 40.9604 52.8387 41.0607 53.2918 41.359C53.4284 43.1474 53.5248 44.2838 52.2786 45.7155C51.8568 46.2 51.1814 46.6937 50.843 47.1472C51.6617 48.0856 52.5074 48.3641 53.3449 49.0949C55.3157 50.8146 58.6262 54.3331 58.0465 57.1167C55.7442 57.3373 52.7403 57.1124 50.3514 57.14C44.0704 57.2126 37.7299 57.0904 31.4507 57.1871L10.9733 57.168C9.44744 57.1663 7.92154 57.1748 6.39583 57.1934C5.4435 57.2025 3.87899 57.2686 3.00849 57.0887C2.4864 55.2153 4.15935 52.9714 5.21722 51.526C6.26358 50.2113 7.47697 49.1441 8.88527 48.243C9.51016 47.8431 9.37053 47.2904 8.93209 46.8239C7.59873 45.4491 6.64084 44.6256 6.70851 42.5728C6.72364 42.1141 6.74294 41.688 6.84147 41.2309Z" fill="#7C5741"/>
<path d="M10.4037 39.224C10.3574 37.8837 10.8207 36.807 11.6119 35.7648C14.1274 32.4511 19.9143 32.7606 22.9168 35.1832C23.3518 35.5341 24.3091 36.4526 24.3679 37.0256C24.212 37.2091 23.182 37.4472 22.8727 37.5315C22.8723 39.0174 22.7985 41.2424 23.0878 42.6379C23.5718 42.6971 24.4051 42.6633 24.6634 42.9607C24.9658 43.7818 23.3887 44.9825 22.9848 45.6747C21.8917 47.5476 21.0327 50.2394 18.8669 51.1234C17.5812 51.4931 15.759 51.492 14.5576 50.9036C12.3468 49.8207 11.6072 47.4886 10.358 45.5671C9.86158 44.8035 8.20928 43.8134 8.37 42.8734C8.64611 42.6092 9.60531 42.5634 10.028 42.4733C10.1662 41.3917 10.2914 40.3086 10.4037 39.224Z" fill="#FFD8A0"/>
<path d="M10.4037 39.224C10.3574 37.8837 10.8206 36.807 11.6119 35.7648C14.1274 32.4511 19.9143 32.7606 22.9168 35.1832C23.3517 35.5341 24.3091 36.4526 24.3679 37.0256C24.2119 37.2091 23.182 37.4472 22.8727 37.5315C22.6296 37.5844 22.4532 37.7893 22.2691 37.9629C22.0088 38.2415 21.6973 38.5944 21.4098 38.8304C19.1677 38.8726 15.6084 38.258 13.742 36.9632C13.3392 37.5985 11.715 39.6611 10.896 39.3575C10.754 39.2457 10.59 39.248 10.4037 39.224Z" fill="#B05073"/>
<path d="M10.896 39.3575C10.8953 38.0676 12.0704 35.8559 13.2622 35.2845C13.8629 35.4775 14.7594 35.9221 15.3143 36.2281C17.08 37.202 18.5798 37.5981 20.6061 37.615C21.0503 37.6187 21.9433 37.6156 22.2691 37.9629C22.0089 38.2416 21.6973 38.5945 21.4098 38.8305C19.1677 38.8726 15.6084 38.2581 13.742 36.9632C13.3392 37.5986 11.715 39.6612 10.896 39.3575Z" fill="#7F3E9F"/>
<path d="M37.0673 39.1786C37.247 36.9511 37.6185 36.1846 39.3636 34.7217C42.8557 31.7941 48.564 33.5365 51.0753 36.9802C50.4735 37.2284 50.1152 37.3024 49.4765 37.3508C49.645 38.9082 49.4948 41.0734 49.8457 42.5091C50.4087 42.6271 50.9859 42.613 51.5605 42.6021C51.1904 44.0887 50.2949 44.4716 49.5972 45.7029C48.6062 47.4516 47.9404 49.7443 46.1548 50.9024C45.2602 51.4827 43.0578 51.4776 42.0398 51.2109C39.2677 50.458 38.2968 47.4308 36.8291 45.3035C36.3795 44.6518 35.1373 43.944 35.277 43.1103C35.3567 42.6349 36.2607 42.5289 36.6513 42.4367C36.793 41.9367 37.0335 39.7449 37.0673 39.1786Z" fill="#FFD8A0"/>
<path d="M37.0673 39.1786C37.2471 36.9511 37.6185 36.1846 39.3636 34.7217C42.8557 31.7941 48.564 33.5365 51.0754 36.9802C50.4735 37.2284 50.1152 37.3024 49.4765 37.3508C49.2082 37.5049 49.1033 37.6229 48.8881 37.8373C48.6529 38.1563 48.4134 38.4722 48.1699 38.7849C45.8329 38.9313 42.393 38.2843 40.4452 36.9361C40.1124 37.5448 38.2822 39.783 37.5516 39.317C37.3871 39.1815 37.2702 39.0557 37.0673 39.1786Z" fill="#B05073"/>
<path d="M39.9905 35.2383C41.6057 35.9202 42.6182 36.8755 44.46 37.3224C44.9372 37.4376 45.4233 37.5129 45.913 37.5475C46.7109 37.5973 48.3804 37.4226 48.8881 37.8373C48.6529 38.1563 48.4134 38.4722 48.1699 38.7849C45.8329 38.9313 42.393 38.2843 40.4452 36.9361C40.1124 37.5448 38.2822 39.783 37.5516 39.317C37.4641 37.9764 38.8437 35.8994 39.9905 35.2383Z" fill="#7F3E9F"/>
<path d="M50.2659 49.119C51.8328 49.7778 55.1382 53.8032 56.2837 55.2098C55.4535 55.1808 54.5451 55.2679 53.7092 55.3181C52.3463 55.4074 50.9819 55.471 49.6167 55.5088C46.9935 55.5387 44.3702 55.5407 41.747 55.5147C39.1758 55.5066 36.5358 55.5324 33.9712 55.467C33.1234 55.469 32.2764 55.411 31.4369 55.2934C31.7747 54.938 32.4808 53.881 32.824 53.4361C34.103 51.7781 35.4567 50.4271 37.3226 49.4539C37.9104 50.0203 38.4677 50.7376 39.0833 51.3154C40.6206 52.7947 42.009 53.2198 44.1003 53.1395C45.9434 53.0688 46.7335 52.7091 48.0792 51.3812C48.8155 50.6547 49.5462 49.8751 50.2659 49.119Z" fill="#6967CD"/>
<path d="M23.6776 49.244C23.7557 49.2767 24.3292 49.7868 24.4472 49.878C26.4975 51.4638 27.8881 53.2243 29.5273 55.2048C24.1923 55.6395 18.725 55.5305 13.3742 55.5364C11.2862 55.5387 9.22838 55.5471 7.14116 55.4424C6.382 55.3621 5.5477 55.3139 4.77627 55.2444C5.24344 54.792 5.78726 54.0076 6.18625 53.4816C7.25458 52.0729 8.81014 50.2229 10.4733 49.5533C12.4404 51.1911 13.0509 52.9026 16.0743 53.0871C20.8794 53.3802 20.7801 51.7751 23.6776 49.244Z" fill="#61CAC2"/>
<path d="M26.7613 4.45949C30.5886 3.19548 35.0066 3.85354 37.6092 7.09968C37.7068 7.22138 37.8094 7.34499 37.9273 7.44703C38.1092 7.88446 38.2195 8.00533 38.4962 8.36245C40.2557 10.7012 40.5244 14.439 39.0627 16.9867C38.2355 18.4284 37.1725 19.421 36.8721 21.0808C36.7429 21.7944 36.2865 22.7284 36.292 23.4734C36.3023 25.764 35.8931 27.8936 33.9551 29.3712C31.4816 31.2572 27.8784 30.7282 25.9771 28.2909C24.3142 26.1592 25.0966 23.9135 24.3752 21.5389C24.1695 20.8619 23.7679 20.0015 23.4632 19.3574C21.8695 16.8201 20.5681 14.8422 21.1051 11.7143C21.5232 9.27888 22.9552 7.26046 24.8464 5.70101C25.406 5.23955 26.1324 4.92204 26.7184 4.49132L26.7613 4.45949Z" fill="#7C5741"/>
<path d="M29.9977 5.62418C30.1471 5.60938 30.2971 5.60005 30.4473 5.59621C35.0781 5.48869 39.2786 10.4251 37.7363 14.9726C37.2586 16.3807 36.1548 17.5299 35.6198 18.9477C35.1818 20.1082 35.0108 21.4818 34.2372 22.4498C33.6314 23.1428 32.0066 23.0309 31.0898 23.0455C29.6183 23.0455 28.1471 23.0087 26.6775 22.9351C26.2081 21.6303 25.7728 20.0827 25.2491 18.8667C24.4741 17.0674 23.0018 15.6416 22.8834 13.5404C22.7768 11.6503 23.129 10.1145 24.3953 8.69189C25.9826 6.90883 27.6216 5.82362 29.9977 5.62418Z" fill="#FAEC98"/>
<path d="M33.6648 11.5549C33.9043 11.5465 33.9355 11.564 34.0725 11.7349C34.3106 12.9912 31.4397 14.6453 31.0955 15.4184C30.9463 15.7534 31.0118 18.91 31.0259 19.4151C31.0351 19.7435 31.0927 20.4111 31.0141 20.7719C30.8699 20.8757 30.6776 20.8549 30.4885 20.861C30.2942 20.8669 29.9967 20.9064 29.8635 20.7628C29.8003 20.225 29.8262 19.255 29.8573 18.7064C29.9593 16.9077 29.3813 15.302 30.6695 13.8164C31.616 12.7248 32.3272 12.0958 33.6648 11.5549Z" fill="#7C5741"/>
<path d="M26.6457 11.3756C26.7652 11.3679 26.885 11.3661 27.0047 11.3702C27.6776 11.3976 28.4551 11.9715 28.8938 12.4679C29.6549 13.329 29.6934 13.8596 29.6435 14.9171C28.5253 14.044 26.4588 13.0846 26.6457 11.3756Z" fill="#7C5741"/>
<path d="M28.9115 24.6291C30.3166 24.5796 32.7506 24.591 34.1635 24.7255C34.1801 25.2503 34.1937 25.8634 33.9784 26.3419C33.5365 27.3242 32.6759 28.0394 31.7068 28.442C30.6575 28.7667 29.584 28.8252 28.6341 28.1739C27.4371 27.3532 26.7142 26.192 26.6008 24.7491C27.3482 24.668 28.1564 24.6557 28.9115 24.6291Z" fill="#6967CD"/>
<path d="M41.8808 19.1398C42.8844 19.0631 45.356 20.4349 44.4605 21.681C44.324 21.871 44.052 21.8479 43.8405 21.8522C42.9887 21.8849 41.8807 21.0459 41.2458 20.5222C41.0959 19.6978 40.9005 19.248 41.8808 19.1398Z" fill="#7C5741"/>
<path d="M18.5295 19.0792C19.852 18.9875 20.0352 19.5458 19.463 20.6171C18.9959 20.9014 18.048 21.5133 17.5856 21.6946C15.6751 21.8511 16.0411 20.1825 17.3218 19.5542C17.7682 19.3352 18.0216 19.1791 18.5295 19.0792Z" fill="#7C5741"/>
<path d="M17.0357 14.8488C17.9895 14.7543 18.7305 15.4424 18.0422 16.3233C17.5868 16.906 16.5987 16.9931 15.8941 17.063C15.4614 17.0479 15.2414 16.9527 14.8572 16.788C14.2397 15.4148 14.9655 15.2782 16.1608 15.0244C16.4494 14.9632 16.7459 14.9061 17.0357 14.8488Z" fill="#7C5741"/>
<path d="M15.3226 10.3206C15.9532 10.2637 17.2455 10.2997 17.7683 10.664C17.987 10.8149 18.1352 11.0479 18.1792 11.31C18.2385 11.6431 18.12 11.898 17.9342 12.1766C17.825 12.3405 17.612 12.3224 17.4094 12.3465C16.5359 12.3238 14.708 12.3289 14.4605 11.1893C14.3034 10.466 14.7705 10.4137 15.3226 10.3206Z" fill="#7C5741"/>
<path d="M44.9837 10.3814C45.3674 10.3685 45.9772 10.4421 46.2886 10.6746C46.7013 10.9827 46.6226 11.4723 46.3075 11.8191C45.8105 12.3662 45.0425 12.3731 44.3594 12.4153C42.7052 12.4692 42.8331 12.1639 43.026 10.6578C43.6799 10.5753 44.3325 10.4831 44.9837 10.3814Z" fill="#7C5741"/>
<path d="M43.0799 15.0801C44.0651 15.0394 45.3004 15.1288 46.178 15.6253C46.3296 16.0741 46.5602 16.8433 45.9795 17.058C44.9039 17.2462 44.1218 17.111 43.0979 16.7449C42.798 16.2448 42.4654 15.4954 43.0799 15.0801Z" fill="#7C5741"/>
</svg>
