<svg width="141" height="141" viewBox="0 0 141 141" fill="none" xmlns="http://www.w3.org/2000/svg">
<g filter="url(#filter0_dd_725_11135)">
<path d="M37.4956 35.1815C38.8033 34.7706 40.6095 34.3821 41.9881 33.998L57.5827 29.7063L74.4647 24.8585C77.3151 24.0384 80.6533 22.9891 83.5442 22.2862C83.7503 22.2361 83.968 22.2518 84.1479 22.3642C85.6983 23.3334 89.6813 27.4651 90.8919 28.6425L101.495 38.922L113.612 50.6726C115.464 52.4806 117.554 54.4482 119.371 56.3301C119.665 56.6347 119.735 57.0929 119.597 57.4931C118.849 59.6603 117.599 65.2305 117.203 66.7687L109.522 97.1152C108.947 99.3853 108.354 102.493 107.524 104.714C107.465 104.872 106.906 105.017 106.714 105.072L75.036 114.143C71.5613 115.118 67.9562 115.929 64.4847 116.95C63.2853 117.302 61.7004 117.694 60.4508 118.129C60.1176 118.245 59.745 118.196 59.4726 117.971C58.1077 116.846 56.6883 115.385 55.4507 114.174L49.4223 108.309L32.158 91.5622C29.6517 89.1374 27.1489 86.6252 24.5996 84.243C24.3532 84.0127 24.2368 83.6746 24.3003 83.3433C24.7853 80.8129 25.8206 77.1841 26.428 74.7531L31.2141 55.8265L34.3831 43.2099C34.9448 40.9494 35.4807 38.4639 36.2206 36.2639C36.444 35.5999 36.8779 35.4477 37.4956 35.1815Z" fill="#E0DAFF"/>
<path d="M35.9967 30.4117C36.8112 30.1558 37.7246 29.9228 38.504 29.7283C39.3457 29.5182 40.0422 29.3493 40.6462 29.1811L40.6537 29.1789L40.6615 29.1777L56.2029 24.9011L56.2026 24.9001L73.0825 20.0548L73.0822 20.0539C75.7508 19.2861 79.3394 18.1624 82.3632 17.4272C83.4614 17.1602 85.0013 17.1332 86.4996 17.9499L86.7985 18.1242L87.0511 18.2895C88.3433 19.1632 89.993 20.7344 91.1293 21.837C91.8278 22.5149 92.5094 23.1941 93.0814 23.7663C93.672 24.3571 94.1032 24.7905 94.3728 25.0529L104.975 35.3324L104.976 35.3321L117.093 47.0833L117.104 47.0943C118.862 48.8102 121.084 50.9054 122.969 52.8582C124.761 54.7155 124.979 57.224 124.323 59.1243C123.661 61.0417 122.555 66.0259 122.049 67.9951L114.369 98.3422L114.368 98.3434C113.92 100.114 113.161 103.906 112.207 106.462L112.208 106.462C111.811 107.526 111.163 108.184 110.827 108.487C110.456 108.821 110.107 109.039 109.894 109.162C109.472 109.405 109.087 109.554 108.894 109.624C108.698 109.696 108.489 109.763 108.334 109.809L108.09 109.879L76.4119 118.95L76.3875 118.957C74.5799 119.464 72.7409 119.928 70.9969 120.373C69.227 120.826 67.5362 121.264 65.8957 121.747C64.3447 122.203 63.2133 122.461 62.0957 122.85C60.2952 123.478 58.0539 123.281 56.2926 121.829C54.7156 120.53 53.0562 118.828 51.9637 117.758L45.9357 111.893L45.9354 111.892L28.6813 95.1559L24.9007 91.4631C23.6663 90.2565 22.4428 89.0706 21.1856 87.8958C19.7354 86.5404 18.99 84.4871 19.3898 82.4016C19.908 79.6982 21.0441 75.675 21.5772 73.5414L21.5791 73.5337L21.5803 73.5273L26.3644 54.6085L29.5304 42.0044L29.933 40.3438C30.3593 38.5702 30.8617 36.511 31.4808 34.67L31.4818 34.6697C31.9181 33.3729 32.7033 32.2994 33.7818 31.5202C34.5549 30.9617 35.4742 30.608 35.5165 30.59L35.7523 30.4878L35.9967 30.4117Z" stroke="white" stroke-width="10"/>
</g>
<path d="M38.6212 37.965C53.3728 33.6536 68.166 29.4861 82.9988 25.463C84.09 26.1965 87.7245 29.8618 88.8323 30.9393L100.12 41.898L109.764 51.2519C111.449 52.8618 114.781 55.9188 116.193 57.6164C116.092 58.6893 115.63 60.3088 115.349 61.3956C114.89 63.1583 114.441 64.9236 114.001 66.6914L108.488 88.5524L106.197 97.7356C105.931 98.8075 105.291 101.614 104.896 102.545C90.1852 107.062 75.0623 110.568 60.4154 115.117C59.5672 114.156 57.6869 112.445 56.717 111.504L49.3451 104.353L27.2606 82.9437C27.8471 80.0079 28.9302 76.2228 29.6759 73.2463L34.5879 53.7767L37.2123 43.3054C37.5234 42.06 38.1928 39.0751 38.6212 37.965Z" fill="#F2EFFF"/>
<path d="M38.6356 37.9799C53.381 33.6704 68.1681 29.5051 82.9946 25.4837C83.5413 25.8536 84.7164 26.9479 85.8957 28.0866C87.0794 29.2295 88.2642 30.4142 88.8187 30.9535L100.107 41.9121L109.751 51.2656L109.751 51.2665C111.434 52.8753 114.758 55.9252 116.172 57.6229C116.07 58.6937 115.61 60.3052 115.33 61.3905C114.871 63.1533 114.422 64.9192 113.982 66.687L108.469 88.5476L106.178 97.7311C106.045 98.2676 105.819 99.2364 105.576 100.188C105.335 101.135 105.077 102.062 104.881 102.529C97.5289 104.786 90.0735 106.791 82.6261 108.8C75.1794 110.809 67.7401 112.821 60.4198 115.094C59.5664 114.13 57.6957 112.427 56.7304 111.489L49.3587 104.339L27.2813 82.9381C27.8681 80.0042 28.9497 76.2254 29.6949 73.251L34.6066 53.7817L37.231 43.3098C37.3088 42.9984 37.4099 42.5786 37.523 42.1066C37.6362 41.6344 37.7618 41.1098 37.8916 40.5898C38.1502 39.5538 38.4224 38.5354 38.6356 37.9799Z" stroke="white" stroke-width="0.0390625"/>
<path d="M78.2436 58.4388L78.411 58.229C78.2865 57.8793 78.1085 57.7996 77.8761 57.532C74.7424 53.9233 76.5975 48.5123 81.2349 46.9639C82.9858 46.385 84.8853 46.4898 86.5092 47.2545C90.1344 48.946 91.1975 52.6677 89.433 56.1487C93.318 56.8867 95.1667 58.3877 97.4919 61.516C97.5131 61.5601 97.5342 61.6041 97.5554 61.6482L97.3145 61.729C97.2884 61.8428 97.2412 62.0191 97.2287 62.1282C98.6336 64.0509 99.2609 65.721 99.5098 68.0765C99.7986 68.1869 99.8358 68.202 99.9824 68.4597C99.7509 70.7605 99.2341 71.6319 97.6353 73.3436C98.9795 73.7409 99.5683 73.8017 100.248 75.0885C100.516 75.5957 100.665 76.1606 101.044 76.5804C101.268 75.991 101.292 75.8673 101.301 75.2468L101.578 75.6603L101.854 75.5807C101.948 78.0472 99.7583 79.6913 97.8067 80.9595C95.5631 81.9124 93.4877 82.6862 91.1463 83.3988C90.7359 83.5238 89.4658 84.005 89.152 84.0691C87.7131 84.7129 86.6642 85.1777 85.4347 86.1435C81.4626 89.2638 79.1223 93.5551 73.7812 94.8208C72.351 95.1597 71.4559 95.4209 69.9393 95.3132C70.2697 95.115 70.4019 95.1655 70.6169 94.8743L70.3195 94.6091C69.8733 95.1977 67.9215 94.2503 67.3913 93.9689C65.9436 93.5123 65.3312 93.0652 64.1648 92.1709L63.9873 92.7382C61.4062 90.5408 60.6666 88.9739 59.6209 85.8654C59.4203 85.4917 59.0397 84.2545 58.8864 83.792C56.3438 82.4441 54.9061 80.4869 54.6637 77.701C52.0799 78.5709 49.6331 78.3436 48.0984 76.0213C47.3714 74.9116 47.1625 73.5533 47.5201 72.2609C48.6115 68.19 54.6617 67.2562 56.6099 70.5555C57.0064 71.0617 57.1538 71.2778 57.4523 71.8419C57.8034 71.5067 58.1679 71.1671 58.5078 70.8232C59.8047 69.1818 61.892 67.3404 63.5129 65.9859C62.1913 64.9186 62.1928 62.4347 63.076 61.0124C63.7295 59.9561 64.7976 59.1833 66.0361 58.8702C68.1971 58.3293 69.8643 59.0391 70.9875 60.6942C71.2019 61.0102 71.3929 61.4625 71.7347 61.6242C72.6086 61.0382 77.1297 58.8804 78.2436 58.4388Z" fill="#B2ABEF"/>
<path d="M99.5097 68.0764C99.7985 68.1868 99.8358 68.2018 99.9823 68.4595C99.7508 70.7604 99.234 71.6318 97.6352 73.3435C98.9794 73.7408 99.5683 73.8016 100.248 75.0884C100.516 75.5956 100.665 76.1605 101.044 76.5803C101.268 75.9909 101.292 75.8672 101.301 75.2467L101.578 75.6602L101.854 75.5806C101.948 78.0471 99.7582 79.6912 97.8066 80.9594C95.563 81.9123 93.4877 82.6861 91.1463 83.3987C90.7358 83.5237 89.4657 84.0049 89.1519 84.069C87.7131 84.7128 86.6641 85.1776 85.4347 86.1433C81.4625 89.2637 79.1222 93.555 73.7812 94.8207C72.3509 95.1595 71.4558 95.4208 69.9392 95.3131C70.2696 95.1149 70.4018 95.1654 70.6168 94.8742L70.3195 94.6089C69.8732 95.1976 67.9214 94.2502 67.3912 93.9688C65.9436 93.5122 65.3311 93.0651 64.1647 92.1707L63.9872 92.7381C61.4062 90.5406 60.6665 88.9738 59.6209 85.8653C59.5166 85.1918 59.2154 84.7353 59.1508 84.0151L59.276 83.9376L59.6419 84.2023C60.0628 84.1503 60.2844 84.3351 60.6427 84.5468L60.985 84.3571C62.6136 85.1507 64.7623 86.7099 66.3445 87.1568C73.5535 90.1554 76.7075 84.4543 80.9928 80.0857C81.2228 79.817 80.8556 79.4551 80.8382 79.2242C80.7067 77.4677 82.9148 76.3648 84.4315 77.0475C84.7332 77.3264 84.7943 77.5778 85.1402 77.8187C86.1585 77.6526 87.119 77.2277 88.1152 76.9674C93.0347 75.6821 99.3113 73.962 99.5097 68.0764Z" fill="#EDEBFE"/>
<path d="M81.3192 85.7577L81.4047 85.8477C81.8552 85.853 83.8476 84.4905 84.6252 84.1757C86.6698 83.3474 87.7793 83.1192 89.9251 82.9865C89.2485 83.2644 88.8377 83.5893 88.2563 83.8271L88.91 83.7227C89.0506 83.8739 89.0637 83.8751 89.152 84.0692C87.7132 84.713 86.6642 85.1777 85.4348 86.1435C81.4626 89.2639 79.1223 93.5552 73.7813 94.8209C72.3511 95.1597 71.456 95.4209 69.9393 95.3133C70.2697 95.115 70.4019 95.1655 70.6169 94.8744L70.3196 94.6091C69.8734 95.1978 67.9215 94.2504 67.3913 93.969C67.7195 93.8391 68.5765 93.7064 69.0071 93.6343C71.059 93.2913 71.5739 93.0175 73.3337 91.8154C75.1589 90.5687 77.3369 89.0333 79.1073 87.6597C79.129 87.5571 79.1473 87.4707 79.1621 87.4008C80.2978 86.9565 80.5503 86.686 81.3192 85.7577Z" fill="#B2ABEF"/>
<path d="M74.2378 94.2554C81.2877 91.3673 81.5207 87.2336 88.2563 83.8268L88.9101 83.7224C89.0506 83.8736 89.0637 83.8748 89.152 84.0689C87.7132 84.7127 86.6643 85.1774 85.4348 86.1432C81.4626 89.2636 79.1223 93.5549 73.7813 94.8206C72.3511 95.1594 71.456 95.4206 69.9393 95.313C70.2698 95.1147 70.4019 95.1652 70.6169 94.8741L70.3196 94.6088C70.4161 93.854 70.7395 93.6803 71.3324 93.1664C71.6924 93.1797 72.052 93.2002 72.4107 93.2281C73.3252 93.3061 73.6963 93.6142 74.2378 94.2554Z" fill="#4432C1"/>
<path d="M70.9023 94.2427C71.6793 93.9604 73.0777 93.3747 73.4607 94.3595C72.8323 94.5019 71.5153 94.8935 70.9784 94.6255L70.9023 94.2427Z" fill="#9489EA"/>
<path d="M99.5097 68.0763C99.7985 68.1867 99.8358 68.2018 99.9823 68.4595C99.7509 70.7604 99.234 71.6317 97.6352 73.3434C96.5593 74.1512 95.4937 74.9663 94.2548 75.5236C90.8987 77.0337 86.4823 77.4888 83.2638 79.2262C77.8706 82.1374 76.6531 89.1832 68.9762 88.4098C65.7899 88.0889 63.2445 86.2164 60.6427 84.5467L60.985 84.357C62.6136 85.1506 64.7623 86.7098 66.3445 87.1567C73.5535 90.1553 76.7075 84.4542 80.9928 80.0857C81.2229 79.8169 80.8556 79.455 80.8383 79.2241C80.7067 77.4676 82.9148 76.3647 84.4315 77.0475C84.7332 77.3263 84.7944 77.5777 85.1402 77.8187C86.1585 77.6526 87.119 77.2277 88.1152 76.9674C93.0347 75.6821 99.3114 73.9619 99.5097 68.0763Z" fill="#4432C1"/>
<path d="M82.3892 77.5512C83.0499 77.3231 83.8325 77.0968 84.3716 77.6138L84.3128 77.9327C84.0432 78.3571 83.4973 78.53 83.0142 78.7432C82.4617 79.1112 82.0079 79.5784 81.4124 79.2041C81.2099 78.4247 81.7411 77.9663 82.3892 77.5512Z" fill="#9489EA"/>
<path d="M59.621 85.8655C59.5166 85.192 59.2155 84.7354 59.1508 84.0152L59.2761 83.9377L59.642 84.2025C60.1176 85.5947 60.742 87.6048 61.3379 88.8915C62.3222 88.4107 62.9417 88.1281 64.0631 88.4457C65.1462 88.7523 65.3701 89.9511 65.0568 90.8824C64.918 91.295 64.2393 91.8436 64.1648 92.1709L63.9873 92.7382C61.4063 90.5408 60.6666 88.974 59.621 85.8655Z" fill="#4432C1"/>
<path d="M61.8628 89.221C63.7196 88.407 65.1949 88.9543 64.3727 91.0453C63.968 91.3989 64.0879 91.3974 63.6284 91.4658C62.843 91.1974 61.83 90.005 61.8628 89.221Z" fill="#B2ABEF"/>
<path d="M79.162 87.4004C75.0361 87.3571 81.5766 81.8096 81.3191 85.7573C80.5502 86.6856 80.2977 86.956 79.162 87.4004Z" fill="#4432C1"/>
<path d="M79.8102 84.8761C80.3346 84.8825 80.51 84.9194 80.7491 85.33C80.7539 86.0496 79.8214 86.5674 79.2043 86.7839C79.0163 86.8076 78.8166 86.8089 78.6267 86.8153L78.4425 86.6404C78.3692 86.0159 79.3027 85.2018 79.8102 84.8761Z" fill="#B2ABEF"/>
<path d="M89.9252 82.9867C91.6159 82.8105 96.3002 81.1124 97.8477 80.2528L97.8069 80.9598C95.5633 81.9127 93.4879 82.6865 91.1465 83.3991C90.736 83.5241 89.466 84.0053 89.1521 84.0694C89.0638 83.8753 89.0507 83.8741 88.9102 83.7229L88.2564 83.8273C88.8378 83.5896 89.2486 83.2647 89.9252 82.9867Z" fill="#5242D0"/>
<path d="M101.301 75.2466L101.578 75.6601L101.854 75.5805C101.948 78.047 99.7582 79.6911 97.8066 80.9592L97.8474 80.2523L97.8955 80.2229C99.3785 79.2999 100.636 78.2626 101.044 76.5802C101.268 75.9908 101.292 75.8671 101.301 75.2466Z" fill="#4432C1"/>
<path d="M96.8867 75.2126C97.6123 74.9587 98.5891 74.631 99.1828 75.2266C99.7654 76.5981 97.8706 77.7223 96.8436 78.2875C95.9705 78.5756 95.1464 78.7924 94.5382 78.0753C94.167 76.7227 95.7854 75.7072 96.8867 75.2126Z" fill="#4432C1"/>
<path d="M96.8874 75.7913L97.0355 75.7373C97.5844 75.5388 98.0016 75.334 98.5375 75.5632C99.0786 76.4566 97.4895 77.3214 96.8091 77.6883C96.6556 77.7441 96.5014 77.7979 96.3466 77.8495C95.8914 78.0004 95.6083 78.1023 95.1674 77.9009C94.7332 76.9709 96.168 76.1543 96.8874 75.7913Z" fill="#B2ABEF"/>
<path d="M54.6638 77.7008C52.0799 78.5707 49.6331 78.3433 48.0984 76.0211C47.3714 74.9114 47.1626 73.5531 47.5201 72.2606C48.6115 68.1898 54.6617 67.256 56.6099 70.5552C57.0064 71.0615 57.1538 71.2776 57.4524 71.8416C57.8035 71.5065 58.1679 71.1669 58.5079 70.823C59.8047 69.1816 61.892 67.3402 63.5129 65.9857L63.9011 66.1214L64.0109 65.9591C63.8307 65.8615 63.7529 65.8048 63.5891 65.6835L63.5868 65.3621L63.9859 65.6571C64.2924 65.7324 64.1894 65.6556 64.35 65.9267C64.8281 66.737 67.2613 67.1734 68.236 67.0365L68.2486 67.0912C66.7376 68.2759 67.0018 69.4025 69.0096 69.4158C68.843 70.6949 67.1993 71.4699 68.1006 72.4373C70.851 75.3891 70.1771 80.341 66.7648 82.7914C66.1714 83.2185 65.6504 83.5369 65.0394 83.8981C65.331 85.1027 66.2536 86.4729 66.3446 87.1567C64.7624 86.7098 62.6137 85.1506 60.9851 84.357L60.6428 84.5467C60.2845 84.335 60.0629 84.1502 59.642 84.2022L59.2761 83.9375L59.1508 84.015C59.2155 84.7352 59.5166 85.1917 59.621 85.8652C59.4203 85.4915 59.0397 84.2543 58.8865 83.7918C56.3438 82.4439 54.9061 80.4867 54.6638 77.7008Z" fill="#B2ABEF"/>
<path d="M54.6638 77.7008C52.0799 78.5707 49.6331 78.3433 48.0984 76.0211C47.3714 74.9114 47.1626 73.5531 47.5201 72.2606C48.6115 68.1898 54.6617 67.256 56.6099 70.5552C56.6849 70.8391 56.8983 71.6506 57.0767 71.8328L56.9749 71.6606L57.0423 71.8809C56.8519 71.6604 56.7005 71.3115 56.4992 71.2046C57.0513 73.1965 55.55 73.1593 55.2462 74.7315L55.6601 75.0704C55.3732 75.7768 55.2816 76.1101 55.1048 76.8354C55.5852 76.3974 55.7105 76.2784 56.0702 75.7541L56.506 76.0412L56.7359 76.0934C56.8143 75.9145 56.9017 75.818 57.0213 75.6636L57.2957 75.6552C57.225 76.6943 57.5224 78.3416 57.8629 79.3235L58.1188 79.5568C57.7309 80.2601 59.0667 82.2561 59.5227 82.9276C59.9118 83.3074 60.1581 83.5051 60.5969 83.8359L60.9851 84.357L60.6428 84.5467C60.2845 84.335 60.0629 84.1502 59.642 84.2022L59.2761 83.9375L59.1508 84.015C59.2155 84.7352 59.5166 85.1917 59.621 85.8652C59.4203 85.4915 59.0397 84.2543 58.8865 83.7918C56.3438 82.4439 54.9061 80.4867 54.6638 77.7008Z" fill="#EDEBFE"/>
<path d="M54.6638 77.7008C52.0799 78.5707 49.6331 78.3433 48.0984 76.0211C47.3714 74.9114 47.1626 73.5531 47.5201 72.2606C48.6115 68.1898 54.6617 67.256 56.6099 70.5552C56.6849 70.8391 56.8983 71.6506 57.0767 71.8328L56.9749 71.6606L57.0423 71.8809C56.8519 71.6604 56.7005 71.3115 56.4992 71.2046C55.6344 70.1587 54.6821 69.2008 53.1852 69.0509C50.5507 68.7869 48.2505 70.4366 47.9207 72.9798C47.7621 74.1684 48.124 75.351 48.9215 76.249C49.6413 77.081 50.6955 77.5883 51.8423 77.6544C52.8783 77.7144 53.6348 77.5182 54.5563 77.1008L54.5762 77.0757C54.7638 76.3175 54.9498 75.4492 55.2462 74.7315L55.6601 75.0704C55.3732 75.7768 55.2816 76.1101 55.1048 76.8354C55.5852 76.3974 55.7105 76.2784 56.0702 75.7541L56.506 76.0412L56.7359 76.0934C56.8143 75.9145 56.9017 75.818 57.0213 75.6636L57.2957 75.6552C57.225 76.6943 57.5224 78.3416 57.8629 79.3235L58.1188 79.5568C57.7309 80.2601 59.0667 82.2561 59.5227 82.9276C59.9118 83.3074 60.1581 83.5051 60.5969 83.8359L60.9851 84.357L60.6428 84.5467C60.2845 84.335 60.0629 84.1502 59.642 84.2022L59.2761 83.9375L59.1508 84.015C59.2155 84.7352 59.5166 85.1917 59.621 85.8652C59.4203 85.4915 59.0397 84.2543 58.8865 83.7918C56.3438 82.4439 54.9061 80.4867 54.6638 77.7008Z" fill="#8373E5"/>
<path d="M56.7359 76.0937C56.8143 75.9147 56.9017 75.8183 57.0213 75.6638L57.2957 75.6555C57.225 76.6946 57.5224 78.3418 57.8628 79.3238L58.1188 79.5571C57.7309 80.2603 59.0667 82.2563 59.5226 82.9278C59.2673 83.1556 59.233 83.1769 58.8903 83.213C56.6508 82.4727 55.2206 79.5069 55.224 77.332C55.9256 76.746 55.9427 76.7568 56.506 76.0415L56.7359 76.0937Z" fill="#EDEBFE"/>
<path d="M56.7359 76.0938C56.8144 75.9148 56.9017 75.8184 57.0213 75.6639L57.2957 75.6555C57.225 76.6947 57.5224 78.3419 57.8629 79.3239L58.1188 79.5571C57.7309 80.2604 59.0668 82.2564 59.5227 82.9279C59.2674 83.1557 59.233 83.177 58.8903 83.2131C57.6287 80.6536 57.0656 78.9614 56.7359 76.0938Z" fill="#9489EA"/>
<path d="M51.3059 70.2378C52.7018 69.866 54.4597 70.9507 54.1718 72.2694C53.5765 72.1862 51.7507 71.6711 51.4283 71.1807C51.1997 70.833 51.262 70.6289 51.3059 70.2378Z" fill="#BBC0FA"/>
<path d="M49.499 73.0163C49.7514 72.9573 49.7772 72.9635 50.0373 72.9786C50.3349 73.3142 50.3246 75.3034 50.4296 76.0777C49.0568 76.1894 49.1881 73.8463 49.499 73.0163Z" fill="#FFFEFE"/>
<path d="M50.7881 76.1511C51.2196 76.0557 51.3357 76.0052 51.7453 76.1513C52.1034 76.5119 52 76.3629 52.1232 76.8575C51.6528 77.0721 51.6623 77.0355 51.2555 76.9218C50.9248 76.627 50.9114 76.559 50.7881 76.1511Z" fill="#FFFEFE"/>
<path d="M63.5867 65.3621L63.9859 65.6571C64.2923 65.7324 64.1894 65.6557 64.3499 65.9267C64.8281 66.737 67.2613 67.1734 68.2359 67.0365L68.2486 67.0912C66.7376 68.2759 67.0017 69.4025 69.0095 69.4158C68.843 70.6949 67.1993 71.4699 68.1006 72.4373C70.851 75.3892 70.1771 80.341 66.7648 82.7915C66.1713 83.2185 65.6504 83.5369 65.0393 83.8982C65.3309 85.1028 66.2536 86.4729 66.3446 87.1567C64.7623 86.7098 62.6137 85.1506 60.9851 84.357L60.5968 83.836C62.4391 83.8998 63.062 83.8289 64.8221 83.3238C65.8184 82.9591 66.7847 82.2843 67.4751 81.5148C68.7175 80.1108 69.3538 78.3207 69.2499 76.521C69.1427 74.917 68.4199 73.3627 67.1374 72.3305C66.9905 72.1399 66.9261 72.1126 66.7464 71.9755C63.9797 69.8646 61.9967 70.662 59.0004 71.027C58.4286 71.7928 57.0931 74.201 57.3224 75.1038L57.3516 75.4987L57.2957 75.6553L57.0212 75.6636C56.9016 75.8181 56.8143 75.9145 56.7358 76.0935L56.506 76.0413L56.0702 75.7541C55.7105 76.2785 55.5852 76.3974 55.1048 76.8355C55.2815 76.1101 55.3731 75.7768 55.66 75.0705L55.2462 74.7315C55.5499 73.1594 57.0512 73.1965 56.4992 71.2047C56.7004 71.3116 56.8519 71.6605 57.0423 71.8809L56.9748 71.6607L57.0766 71.8328C56.8983 71.6506 56.6848 70.8392 56.6099 70.5553C57.0063 71.0615 57.1538 71.2776 57.4523 71.8417C57.8034 71.5066 58.1679 71.1669 58.5078 70.823C59.8046 69.1816 61.892 67.3402 63.5129 65.9857L63.901 66.1214L64.0109 65.9591C63.8306 65.8616 63.7529 65.8048 63.5891 65.6836L63.5867 65.3621Z" fill="#9489EA"/>
<path d="M63.5131 65.9859L63.9012 66.1216C63.466 66.6426 59.3828 70.6484 58.9041 70.9105C58.747 70.8955 58.6425 70.8996 58.508 70.8232C59.8048 69.1818 61.8921 67.3404 63.5131 65.9859Z" fill="#4432C1"/>
<path d="M55.66 75.0704C56.0568 74.2174 56.3467 73.6006 57.0048 72.8713C56.8789 74.1502 56.7789 74.5777 56.0701 75.7541C55.7104 76.2784 55.5851 76.3974 55.1047 76.8355C55.2815 76.1101 55.3731 75.7768 55.66 75.0704Z" fill="#EDEBFE"/>
<path d="M67.1375 72.331C68.42 73.3631 69.1428 74.9174 69.25 76.5215C69.3539 78.3211 68.7176 80.1112 67.4752 81.5153C66.7849 82.2848 65.8185 82.9596 64.8222 83.3242C64.5401 82.1966 64.1133 80.2436 64.6299 79.1569C65.6028 79.6129 66.3909 79.2993 66.5927 78.2599C66.8823 76.7681 66.4255 75.4872 65.5929 74.2922C66.1266 73.5115 66.514 73.3228 67.1375 72.331Z" fill="#BBC0FA"/>
<path d="M64.6298 79.1566C64.5439 77.8587 64.7556 76.5948 64.678 75.3246C64.6566 74.9764 64.3738 74.0797 64.2782 73.614L64.4472 73.3799L64.7187 73.3753C65.1225 73.5867 65.3266 73.932 65.5928 74.2919C66.4254 75.4869 66.8822 76.7678 66.5926 78.2596C66.3908 79.299 65.6027 79.6126 64.6298 79.1566Z" fill="#FFFEFE"/>
<path d="M57.3515 75.4986C59.3924 74.8324 59.9124 76.4242 59.8344 78.0538C59.273 78.7857 58.7157 78.9567 57.8628 79.3234C57.5223 78.3415 57.2249 76.6942 57.2957 75.6551L57.3515 75.4986Z" fill="#B2ABEF"/>
<path d="M57.3223 75.1039C59.491 74.6367 60.8772 76.1886 60.1864 78.0748L59.8343 78.0541C59.9124 76.4244 59.3923 74.8326 57.3515 75.4988L57.3223 75.1039Z" fill="#9489EA"/>
<path d="M59.8344 78.0539L60.1864 78.0746C59.7474 78.8444 59.1753 79.2349 58.2939 79.5057C58.2358 79.5235 58.1773 79.5406 58.1187 79.5568L57.8627 79.3235C58.7156 78.9567 59.273 78.7858 59.8344 78.0539Z" fill="#8373E5"/>
<path d="M61.6226 71.6657C62.4834 71.6997 63.6049 72.0969 63.2777 73.0968C62.6555 72.987 61.9863 72.909 61.5748 72.4501C61.4262 72.001 61.448 72.1673 61.6226 71.6657Z" fill="#FFFEFE"/>
<path d="M78.2436 58.4388L78.4111 58.229C78.2865 57.8793 78.1086 57.7997 77.8761 57.532C74.7424 53.9234 76.5975 48.5123 81.235 46.9639C82.9858 46.3851 84.8853 46.4898 86.5092 47.2545C90.1344 48.946 91.1975 52.6678 89.433 56.1488C93.318 56.8868 95.1668 58.3877 97.4919 61.516C97.5131 61.5601 97.5343 61.6041 97.5554 61.6482L97.3145 61.7291C97.2884 61.8428 97.2412 62.0191 97.2287 62.1283C97.0965 61.9451 96.8633 61.9416 96.5404 61.4809C96.3755 61.2218 96.2033 60.9672 96.0238 60.7172C94.1924 58.1944 92.0732 57.1932 88.9604 56.7078C87.4953 59.8434 81.8012 60.8271 79.1346 58.5232L79.161 58.4456L79.0296 58.3287L78.2436 58.4388Z" fill="#8373E5"/>
<path d="M79.4055 58.023C77.7233 57.9716 76.7132 54.2291 76.8371 52.8871C76.9968 51.2588 77.8293 49.737 79.1512 48.6566C81.9298 46.4138 85.9821 46.5918 88.3274 49.2015C89.6988 50.7277 90.4332 54.5345 88.9177 56.1473C88.3363 56.3629 87.5578 56.3489 86.9248 56.3757L86.7251 56.5495L86.7567 56.668C87.1967 56.8053 88.2278 56.6417 88.7427 56.5882C86.2123 59.4707 83.0814 60.1739 79.6695 58.469L79.4954 58.4257C79.6977 58.2134 79.711 58.2695 79.7141 58.0592L79.4055 58.023Z" fill="#D0D8FF"/>
<path d="M81.4663 57.2643C82.0249 57.1398 82.5219 57.0307 83.0729 56.8652C84.7275 56.3583 85.0932 56.288 86.8045 56.3023L86.9244 56.3755L86.7248 56.5493L86.7564 56.6678C87.1964 56.8051 88.2275 56.6415 88.7424 56.588C86.212 59.4705 83.0811 60.1737 79.6692 58.4688L79.4951 58.4256C79.6974 58.2132 79.7107 58.2693 79.7138 58.0591L79.4052 58.0228C79.686 57.8113 79.8913 57.7838 80.2323 57.6911C80.5906 57.6138 81.1087 57.3998 81.4663 57.2643Z" fill="#BBC0FA"/>
<path d="M81.4663 57.2643C82.0249 57.1398 82.5219 57.0307 83.0729 56.8652L83.7446 56.809L83.8673 56.947C83.435 57.6167 80.4903 58.0651 79.6692 58.4688L79.4951 58.4256C79.6974 58.2132 79.7107 58.2693 79.7138 58.0591L79.4052 58.0228C79.686 57.8113 79.8913 57.7838 80.2323 57.6911C80.5906 57.6138 81.1087 57.3998 81.4663 57.2643Z" fill="#9489EA"/>
<path d="M80.2324 57.691C79.9358 57.1468 79.4964 56.647 79.8932 56.0812C80.6217 56.0227 81.2083 56.6798 81.4664 57.2642C81.1088 57.3997 80.5907 57.6137 80.2324 57.691Z" fill="#FFFEFE"/>
<path d="M78.7628 51.2066L79.1917 51.1088C80.4097 51.4505 79.3883 53.8697 79.2385 54.8143L79.2225 54.9176C79.1239 55.0403 79.0252 55.0708 78.8807 55.1397C77.973 54.5742 78.2338 52.1165 78.7628 51.2066Z" fill="#FFFEFE"/>
<path d="M82.5569 48.1782C83.2478 48.1211 84.919 48.825 84.4965 49.7161C83.3047 49.8891 81.5175 49.7815 82.5569 48.1782Z" fill="#BBC0FA"/>
<path d="M63.5129 65.9857C62.1913 64.9184 62.1928 62.4344 63.076 61.0121C63.7295 59.9559 64.7976 59.183 66.0361 58.8699C68.1971 58.3291 69.8643 59.0389 70.9875 60.694C71.2019 61.01 71.3929 61.4623 71.7347 61.624C71.5546 61.9114 71.5556 62.0671 71.5038 62.3918L71.944 62.2549L72.3207 63.3332L71.6966 64.0275C71.5748 64.2596 71.2251 64.9605 71.0923 65.1358C70.8938 65.4168 69.9864 66.4468 69.9777 66.4729C69.8082 66.5994 69.5099 66.8072 69.3701 66.9448C68.9375 66.8534 68.7804 67.0629 68.4419 67.2907L68.2486 67.0911L68.2359 67.0364C67.2613 67.1733 64.8281 66.737 64.3499 65.9267C64.1894 65.6556 64.2923 65.7323 63.9859 65.6571L63.5867 65.3621L63.5891 65.6835C63.7529 65.8047 63.8306 65.8615 64.0109 65.9591L63.901 66.1214L63.5129 65.9857Z" fill="#EDEBFE"/>
<path d="M68.8599 63.0462C69.0326 62.5785 69.0819 62.529 69.5493 62.5391L69.8311 62.4872L69.8285 62.6884C70.5595 62.9008 70.7947 62.4014 71.4471 62.446L71.504 62.3921L71.9441 62.2552L72.3209 63.3335L71.6968 64.0278C71.5749 64.2599 71.2253 64.9608 71.0924 65.1361C70.894 65.4171 69.9865 66.4471 69.9779 66.4732C69.8084 66.5996 69.5101 66.8075 69.3703 66.9451C68.9377 66.8537 68.7806 67.0631 68.4421 67.291L68.2487 67.0914L68.2361 67.0367C67.2615 67.1736 64.8283 66.7373 64.3501 65.9269C64.1895 65.6559 64.2925 65.7326 63.986 65.6573C65.5051 64.2215 66.9013 63.8384 68.8599 63.0462Z" fill="#B2ABEF"/>
<path d="M63.9859 65.6569C65.505 64.2211 66.9011 63.838 68.8598 63.0457C68.6418 63.5687 68.2458 64.2883 68.1086 64.7581C66.7796 63.9208 65.4038 65.0915 64.3499 65.9265C64.1894 65.6555 64.2923 65.7322 63.9859 65.6569Z" fill="#9489EA"/>
<path d="M68.8598 63.0462C69.0325 62.5785 69.0818 62.529 69.5492 62.5391C69.5614 63.1211 69.5906 63.7711 69.5742 64.3482C69.3306 64.6943 69.1593 65.0077 68.7754 65.2015C68.3289 65.2321 68.2761 65.1685 68.1087 64.7585C68.2459 64.2887 68.6419 63.5692 68.8598 63.0462Z" fill="#FFFEFE"/>
<path d="M70.7581 64.8111L71.0924 65.1362C70.8939 65.4173 69.9865 66.4473 69.9778 66.4733C69.8083 66.5998 69.51 66.8076 69.3702 66.9452C68.9376 66.8539 68.7805 67.0633 68.442 67.2912L68.2487 67.0916L68.236 67.0369C69.5312 66.1695 69.6613 66.5496 70.7581 64.8111Z" fill="#8373E5"/>
<path d="M71.5038 62.3921L71.944 62.2552L72.3207 63.3335L71.6966 64.0278L71.1112 63.8341C71.2912 63.304 71.3477 62.9964 71.4469 62.446L71.5038 62.3921Z" fill="#8373E5"/>
<path d="M70.758 64.811C70.3602 64.5254 70.2348 64.7511 69.8816 64.4563L70.0557 64.4082L70.1542 64.4611C70.5115 64.2845 70.8571 64.1439 71.1113 63.8342L71.6967 64.0279C71.5748 64.26 71.2252 64.9609 71.0923 65.1361L70.758 64.811Z" fill="#9489EA"/>
<path d="M63.5129 65.9857C62.1913 64.9184 62.1928 62.4344 63.076 61.0121C63.7295 59.9559 64.7976 59.183 66.0361 58.8699C68.1971 58.3291 69.8643 59.0389 70.9875 60.694C71.2019 61.01 71.3929 61.4623 71.7347 61.624C71.5546 61.9114 71.5556 62.0671 71.5038 62.3918L71.4469 62.4457C70.7945 62.4011 70.5593 62.9005 69.8283 62.6881L69.8309 62.487L71.1359 61.9089C70.4352 60.6625 69.8371 59.762 68.2542 59.3545C67.1832 59.0834 66.0284 59.2398 65.0533 59.7882C64.1104 60.3101 63.4197 61.1679 63.1405 62.1637C62.8062 63.3425 63.08 64.3081 63.5867 65.3621L63.5891 65.6835C63.7529 65.8047 63.8306 65.8615 64.0109 65.9591L63.901 66.1214L63.5129 65.9857Z" fill="#8373E5"/>
<path d="M68.3185 60.6411C68.8372 60.5763 68.8192 60.5752 69.188 60.8732C69.3602 61.2555 69.3634 61.3103 69.3696 61.7234C69.0001 61.7542 68.96 61.7364 68.6516 61.5484C68.3862 61.2397 68.3843 61.0391 68.3185 60.6411Z" fill="#FFFEFE"/>
<path d="M96.5403 61.4808C96.8633 61.9415 97.0965 61.9451 97.2287 62.1282C98.6336 64.0509 99.2609 65.7209 99.5098 68.0764C99.3114 73.962 93.0347 75.6822 88.1153 76.9675C87.119 77.2278 86.1585 77.6527 85.1402 77.8188C84.7944 77.5779 84.7333 77.3265 84.4315 77.0476C85.5171 74.781 90.8398 73.1038 92.9278 71.9377C95.1691 73.5597 95.7364 69.8266 95.8108 68.5081C96.7702 67.3806 96.9522 66.123 96.5671 64.8048C97.2022 64.0989 96.6317 62.4475 96.5403 61.4808Z" fill="#9489EA"/>
<path d="M92.9279 71.9377C92.4151 70.354 94.6015 69.9058 94.905 68.5611C94.9956 68.1591 94.9818 67.5499 95.3967 67.375L95.713 67.6013C95.7302 67.8276 95.7513 68.3122 95.8108 68.5081C95.7365 69.8266 95.1691 73.5597 92.9279 71.9377Z" fill="#FFFEFE"/>
<path d="M69.9777 66.4729C71.4809 67.7554 70.6256 68.8012 69.0096 69.4158C67.0018 69.4025 66.7376 68.2759 68.2486 67.0911L68.442 67.2907C68.7805 67.0629 68.9376 66.8534 69.3701 66.9448C69.51 66.8072 69.8083 66.5993 69.9777 66.4729Z" fill="#4432C1"/>
<path d="M68.442 67.2911C68.7805 67.0632 68.9377 66.8538 69.3702 66.9451C69.6754 67.0722 69.7364 67.1207 69.9962 67.3191C70.5568 68.5467 68.4561 69.5315 67.9025 68.5025C67.8822 68.0667 68.1948 67.6778 68.442 67.2911Z" fill="#9489EA"/>
<path d="M71.7348 61.6245C72.6086 61.0385 77.1298 58.8806 78.2437 58.439L79.0297 58.3289L79.161 58.4458L79.1347 58.5234C78.1359 59.0919 76.8554 59.7372 75.9377 60.3422C74.6375 60.7219 72.9694 61.3662 71.9441 62.2554L71.5039 62.3923C71.5557 62.0675 71.5547 61.9118 71.7348 61.6245Z" fill="#4432C1"/>
<path d="M95.8681 66.6086C94.6136 66.8331 94.4263 64.7098 95.4018 63.8013C95.8317 63.678 95.6578 63.6677 96.0544 63.8364C96.4034 64.2295 96.4234 64.3016 96.5671 64.8048C96.4415 65.203 95.9042 66.393 95.8681 66.6086Z" fill="#FFFEFE"/>
<path d="M71.9439 62.2549C72.9692 61.3657 74.6373 60.7214 75.9375 60.3417C75.2548 60.9744 73.0644 62.9671 72.3206 63.3332L71.9439 62.2549Z" fill="#9489EA"/>
<path d="M81.7915 68.3682C83.2822 67.9022 85.9431 67.9596 84.8317 70.105C84.6596 70.1739 84.4845 70.2354 84.3069 70.2893C82.7255 70.7838 80.5151 70.287 81.7915 68.3682Z" fill="#4432C1"/>
<path d="M81.978 68.8733C83.0154 68.5267 84.5506 68.2626 84.5224 69.7253C83.4304 70.0934 81.9803 70.4175 81.978 68.8733Z" fill="#9489EA"/>
<path d="M92.2147 61.1905C93.1132 60.8273 94.6748 60.5846 94.852 61.8008C94.7062 62.2587 94.6195 62.3084 94.2305 62.623C92.5909 63.3222 90.6475 62.8448 92.2147 61.1905Z" fill="#4432C1"/>
<path d="M92.2938 61.7746C92.8802 61.5584 93.5491 61.2946 94.1492 61.5108C94.3392 61.7872 94.3112 61.6545 94.2342 62.0132C93.7087 62.2625 93.061 62.638 92.504 62.4645C92.24 62.1451 92.3167 62.2443 92.2938 61.7746Z" fill="#9489EA"/>
<path d="M89.7147 69.2221C91.6084 68.8702 92.2653 70.215 90.7148 71.4229C88.913 71.696 88.0002 70.1774 89.7147 69.2221Z" fill="#4432C1"/>
<path d="M89.6044 69.9065C89.7723 69.6785 90.0569 69.5543 90.3426 69.5842C90.6284 69.6141 90.8677 69.7933 90.9635 70.0489C91.0595 70.3046 90.9958 70.5941 90.7986 70.8002C90.5199 71.0913 90.0583 71.1342 89.7431 70.8983C89.4278 70.6623 89.3672 70.2286 89.6044 69.9065Z" fill="#9489EA"/>
<path d="M68.3825 84.0725C68.5371 84.0195 68.693 83.9693 68.8497 83.9221C70.2637 83.5009 71.1917 84.2133 70.2385 85.6097C68.4658 86.5529 67.107 85.5058 68.3825 84.0725Z" fill="#4432C1"/>
<path d="M68.5806 84.4696C69.1415 84.2923 69.6983 84.125 70.1244 84.5654C70.1348 85.0316 70.1375 84.8894 69.8944 85.3392C69.2758 85.5212 68.9254 85.7005 68.4311 85.2728C68.3435 84.897 68.4092 84.8119 68.5806 84.4696Z" fill="#9489EA"/>
<path d="M72.3974 73.5732C74.3872 72.9349 74.2196 74.4993 73.3235 75.6471C71.2202 76.1718 71.2524 74.7714 72.3974 73.5732Z" fill="#4432C1"/>
<path d="M72.5604 74.0836C72.9819 73.9631 73.2034 73.8884 73.4264 74.255C73.4021 74.66 73.2214 74.8515 72.9784 75.1934C72.6923 75.2995 72.648 75.2948 72.344 75.2757L72.1718 75.081C72.1615 74.6273 72.3022 74.4751 72.5604 74.0836Z" fill="#9489EA"/>
<path d="M83.3339 65.0254C85.1906 64.5549 85.0943 65.973 84.1786 67.0776C82.6052 67.5712 82.2826 66.1378 83.3339 65.0254Z" fill="#4432C1"/>
<path d="M60.3179 50.4944C62.1682 49.5995 64.3843 50.2711 65.2767 51.997C66.1691 53.723 65.4023 55.8546 63.5609 56.7668C61.7066 57.6853 59.4674 57.0188 58.5687 55.2805C57.6701 53.5423 58.4545 51.3957 60.3179 50.4944Z" fill="#8373E5"/>
<path d="M60.5305 50.9123C61.5759 50.4098 62.8071 50.4724 63.7531 51.0761C64.6991 51.6798 65.2135 52.7313 65.0995 53.8281C64.9854 54.925 64.2606 55.8974 63.2023 56.3734C61.5964 57.0957 59.7186 56.4758 58.9878 54.9819C58.257 53.4881 58.9443 51.6749 60.5305 50.9123Z" fill="#EDEBFE"/>
<path d="M97.2288 62.1282C97.2413 62.0191 97.2885 61.8428 97.3146 61.7291L97.5555 61.6482C98.3491 62.811 98.9032 63.6455 99.4128 64.9565C99.7709 65.8775 100.088 67.0403 100.521 67.8977C101.359 70.4457 102.042 72.8358 101.854 75.5807L101.578 75.6603L101.301 75.2468C101.292 75.8673 101.268 75.991 101.044 76.5804C100.665 76.1606 100.516 75.5957 100.248 75.0885C99.5684 73.8017 98.9796 73.7409 97.6354 73.3436C99.2342 71.6319 99.751 70.7605 99.9825 68.4597C99.8359 68.202 99.7987 68.1869 99.5099 68.0765C99.261 65.721 98.6337 64.0509 97.2288 62.1282Z" fill="#B2ABEF"/>
<path d="M97.2288 62.1283C97.2413 62.0192 97.2886 61.8429 97.3146 61.7292L97.5556 61.6483C98.3492 62.8111 98.9032 63.6456 99.4129 64.9566C99.771 65.8776 100.088 67.0404 100.521 67.8978C101.359 70.4458 102.042 72.8359 101.854 75.5808L101.578 75.6604L101.301 75.2469C101.37 72.5078 100.925 71.2445 100.256 68.6245L99.9825 68.4598C99.836 68.2021 99.7987 68.187 99.5099 68.0766C99.2611 65.7211 98.6337 64.051 97.2288 62.1283Z" fill="#4432C1"/>
<path d="M86.8156 40.8106C89.0189 40.1123 92.3643 41.486 89.8578 44.0164C87.6405 44.779 84.3092 43.4105 86.8156 40.8106Z" fill="#8373E5"/>
<path d="M87.1672 41.1603C88.9184 40.928 91.2973 41.4373 89.7003 43.5666C88.2595 44.1072 85.157 43.3301 87.1672 41.1603Z" fill="#EDEBFE"/>
<path d="M57.1385 59.4754C58.9787 59.0315 61.4374 60.3995 59.1945 62.0252C56.8216 63.8558 55.7092 61.2773 57.1385 59.4754Z" fill="#8373E5"/>
<path d="M57.3783 59.9319C57.4213 59.9259 57.4643 59.9202 57.5073 59.9149C58.3634 59.8108 59.4539 59.9442 59.5354 60.9157C59.3909 61.3237 59.0971 61.4526 58.7133 61.6955C58.4344 61.8845 58.2501 61.9754 57.9541 62.1243C57.4176 62.0947 57.0908 61.9471 57.0013 61.3795C56.9186 60.8746 57.0545 60.3528 57.3783 59.9319Z" fill="#EDEBFE"/>
<path d="M92.9741 41.0702C93.1591 41.0124 93.3456 40.96 93.5337 40.9131C95.6274 40.4056 95.5833 42.3103 94.6306 43.619C94.2632 43.6925 93.189 43.5651 92.8802 43.3702C91.8229 42.7032 92.4863 41.7472 92.9741 41.0702Z" fill="#8373E5"/>
<path d="M93.2483 41.4663C93.7063 41.3545 93.9246 41.268 94.3726 41.3853C95.0207 41.9306 94.7193 42.4613 94.4062 43.1511C94.1392 43.1178 93.8729 43.0801 93.6076 43.0381C93.1449 42.961 93.0484 42.9067 92.822 42.5824C92.7637 42.1725 93.0248 41.8452 93.2483 41.4663Z" fill="#EDEBFE"/>
<path d="M44.3977 77.1308C45.9917 76.8097 47.7125 78.18 46.339 79.4227C44.204 79.8683 42.9874 79.2078 44.3977 77.1308Z" fill="#8373E5"/>
<path d="M44.6444 77.6278C45.496 77.4855 46.6036 77.9403 46.1346 78.9443C45.4725 79.0676 44.8347 79.3428 44.4377 78.7596C44.3818 78.2949 44.4876 78.0825 44.6444 77.6278Z" fill="#EDEBFE"/>
<path d="M39.2808 75.2379C40.92 74.7886 42.0429 75.6743 41.041 77.1916C39.4428 77.3043 38.2937 76.9603 39.2808 75.2379Z" fill="#8373E5"/>
<path d="M39.755 75.5654C39.7802 75.5635 39.8054 75.5618 39.8306 75.56C40.1925 75.5585 40.5385 75.6824 40.8037 75.9086C40.9662 76.3234 40.9485 76.1579 40.7767 76.6305C40.2109 76.6883 39.8708 76.7927 39.476 76.3812C39.4674 75.9347 39.5054 76.0168 39.755 75.5654Z" fill="#EDEBFE"/>
<path d="M64.165 92.171C65.3314 93.0653 65.9438 93.5124 67.3914 93.969C67.9216 94.2504 69.8735 95.1978 70.3197 94.6091L70.617 94.8744C70.402 95.1656 70.2698 95.1151 69.9394 95.3133C67.7119 95.1884 65.6312 94.0605 63.9874 92.7383L64.165 92.171Z" fill="#4432C1"/>
<defs>
<filter id="filter0_dd_725_11135" x="14.2819" y="12.2615" width="117.377" height="118.925" filterUnits="userSpaceOnUse" color-interpolation-filters="sRGB">
<feFlood flood-opacity="0" result="BackgroundImageFix"/>
<feColorMatrix in="SourceAlpha" type="matrix" values="0 0 0 0 0 0 0 0 0 0 0 0 0 0 0 0 0 0 127 0" result="hardAlpha"/>
<feOffset dy="3"/>
<feComposite in2="hardAlpha" operator="out"/>
<feColorMatrix type="matrix" values="0 0 0 0 0.898039 0 0 0 0 0.898039 0 0 0 0 0.898039 0 0 0 1 0"/>
<feBlend mode="normal" in2="BackgroundImageFix" result="effect1_dropShadow_725_11135"/>
<feColorMatrix in="SourceAlpha" type="matrix" values="0 0 0 0 0 0 0 0 0 0 0 0 0 0 0 0 0 0 127 0" result="hardAlpha"/>
<feOffset dx="2" dy="2"/>
<feComposite in2="hardAlpha" operator="out"/>
<feColorMatrix type="matrix" values="0 0 0 0 0.898039 0 0 0 0 0.898039 0 0 0 0 0.898039 0 0 0 1 0"/>
<feBlend mode="normal" in2="effect1_dropShadow_725_11135" result="effect2_dropShadow_725_11135"/>
<feBlend mode="normal" in="SourceGraphic" in2="effect2_dropShadow_725_11135" result="shape"/>
</filter>
</defs>
</svg>
