<svg width="137" height="137" viewBox="0 0 137 137" fill="none" xmlns="http://www.w3.org/2000/svg">
<g filter="url(#filter0_dd_725_11005)">
<path d="M34.3008 35.1399C34.3683 34.9149 34.5312 34.7809 34.7545 34.7079C37.0843 33.9461 39.7475 33.2504 42.1038 32.578L55.3857 28.7929L70.8644 24.425C73.4387 23.6976 76.1873 22.8355 78.7731 22.1824C79 22.1251 79.2405 22.1478 79.4372 22.2746C81.2479 23.4421 85.438 27.9106 86.8804 29.3214L101.378 43.5834L108.649 50.7012C109.414 51.4504 112.011 53.9395 112.825 55.0042C112.949 55.1653 112.995 55.3664 112.97 55.5676C112.791 57.0188 112.059 59.7341 111.735 61.0611L109.208 71.3608L104.699 89.7367C103.852 93.2122 103.022 96.7294 102.118 100.191C102.006 100.618 101.892 100.88 101.624 101.168C101.541 101.257 101.436 101.323 101.322 101.364C100.347 101.722 98.0762 102.281 97.0959 102.555L88.0403 105.118C77.8321 108.07 67.6063 110.961 57.3636 113.791C57.0357 113.882 56.6841 113.8 56.4329 113.57C54.1683 111.503 51.6133 108.845 49.4434 106.715L32.3844 89.9579C29.5863 87.2051 26.3546 83.846 23.4457 81.2033C23.2145 80.9932 23.0962 80.7172 23.1577 80.4108C24.1093 75.669 33.148 38.9849 34.3008 35.1399Z" fill="#FBB69A"/>
<path d="M40.7313 27.7696L40.7332 27.7691L54.0152 23.9849L54.0274 23.9814L69.506 19.6131C71.8719 18.9445 74.8881 18.0064 77.5488 17.3343C78.772 17.0254 80.3594 17.0523 81.8499 17.893L82.1471 18.072L82.4202 18.2558C83.8128 19.222 85.5518 20.9039 86.8142 22.1536C88.1394 23.4653 88.991 24.3518 89.7013 25.0724L90.3764 25.7475L90.3872 25.7566L104.875 40.0106L112.147 47.1276L112.149 47.1292C112.489 47.463 113.386 48.3281 114.259 49.204C115.055 50.0018 116.154 51.1259 116.797 51.967C117.796 53.2739 118.102 54.819 117.933 56.1825C117.705 58.0187 116.838 61.2404 116.591 62.2493L116.591 62.2524L114.064 72.5519L114.063 72.5521L109.555 90.9284L109.554 90.9277C108.72 94.354 107.872 97.9417 106.954 101.453C106.722 102.342 106.314 103.47 105.279 104.579C104.608 105.299 103.816 105.775 103.041 106.059C101.831 106.502 99.0364 107.204 98.445 107.37L98.4447 107.369L89.4065 109.928C79.1867 112.883 68.9491 115.778 58.6949 118.611C56.7375 119.151 54.6031 118.671 53.0614 117.264C50.7157 115.122 47.9437 112.249 45.9406 110.283L45.9391 110.281L28.8802 93.5249L28.8776 93.5226C25.9256 90.6184 22.8981 87.4613 20.0831 84.9038C18.8205 83.7565 17.7821 81.7862 18.2556 79.4268C19.2336 74.5537 28.3079 37.7197 29.5117 33.7044L29.6453 33.3095C30.3701 31.3955 31.9208 30.3739 33.2003 29.9555L34.1369 29.6575C36.3601 28.9673 38.8103 28.3178 40.7313 27.7696Z" stroke="white" stroke-width="10"/>
</g>
<path d="M37.5684 36.7517C39.1419 36.1903 42.7507 35.3124 44.5093 34.8128L59.7474 30.4634L71.8074 27.0185C73.5685 26.5157 76.9762 25.4466 78.655 25.1968C79.4657 25.5837 84.6996 30.8458 85.7274 31.8507L98.8491 44.6807L106.097 51.7469C107.328 52.9475 109.316 54.7989 110.373 56.0678C110.274 56.9112 109.824 58.5698 109.605 59.4496L108.134 65.3575L103.304 84.788L100.816 94.8395C100.512 96.0615 100.172 97.5549 99.7787 98.7712C99.6919 99.0393 99.2208 99.1259 98.9413 99.2172L57.421 111.002C46.7791 100.803 36.3654 90.2629 25.7134 80.0855L33.5745 48.5339C34.3043 45.7106 35.5321 39.7391 36.435 37.3291C36.6966 36.9915 37.1518 36.8931 37.5684 36.7517Z" fill="#FED9CA"/>
<path d="M48.3441 48.4883C49.3157 47.9764 51.5261 47.3828 52.6173 47.064C55.1682 46.3188 57.7781 45.6763 60.3262 44.9128C66.6532 43.0171 73.191 40.6047 79.5944 39.0432C79.8256 40.8677 79.9965 41.974 80.6397 43.7201C82.2976 48.2206 86.0378 50.9895 88.1896 55.1504C90.4861 59.6602 92.4375 64.3461 94.0252 69.1625C94.5113 70.6717 95.6128 75.2849 96.1849 76.4273C96.1928 76.4889 96.2617 77.0221 96.2615 77.0227C95.8869 78.2109 93.7008 82.1517 92.487 82.2903C92.3164 82.3083 92.1451 82.3191 91.9733 82.3223C88.4627 83.2138 82.3771 84.8361 78.6796 86.0248C78.627 86.1154 78.5819 86.1932 78.5443 86.2581C78.1296 90.8267 48.9414 102.401 44.4371 95.3826C43.8238 94.427 44.9376 90.0948 45.0281 88.8338C45.135 87.3427 43.9127 86.1133 44.9486 84.788C45.08 84.6189 45.6252 83.3941 45.8372 83.0441C47.1687 80.8454 48.8692 78.2769 51.2682 77.3117C51.0987 76.7464 50.7871 74.6994 50.669 73.9549C49.9157 69.2049 49.2127 64.2679 49.2206 59.4671C49.23 57.748 49.8903 56.2427 49.8953 54.51C49.8991 53.2321 47.7541 49.3506 48.3441 48.4883Z" fill="#FB9B74"/>
<path d="M51.0594 76.2173L51.2572 76.2878L51.211 75.7128L51.3643 76.0959C51.8219 76.1464 52.5014 75.8295 53.0124 75.7731C53.9862 75.6657 55.3594 75.5906 56.3247 75.7056L56.4628 75.5712C58.0057 74.9045 60.7986 75.7008 62.7203 74.2411C64.7314 74.3713 66.8268 74.5924 68.8108 75.0417C69.4252 75.1808 70.8065 75.9897 71.1345 76.0169C73.2828 76.1955 73.6615 78.7912 75.0654 80.4334C75.4574 80.8918 77.4909 83.0478 77.7431 83.526C77.9639 84.6088 78.9571 84.6561 78.5545 85.6257L78.6385 85.9985L78.7759 85.9473C78.4113 90.743 49.0069 102.553 44.3631 95.1238C43.7308 94.1123 44.8059 89.5734 44.8823 88.2495C44.9725 86.6839 43.7205 85.3773 44.7531 83.9972C44.884 83.821 45.421 82.5406 45.6314 82.1754C46.9526 79.8811 48.6429 77.2025 51.0594 76.2173Z" fill="#D44C0F"/>
<path d="M72.1295 81.9942C72.9139 81.5094 73.5999 81.0394 74.353 80.5203C75.2439 81.511 78.173 83.867 78.4887 84.5514C77.5981 86.8267 72.0313 88.7612 69.5242 89.8695C64.3223 92.169 58.83 93.7037 53.2332 94.7432C50.3634 95.4502 46.5655 95.9492 44.2359 94.594C44.1251 94.3968 44.0053 94.1175 44.0256 93.8918C44.0959 93.1136 44.7336 89.7607 45.4424 89.3727C46.4411 89.3183 47.3671 89.3112 48.3609 89.3037C56.6641 88.516 64.859 85.9958 72.1295 81.9942Z" fill="#F7CDB0"/>
<path d="M72.0501 82.017C72.8475 81.5284 73.5451 81.0551 74.311 80.5323C75.2104 81.5206 78.1714 83.8674 78.4887 84.5513C77.5763 86.8329 71.9232 88.7922 69.3763 89.9119C64.0916 92.2351 58.5156 93.7938 52.8357 94.8572C53.3885 94.6398 53.8216 94.2921 54.2211 94.1463C57.4963 92.9499 60.3048 91.384 63.3449 89.8275C64.2476 89.3654 66.0502 88.9946 67.1112 88.5613C69.6464 87.526 73.2061 86.6393 74.9149 84.6688C75.9011 83.4777 73.0953 82.3101 72.0501 82.017Z" fill="#FBB69A"/>
<path d="M45.303 88.8503C46.3158 88.8321 47.257 88.8656 48.2671 88.9016C47.8314 89.5052 47.3355 89.8413 46.8007 90.3367C45.8398 91.2268 44.1621 93.6444 44.3113 94.8563C44.1898 94.6223 44.0554 94.2929 44.066 94.0318C44.1024 93.1317 44.5999 89.2688 45.303 88.8503Z" fill="#FBB69A"/>
<path d="M66.8103 80.3226C68.0032 79.8453 71.7929 78.2329 72.9009 78.1245C73.5926 78.2375 73.785 78.7028 74.0606 79.0859C73.0761 79.6299 72.4179 79.9769 71.3771 80.4735C70.0423 81.0799 68.2128 81.913 66.8368 82.4047C61.482 84.3186 53.6437 86.6458 48.2322 87.3294L47.1148 87.5018C46.4208 87.5673 45.7544 87.6132 45.0675 87.6614C44.924 87.1721 44.6129 86.6173 45.1333 86.0958C45.6344 85.9918 45.9734 85.9131 46.4713 85.783C54.4557 84.4969 59.082 83.204 66.8103 80.3226Z" fill="#FED9CA"/>
<path d="M65.968 80.7938C67.3024 80.2138 71.5331 78.2336 72.8019 78.1751C73.6098 78.3978 73.8725 79.0819 74.224 79.6553C73.1359 80.3492 72.4069 80.7891 71.2497 81.4101C70.2627 80.6236 67.5473 80.4359 65.968 80.7938Z" fill="#F7CDB0"/>
<path d="M45.0556 86.0604C45.4981 85.987 45.7964 85.9264 46.2327 85.8184C46.4935 86.557 46.6299 86.9161 47.3055 87.4752C47.5584 87.6843 47.8229 87.8296 48.0282 88.0688L47.0341 88.1544C46.4113 88.153 45.8112 88.1293 45.1929 88.1061C45.0008 87.4461 44.6482 86.6791 45.0556 86.0604Z" fill="#F7CDB0"/>
<path d="M50.3075 78.9094C50.8887 78.6887 51.633 78.4226 52.214 78.3063C53.2695 78.095 58.271 77.601 58.9907 77.8279C60.0108 77.9424 60.8922 77.1 62.148 77.3077C63.3912 76.2474 64.7434 76.0271 66.2645 76.583C66.9721 76.441 68.2991 76.3655 68.9323 76.5489C69.491 76.7005 70.0671 76.8481 70.6097 77.0278C68.6713 77.7318 67.2849 78.7038 64.7646 79.5832L64.8342 79.516C63.7177 79.9599 62.4999 80.583 61.4914 80.9336C59.4358 81.8426 57.3974 82.7692 55.1109 82.9217C54.2643 82.9782 53.2475 82.0644 52.2556 82.8145C52.1379 83.1768 52.1082 83.31 51.7799 83.5965C50.8134 84.1404 44.694 85.1708 44.1552 84.5387C44.227 84.1797 44.8242 83.6509 45.1461 83.2587C45.2534 82.9262 47.3672 80.8376 47.8348 80.3112C48.1241 80.2366 49.771 79.1936 50.3075 78.9094Z" fill="#FB9B74"/>
<path d="M58.4972 76.4844C59.5982 76.8105 60.4107 75.6476 61.776 76.1514C60.5929 79.5371 56.9394 79.0755 54.9831 80.3529L54.3817 80.295C54.3573 78.8784 57.2861 77.1152 58.2994 76.9043L58.3618 76.8919L58.4972 76.4844Z" fill="#BC7425"/>
<path d="M45.2328 83.1487C46.9829 83.883 48.7356 82.9653 50.5226 82.9034C51.7182 82.8619 51.5524 83.7076 52.5386 83.8444C51.4992 84.4748 44.8164 85.4887 44.1975 84.6862C44.2614 84.2463 44.8955 83.6189 45.2328 83.1487Z" fill="#BC7425"/>
<path d="M68.713 76.4159C69.3501 76.6294 70.0067 76.8387 70.6267 77.087C68.4662 77.8948 66.9399 79.0625 64.1294 80.0676L64.2052 79.9859C62.9624 80.4995 61.6124 81.2347 60.4876 81.6353C61.9814 80.488 64.1424 79.4845 65.6624 78.2444C66.2953 77.7279 66.4283 78.3533 67.1968 77.3274C67.4541 76.7395 68.0287 77.0047 68.713 76.4159Z" fill="#BC7425"/>
<path d="M49.879 70.3732C50.6894 71.9659 52.5696 73.3083 54.3341 73.812C56.5864 74.4549 58.5398 74.5817 60.8848 74.2088C61.5512 74.1029 62.7589 73.9448 63.4133 73.9232C64.3201 73.8934 65.5949 74.2503 66.5071 74.1985C67.8426 74.1226 68.8914 73.797 70.2379 74.0515C72.029 74.39 73.458 75.6678 75.033 76.5047C77.7153 77.9299 80.2492 78.5483 83.29 78.8993C83.84 81.0288 85.9996 80.9634 86.8587 78.9722C87.5102 79.1105 89.5244 78.7083 90.0445 78.307C90.4296 78.8552 90.8228 79.3979 91.224 79.9352L91.5239 80.4069L91.6553 80.5843C91.571 80.8567 91.5165 81.0053 91.3978 81.2663C87.8084 82.1902 81.5841 83.8626 77.7965 85.0663C77.7405 85.1515 77.6925 85.2246 77.6524 85.2856L77.5126 85.336L77.4428 85.0114C77.8843 84.1431 76.8896 84.14 76.7099 83.1964C76.4754 82.7856 74.5185 80.9684 74.143 80.5804C72.7979 79.1907 72.5184 76.9227 70.3697 76.8488C70.0417 76.8376 68.687 76.1798 68.0759 76.0813C66.1025 75.763 64.0085 75.6498 61.9956 75.6132C60.0109 76.9713 57.2394 76.3792 55.6653 77.0253C54.8812 76.6067 51.6538 77.2811 50.7412 77.5761C50.5054 75.1564 50.033 72.8906 49.879 70.3732Z" fill="#FE7037"/>
<path d="M77.8694 82.3728C78.2971 82.942 78.5488 83.2831 78.9274 83.9127C80.1261 83.5836 91.2429 80.5202 91.4804 80.2305L91.617 80.451C91.5597 80.7671 91.5204 80.9388 91.4301 81.2388C88.1516 82.0516 82.472 83.5446 79.0305 84.6734C78.9849 84.7699 78.9458 84.8528 78.9132 84.9219L78.7866 84.9707L78.696 84.5806C79.04 83.5866 78.1111 83.5049 77.8694 82.3728Z" fill="#CA3B01"/>
<path d="M84.7865 51.7811C87.4849 54.4915 90.9684 62.7696 92.4384 66.5446C93.2018 68.505 93.8318 72.1343 94.6006 74.2467C94.8268 74.6155 94.9776 75.0211 95.1424 75.4194L95.8911 75.4025C95.8974 75.4626 95.9521 75.9828 95.9518 75.9834C95.4866 77.1642 92.8943 81.1191 91.5389 81.3047C91.3485 81.3294 91.1576 81.347 90.9664 81.3571C91.0991 81.0788 91.1604 80.9205 91.2556 80.6304L91.1135 80.4434L90.7901 79.9458L91.0861 80.0752L91.262 80.0076C91.0874 79.7148 90.9811 79.5235 90.9047 79.1844C90.6833 78.7141 89.6916 77.3115 89.3394 76.7473C88.4246 75.2491 87.5652 73.7209 86.7624 72.1651C83.8125 66.3754 83.61 58.1812 84.7865 51.7811Z" fill="#FE7037"/>
<path d="M92.5535 78.9488C92.5246 78.8881 92.497 78.8267 92.4707 78.7648C92.2917 78.3487 91.8812 76.3844 91.7015 75.7369C90.9638 73.1029 90.1901 70.4791 89.3806 67.8661C89.1709 67.1952 88.4912 65.4798 88.6921 64.9653L88.9344 64.9749C89.8976 66.3052 90.5376 69.0188 91.6618 70.3992C92.1538 71.0032 94.2256 74.7182 94.8163 74.7724L94.774 74.3923C94.9813 74.7528 95.124 75.1465 95.2786 75.5337L95.9301 75.5385C95.9372 75.5964 95.9994 76.0975 95.9992 76.0981C95.6272 77.2191 93.4807 80.9448 92.3058 81.0851C92.1406 81.1035 91.9749 81.115 91.8087 81.1194C91.9165 80.8558 91.9654 80.7055 92.0402 80.4296L91.9112 80.246L91.6156 79.759L91.877 79.8916L92.0283 79.8316C91.868 79.5455 91.7701 79.3588 91.6941 79.0309C91.8871 79.2953 92.0455 79.5981 92.3318 79.6794C92.5691 79.3996 92.5014 79.3838 92.5535 78.9488Z" fill="#D44C0F"/>
<path d="M93.0428 75.1611C93.9482 75.202 94.258 75.1983 95.1385 75.0451L95.7956 75.0698C95.8045 75.1339 95.8822 75.6889 95.882 75.6895C95.5402 76.9158 93.4863 80.9644 92.3055 81.0843C92.1395 81.0996 91.9726 81.1074 91.8052 81.1074C91.906 80.8196 91.9509 80.6551 92.0181 80.3528L91.8825 80.1463L91.57 79.5999L91.8375 79.7541L91.9883 79.6924C91.8182 79.3718 91.7139 79.1628 91.6275 78.7987C91.83 79.0962 91.9987 79.4352 92.2899 79.5334C92.5209 79.2316 92.4522 79.2121 92.4917 78.7336C92.8322 77.89 92.9468 76.1619 93.0428 75.1611Z" fill="#CD3D04"/>
<path d="M94.8005 77.5178C95.4577 77.4562 96.1072 77.3759 96.5656 77.7547C96.6045 78.3192 95.7394 79.154 95.2973 79.6509C95.1034 79.982 95.0043 80.2337 94.6279 80.4282L94.4377 80.3107C94.2923 79.4874 94.5902 78.3659 94.8005 77.5178Z" fill="#D44C0F"/>
<path d="M48.1394 48.5489C49.1166 48.0346 51.3392 47.4377 52.4366 47.1171C55.0017 46.3678 57.6261 45.7215 60.1884 44.9538C66.5507 43.0477 73.1253 40.6229 79.5643 39.0522C79.7957 40.883 79.9668 41.9932 80.6125 43.745C82.2767 48.2606 86.0356 51.0372 88.1966 55.2116C90.5029 59.7361 92.4622 64.4375 94.0556 69.2701C94.5435 70.7844 95.6482 75.4133 96.2228 76.5594L95.5455 76.5488C95.3814 76.1345 95.2297 75.7133 95.0112 75.327C94.2364 73.1337 93.5308 69.3913 92.7665 67.354C91.2948 63.4309 87.8321 54.8184 85.2876 51.9406C84.4605 58.4551 84.949 66.8594 87.8358 72.9021C88.6207 74.5262 89.4559 76.1241 90.3401 77.6935C90.68 78.2847 91.6303 79.759 91.8482 80.2491C91.9301 80.5994 92.0334 80.7994 92.2025 81.106L92.0457 81.1686L91.7728 81.025C91.3589 80.4286 90.9529 79.8266 90.5546 79.219C86.4784 73.2584 83.0918 62.7787 81.6724 55.6614C81.1686 53.1352 81.5055 51.295 80.6469 48.3054C79.2409 47.4173 78.5536 46.9488 76.8323 47.0131C76.3475 47.0312 76.0263 47.1352 75.5459 47.0378L75.4236 46.8297C75.7971 46.0634 77.4449 45.8763 77.5308 44.6756C77.0194 42.4223 71.9689 42.6229 70.3738 42.7153C67.1621 43.2918 64.4544 44.3291 61.3468 45.2686C58.0516 46.2645 54.6799 47.1292 51.396 48.1505C50.3303 48.3546 49.8162 48.4897 48.7706 48.8299L48.1394 48.5489Z" fill="#DE490E"/>
<path d="M69.9683 44.8602C71.3232 44.4963 72.4223 43.9448 73.7987 43.5205C76.0148 42.8371 78.2543 42.2393 80.4698 41.5757C80.4624 43.6038 80.6252 44.8673 81.1681 46.817C81.3156 47.3469 81.9002 49.2943 81.9235 49.7413C80.2952 48.9512 79.5016 48.5309 77.4337 48.7059C76.8513 48.7552 76.4595 48.8792 75.8897 48.8136L75.7565 48.6151C76.2539 47.8308 78.2417 47.5387 78.4222 46.342C77.9548 44.1398 71.8866 44.6654 69.9683 44.8602Z" fill="#FE7037"/>
<path d="M82.5907 78.8969C83.0982 77.4412 84.0906 75.5969 84.0084 74.2571C83.9705 73.6371 83.3234 72.6175 83.8852 72.0654C84.7702 72.1545 85.4843 73.4168 85.9929 73.872C87.3534 75.0906 87.9873 76.7815 87.7096 78.525C86.2255 80.6947 83.1141 81.0332 82.5907 78.8969Z" fill="#FEFEFE"/>
<path d="M50.7834 77.7229C50.6095 77.1416 50.2748 75.0412 50.1484 74.2771C49.3422 69.4028 48.5822 64.3377 48.5181 59.4226C48.5015 57.6627 49.1234 56.1314 49.1024 54.3576C49.0869 53.0493 46.9355 49.0432 47.4984 48.1692L48.1155 48.4656C47.9595 48.7668 47.9457 48.8377 48.08 49.2761C48.6257 51.0593 49.4659 52.9167 49.8313 54.7439C49.635 55.5373 49.4312 56.1044 49.527 56.9465C48.6824 60.6424 49.4231 64.4344 49.8576 68.2356C49.8981 68.5905 50.0123 69.1219 50.1147 69.4611C50.3788 72.2623 50.9378 74.7988 51.2761 77.4953C52.141 77.2099 55.2169 76.6099 55.991 77.1106L55.8582 77.2411C54.9272 77.126 53.6035 77.1948 52.665 77.2964C52.1725 77.3497 51.5183 77.6563 51.0769 77.6057L50.9279 77.2319L50.9743 77.7922L50.7834 77.7229Z" fill="#CA3B01"/>
<path d="M49.8344 50.3814C50.9938 50.009 51.5628 49.858 52.7398 49.6207C52.2721 53.1909 52.2469 54.4248 55.9347 55.7806C53.5747 56.583 52.9217 56.9587 51.0221 58.602C50.9544 57.7836 51.2126 57.2194 51.4733 56.4345C51.148 54.6663 50.2866 52.8917 49.7549 51.1753C49.6242 50.7533 49.6432 50.6833 49.8344 50.3814Z" fill="#FE7037"/>
<path d="M57.7172 51.2845C57.3644 50.8207 57.1443 50.2282 57.1018 49.6278C57.0716 49.2296 57.1605 48.8389 57.3659 48.579C57.8903 47.9151 68.7574 44.9209 70.2168 44.6139C70.6085 44.5314 71.0114 44.5336 71.4201 44.563C73.5186 45.2703 74.1026 48.073 72.4936 48.8409C69.7306 50.1595 61.7049 53.5927 58.8414 52.0942C58.4632 51.8454 58.0878 51.5584 57.7172 51.2845Z" fill="#FED9CA"/>
<path d="M71.3009 44.2048C73.4467 44.9949 74.0861 48.0004 72.4621 48.7951C69.6732 50.16 61.566 53.6999 58.6293 52.0515C58.2406 51.7794 57.8542 51.4666 57.4728 51.1677C57.4549 50.7115 57.4713 50.4444 57.4977 50.0095C58.1489 50.5904 58.0042 50.4638 58.6941 50.5916L58.7803 50.6073C61.4371 49.8746 64.0868 49.1176 66.7296 48.3364C67.4986 48.1131 70.088 47.2981 70.8147 47.2505C70.9551 47.1235 71.1375 46.9161 71.2748 46.7706C71.435 46.3135 71.3112 45.9693 71.1888 45.4289C71.2818 45.1979 71.3855 45.1453 71.5509 45.0102L71.3009 44.2048Z" fill="#FE7037"/>
<path d="M57.6122 50.9908C57.2946 50.5743 57.0967 50.0422 57.059 49.5027C57.0321 49.1449 57.1126 48.7937 57.2981 48.56C57.7716 47.9629 67.5725 45.262 68.8886 44.9848C69.2418 44.9102 69.605 44.9119 69.9735 44.9379L70.1837 45.6115C70.0351 45.7276 69.9424 45.7733 69.8566 45.9688C69.6178 45.8301 69.3286 45.6872 69.0842 45.7447C65.8923 46.4941 62.7614 47.5143 59.6009 48.3864C59.0224 48.5458 58.471 48.7064 57.9202 48.9495C57.6646 49.1993 57.6813 49.5848 57.651 50.0165C57.6214 50.3826 57.6029 50.6074 57.6122 50.9908Z" fill="#CA3B01"/>
<path d="M79.3302 64.789C81.4095 64.7174 82.847 68.4398 82.4293 69.622L82.1189 69.6572C81.2471 68.8526 78.9731 67.0083 78.8564 65.8096C78.8124 65.3584 79.0905 65.11 79.3302 64.789Z" fill="#FEFEFE"/>
<defs>
<filter id="filter0_dd_725_11005" x="13.1359" y="12.1549" width="111.84" height="114.672" filterUnits="userSpaceOnUse" color-interpolation-filters="sRGB">
<feFlood flood-opacity="0" result="BackgroundImageFix"/>
<feColorMatrix in="SourceAlpha" type="matrix" values="0 0 0 0 0 0 0 0 0 0 0 0 0 0 0 0 0 0 127 0" result="hardAlpha"/>
<feOffset dx="2" dy="2"/>
<feComposite in2="hardAlpha" operator="out"/>
<feColorMatrix type="matrix" values="0 0 0 0 0.898039 0 0 0 0 0.898039 0 0 0 0 0.898039 0 0 0 1 0"/>
<feBlend mode="normal" in2="BackgroundImageFix" result="effect1_dropShadow_725_11005"/>
<feColorMatrix in="SourceAlpha" type="matrix" values="0 0 0 0 0 0 0 0 0 0 0 0 0 0 0 0 0 0 127 0" result="hardAlpha"/>
<feOffset dy="3"/>
<feComposite in2="hardAlpha" operator="out"/>
<feColorMatrix type="matrix" values="0 0 0 0 0.898039 0 0 0 0 0.898039 0 0 0 0 0.898039 0 0 0 1 0"/>
<feBlend mode="normal" in2="effect1_dropShadow_725_11005" result="effect2_dropShadow_725_11005"/>
<feBlend mode="normal" in="SourceGraphic" in2="effect2_dropShadow_725_11005" result="shape"/>
</filter>
</defs>
</svg>
