<svg width="137" height="137" viewBox="0 0 137 137" fill="none" xmlns="http://www.w3.org/2000/svg">
<g filter="url(#filter0_dd_725_11047)">
<path d="M36.1799 33.9471C37.4417 33.5507 39.1845 33.1758 40.5148 32.8052L55.5622 28.664L71.8518 23.9864C74.5986 23.196 77.8148 22.1852 80.6017 21.507C80.8078 21.4568 81.0249 21.4724 81.2045 21.5854C82.707 22.531 86.5369 26.5038 87.7027 27.6376L97.9338 37.5564L109.626 48.8947C111.407 50.6335 113.416 52.5253 115.165 54.3358C115.459 54.6404 115.53 55.0993 115.392 55.4998C114.669 57.6077 113.471 62.9474 113.09 64.426L105.679 93.7077C105.124 95.8981 104.552 98.8973 103.751 101.04C103.694 101.192 103.155 101.332 102.969 101.385L72.4031 110.138C69.0503 111.079 65.5717 111.861 62.222 112.846C61.0707 113.185 59.5513 113.56 58.3485 113.978C58.0151 114.093 57.6426 114.044 57.3704 113.819C56.0582 112.736 54.6945 111.332 53.505 110.168L47.6881 104.509L31.0296 88.3495C28.6157 86.0142 26.2053 83.5949 23.7503 81.3001C23.5038 81.0698 23.3874 80.7318 23.4511 80.4006C23.9206 77.9598 24.9161 74.4701 25.5007 72.1302L30.1189 53.8678L33.1766 41.6938C33.7186 39.5126 34.2357 37.1143 34.9496 34.9915C35.1652 34.3509 35.5839 34.204 36.1799 33.9471Z" fill="#ABEAFE"/>
<path d="M34.6813 29.1774C35.4728 28.9287 36.3587 28.7031 37.1105 28.5154C37.9245 28.3122 38.5934 28.1505 39.1732 27.989L39.1883 27.9846L54.1827 23.8588L54.1824 23.8579L70.4699 19.1824L70.4697 19.1815C73.0347 18.4434 76.5001 17.3591 79.419 16.6488C80.5876 16.3644 82.2703 16.3487 83.8678 17.3542C85.1577 18.1661 86.8965 19.8218 88.0625 20.9536C88.7359 21.6072 89.393 22.2612 89.9434 22.8118C90.5118 23.3804 90.9243 23.7959 91.1826 24.0474L101.415 33.9668L113.106 45.3055L113.118 45.3165C114.805 46.9635 116.945 48.9819 118.761 50.8624C120.556 52.7205 120.771 55.228 120.122 57.1213C119.483 58.9863 118.425 63.748 117.936 65.6521L117.937 65.6528L110.526 94.9344L110.526 94.9354C110.097 96.6265 109.36 100.31 108.435 102.788C108.038 103.85 107.391 104.509 107.056 104.811C106.686 105.144 106.338 105.362 106.126 105.483C105.706 105.725 105.323 105.873 105.133 105.943C104.94 106.014 104.734 106.079 104.582 106.124L104.345 106.192L73.7799 114.945L73.7546 114.952C72.0079 115.442 70.2312 115.891 68.5493 116.32C66.8413 116.757 65.2122 117.178 63.6325 117.643C62.1308 118.085 61.0628 118.328 59.9872 118.701C58.1914 119.324 55.9498 119.131 54.1865 117.675C52.6646 116.418 51.0634 114.775 50.0179 113.752L44.2015 108.093L44.2013 108.092L27.5479 91.9382L27.5477 91.9372C25.0399 89.511 22.7546 87.2129 20.3361 84.9523C18.8874 83.598 18.1389 81.5448 18.5407 79.4559L18.7546 78.4234C19.3078 75.9027 20.203 72.7061 20.6498 70.9178L20.6519 70.9111L20.6531 70.9047L25.2718 52.6419L28.3241 40.488C28.8105 38.5307 29.4108 35.7752 30.2104 33.3975C30.6428 32.1122 31.4228 31.0458 32.494 30.272C33.2608 29.718 34.1724 29.368 34.2011 29.3558L34.436 29.2539L34.6813 29.1774Z" stroke="white" stroke-width="10"/>
</g>
<path d="M37.2661 36.6331C51.5001 32.473 65.7742 28.4517 80.0865 24.5698C81.1394 25.2775 84.6464 28.8142 85.7154 29.8539L96.6069 40.4281L105.913 49.4538C107.538 51.0072 110.754 53.9569 112.116 55.5949C112.019 56.6302 111.572 58.1929 111.302 59.2415C110.859 60.9424 110.425 62.6458 110.001 64.3515L104.681 85.4455L102.47 94.3064C102.214 95.3407 101.596 98.0485 101.215 98.9476C87.0208 103.306 72.4285 106.689 58.2956 111.078C57.4771 110.15 55.6628 108.5 54.7269 107.591L47.6137 100.691L26.3041 80.0336C26.87 77.2008 27.915 73.5485 28.6347 70.6764L33.3743 51.89L35.9066 41.7861C36.2068 40.5844 36.8527 37.7042 37.2661 36.6331Z" fill="#E0F7FD"/>
<path d="M66.131 91.492C63.9557 92.2963 58.6475 92.6931 55.887 92.8724C52.7984 93.2227 43.6002 91.629 42.7829 88.0647C41.807 83.8088 41.9643 74.66 43.6192 70.4928C45.5749 65.5678 51.6021 61.6047 56.3384 59.7131C57.1052 59.4069 60.6064 58.0954 60.9464 57.753C60.9225 57.4891 60.2471 56.9114 60.0503 56.4894C59.4167 55.0854 58.9077 53.2624 58.8903 51.7351C58.8465 47.9121 60.6306 44.628 61.6898 41.0736C61.8153 40.6521 61.4545 39.5695 61.7908 39.2112C62.1624 39.3842 63.1361 40.6165 63.6776 41.0562C66.3772 43.2485 70.0645 45.5538 71.3828 48.9515C72.0805 50.7492 72.6838 52.9533 71.8543 54.8097C73.0956 54.6521 73.8356 54.5482 75.0378 54.1942C74.9008 52.4171 74.3672 50.4954 73.68 48.8585C75.9009 49.0018 79.5906 50.7313 80.0152 53.1452C80.2627 53.4029 80.3359 53.3223 80.8001 53.3632C81.7749 53.1778 82.8126 53.2022 83.8033 53.2121C87.0838 53.2449 90.3849 53.6285 93.1641 55.527C96.1022 57.5342 103.6 67.6391 104.23 71.1601C104.444 72.3543 103.714 73.4821 103.045 74.4185C99.6758 79.1381 94.143 81.8532 89.0082 84.2269C87.1939 85.0656 85.3904 85.9238 83.5099 86.6063C80.4585 87.7137 77.3436 88.5624 74.2219 89.4437C71.7475 90.1423 68.8986 90.9994 66.4001 91.46C66.3116 91.4764 66.2207 91.4848 66.131 91.492Z" fill="#94A7EA"/>
<path d="M66.131 91.492C63.9557 92.2963 58.6475 92.6931 55.887 92.8724C52.7984 93.2227 43.6002 91.629 42.7829 88.0647C41.807 83.8088 41.9643 74.66 43.6192 70.4928C45.5749 65.5678 51.6021 61.6047 56.3384 59.7131C57.1052 59.4069 60.6064 58.0954 60.9464 57.753C60.9225 57.4891 60.2471 56.9113 60.0503 56.4894C59.4167 55.0854 58.9077 53.2624 58.8903 51.7351C58.8465 47.9121 60.6306 44.628 61.6898 41.0736C61.8153 40.6521 61.4545 39.5695 61.7908 39.2112C62.1624 39.3842 63.1361 40.6165 63.6776 41.0562C66.3772 43.2485 70.0645 45.5538 71.3828 48.9515C72.0805 50.7492 72.6838 52.9533 71.8543 54.8097C73.0956 54.6521 73.8356 54.5482 75.0378 54.1942C74.9008 52.4171 74.3672 50.4954 73.68 48.8585C75.9009 49.0018 79.5906 50.7313 80.0152 53.1452C80.2627 53.4029 80.3359 53.3223 80.8001 53.3632L80.8751 53.7276C80.3949 53.8448 79.9652 54.2142 79.8462 54.7012C80.1788 55.395 81.7735 54.811 82.5361 54.8367C85.4721 54.9354 90.3005 54.3338 92.2797 56.8975C93.7709 59.4503 89.1331 62.5934 87.2761 63.7747C83.9299 65.8611 78.1451 68.5102 74.3708 69.454C73.941 69.5969 72.1286 70.1714 71.8504 70.3667C70.9252 70.6987 68.6546 71.1446 67.5269 71.4417L67.5852 71.0086C66.2202 71.2943 64.8483 71.5544 63.4862 71.8515C61.5351 72.3681 57.3639 72.7372 55.2559 72.8483C52.6242 72.868 49.2152 73.0212 47.0877 71.1977C46.0917 70.3441 46.5909 69.3455 47.3566 68.5811C48.2271 67.7121 49.9682 67.2786 51.1818 67.2831C51.709 67.2511 51.9391 67.242 52.4607 67.2968L52.9146 67.0935L52.7896 67.0072C51.4118 67.4026 50.8705 66.3983 48.8492 66.7167C49.4985 65.4092 58.2784 61.0743 59.9409 60.5837C59.5854 60.6372 59.5316 60.646 59.1753 60.5313C57.0621 61.1134 55.2395 62.4244 53.4648 63.1225C53.3832 62.8556 52.8527 62.4852 52.5385 62.0948C49.5391 63.956 44.7845 67.5905 43.9444 71.2074C43.899 71.4049 43.8585 71.6036 43.8226 71.8032C44.9567 73.5948 44.7979 78.713 45.9397 80.0964C45.8931 80.896 45.6582 82.4462 46.077 83.0103C46.6209 83.0299 46.8988 82.5477 47.2368 82.151C49.4762 84.5981 52.2007 85.1684 54.945 86.6438C58.6544 88.6379 61.6372 90.4064 66.0066 90.4912C66.2739 90.4972 66.5754 90.674 66.8356 90.7219C67.409 90.6172 67.8348 90.545 68.4209 90.4919C68.0168 91.146 66.8963 91.1089 66.131 91.492Z" fill="#22368B"/>
<path d="M53.1325 67.2211C55.9143 67.0241 58.3299 64.0189 60.7279 62.5516C61.8186 61.8739 63.3785 60.8756 64.6596 60.588C67.5359 59.942 70.3604 58.8745 73.188 58.174C73.7158 58.0432 75.4812 58.2599 75.9901 58.3451C78.8066 58.8163 80.7839 58.6516 83.3962 57.4144C85.4514 56.6571 86.7143 56.7549 88.8815 56.9327C89.4817 56.982 90.8757 56.4093 91.4168 56.7376C94.3281 58.5039 88.3585 62.6111 87.219 63.2621L86.9277 63.4289L86.2946 63.8496C83.196 65.6034 80.0975 67.0984 76.7133 68.2057C76.2979 68.3417 74.1937 69.0473 73.9865 69.1939L74.2495 69.2459L74.3708 69.454C73.941 69.597 72.1286 70.1714 71.8504 70.3667C70.9252 70.6987 68.6546 71.1447 67.5269 71.4417L67.5852 71.0087C66.2202 71.2943 64.8482 71.5544 63.4862 71.8516C61.535 72.3681 57.3638 72.7372 55.2559 72.8483C52.6242 72.8681 49.2152 73.0212 47.0877 71.1978C46.0917 70.3442 46.5909 69.3456 47.3566 68.5811C48.2271 67.7122 49.9682 67.2786 51.1818 67.2831C51.709 67.2512 51.9391 67.2421 52.4607 67.2968L53.1325 67.2211Z" fill="#ABEAFE"/>
<path d="M51.1817 67.2831C51.709 67.2511 51.939 67.242 52.4606 67.2968L53.1325 67.2211C55.029 69.0838 57.1763 68.4247 59.2999 67.4468C58.3629 68.5913 56.8117 69.9876 55.1967 69.7815C54.9776 69.9989 54.4246 69.9799 54.156 69.8854C52.4308 69.2794 52.224 68.891 50.4787 69.525C50.2806 69.5043 50.3406 69.5094 50.1595 69.3686C49.9121 68.6671 50.7385 67.7759 51.1817 67.2831Z" fill="#4CD2FE"/>
<path d="M50.4787 69.525C51.3774 66.9515 53.8647 69.2312 55.1967 69.7815C54.9776 69.9988 54.4246 69.9798 54.1561 69.8854C52.4308 69.2794 52.224 68.891 50.4787 69.525Z" fill="#E0F7FD"/>
<path d="M86.2946 63.8496C85.9754 63.8639 85.1988 63.7374 84.6839 63.7374C84.05 63.7375 83.4476 63.902 83.0204 63.8944L82.9499 63.7474C83.3064 63.0294 84.8111 62.5742 85.5636 62.1436C86.3249 61.7082 87.4974 60.5719 88.2482 60.5938C87.8613 61.2753 87.1018 61.9622 86.9652 62.3627C87.2135 62.8425 87.1019 63.1093 87.219 63.2621L86.9277 63.4289L86.2946 63.8496Z" fill="#4CD2FE"/>
<path d="M67.5852 71.0087C69.3692 70.6745 72.2824 69.8163 73.9865 69.1939L74.2495 69.2459L74.3709 69.454C73.941 69.597 72.1287 70.1714 71.8504 70.3667C70.9252 70.6987 68.6546 71.1447 67.5269 71.4418L67.5852 71.0087Z" fill="#0C1E6F"/>
<path d="M88.2482 60.5938L88.4855 60.3232L88.6408 60.3675C88.9069 61.1915 87.9604 62.0387 87.3066 62.3806L86.9653 62.3627C87.1018 61.9622 87.8613 61.2753 88.2482 60.5938Z" fill="#E0F7FD"/>
<path d="M68.2971 64.6229C67.9793 64.8233 67.7173 65.0389 67.3475 65.0339L67.3198 64.8783C68.1577 63.6892 70.2757 62.5544 71.6951 62.3656C74.9338 61.9349 78.1935 62.5743 81.4207 61.7088C82.1131 61.5231 82.7565 61.4112 83.3874 61.0287C84.0333 60.72 84.7314 59.7826 85.1383 59.7695C85.15 60.3033 84.5201 61.3124 84.145 61.6986C82.9512 62.9284 81.0268 63.4038 79.3655 63.5233C79.0704 63.5446 78.9048 63.3138 78.5587 63.3883C77.4339 64.472 73.0903 63.7101 71.5598 63.9367C70.7405 64.0578 68.9929 64.8079 68.2971 64.6229Z" fill="#4CD2FE"/>
<path d="M68.2971 64.6229C70.3039 62.9538 72.351 63.139 74.7587 63.247C76.0247 63.3116 77.2914 63.3587 78.5586 63.3884C77.4338 64.472 73.0903 63.7101 71.5598 63.9367C70.7404 64.0579 68.9928 64.808 68.2971 64.6229Z" fill="#E0F7FD"/>
<path d="M60.9365 69.7603C64.3651 63.946 68.6657 70.4801 72.2501 65.4002C72.0946 66.472 71.8696 67.2126 70.999 67.9521C70.6661 68.2349 70.1489 68.3887 69.7553 68.1549C69.2364 68.8323 68.6154 68.3841 67.5011 68.8112L67.623 68.9284C67.3662 69.1233 67.0436 69.1309 66.7395 69.0687C63.8775 68.4833 63.5273 68.2335 60.9365 69.7603Z" fill="#4CD2FE"/>
<path d="M67.5011 68.8112L67.3143 68.5002C67.5725 67.9584 69.2265 68.0097 69.7553 68.1548C69.2364 68.8322 68.6154 68.384 67.5011 68.8112Z" fill="#E0F7FD"/>
<path d="M61.1523 64.368C61.0096 64.6823 60.6398 65.1314 60.2819 65.1768C60.1626 64.9731 60.1125 64.9503 60.1783 64.6661C60.6238 62.7439 63.3497 62.6533 64.8502 61.9012C65.4932 61.5789 65.8143 61.3184 66.3513 60.9188C66.0233 62.0085 64.994 63.5971 63.7411 63.6819C63.3225 63.5255 63.4497 63.6297 63.2036 63.3126C62.9422 63.7434 61.9356 64.1915 61.462 64.4017L61.1523 64.368Z" fill="#4CD2FE"/>
<path d="M61.1522 64.3681C61.5411 63.5271 62.3181 63.2286 63.2035 63.3126C62.9421 63.7434 61.9355 64.1915 61.462 64.4017L61.1522 64.3681Z" fill="#E0F7FD"/>
<path d="M70.7803 59.7672C71.438 59.6359 73.6396 59.7567 73.9206 60.3545L73.6806 60.6322C72.9553 60.7961 71.1237 60.7819 70.5039 60.3647C70.4666 60.0456 70.5289 60.0862 70.7803 59.7672Z" fill="#4CD2FE"/>
<path d="M43.4092 88.5469C42.4486 85.0349 42.2869 75.0351 43.8226 71.8033C44.9567 73.5949 44.7979 78.7131 45.9397 80.0965C45.8931 80.8961 45.6583 82.4463 46.077 83.0104C46.621 83.03 46.8988 82.5478 47.2368 82.1511C49.4762 84.5983 52.2007 85.1685 54.9451 86.6439C58.6544 88.638 61.6372 90.4065 66.0067 90.4913C66.2739 90.4973 66.5755 90.6741 66.8356 90.722C64.6556 91.6415 58.6399 92.4084 56.2313 92.3964C51.3675 92.3722 47.0232 91.9974 43.4092 88.5469Z" fill="#728AD9"/>
<path d="M46.4231 84.4421C47.5911 84.6113 48.8158 85.223 49.6124 86.1149L49.5357 87.7159C48.5924 88.4062 48.0143 88.3686 47.0865 87.7794C46.6575 86.3731 46.5605 85.9154 46.4231 84.4421Z" fill="#E0F7FD"/>
<path d="M62.0897 41.4253C63.095 41.9834 63.3453 42.9383 64.0873 43.7205C65.5864 45.3008 66.9245 46.4818 67.9088 48.4649C69.5636 51.7984 68.9989 56.2491 65.4795 58.1109C64.9653 58.383 64.7491 58.3433 64.4051 58.9C64.2642 58.874 64.1243 58.8426 63.9859 58.8059C60.126 57.7976 59.1692 53.77 59.4858 50.2798C59.7838 46.9949 61.2585 44.5128 62.0897 41.4253Z" fill="#ABEAFE"/>
<path d="M62.1451 48.1914C63.5746 48.7752 64.477 53.0076 62.6686 53.9926C60.3087 53.3945 61.7786 49.829 62.1451 48.1914Z" fill="#E0F7FD"/>
<path d="M62.2168 44.0724C64.3121 43.8918 63.5427 45.6325 63.0435 46.7631C62.977 46.8355 62.8027 46.9637 62.7174 47.0309L62.4619 46.9948C61.8236 46.3803 61.9099 44.8405 62.2168 44.0724Z" fill="#E0F7FD"/>
<path d="M68.7218 57.8332L68.912 57.9995C69.2846 57.9139 69.6669 57.6175 70.0405 57.474C72.5962 56.485 75.21 56.0677 77.9335 55.9785C78.5648 55.9578 79.7689 55.5092 80.4574 55.3986C82.1499 55.1269 89.8502 54.7973 90.4837 56.2591C88.95 56.891 87.7716 56.1137 86.3438 56.2926L86.2602 56.3026C85.6274 56.3823 83.6249 56.9774 83.0576 57.2794L83.0359 57.377C83.1292 57.3882 83.3107 57.4161 83.3962 57.4144C80.784 58.6516 78.8066 58.8163 75.9901 58.3451C75.4812 58.26 73.7158 58.0433 73.188 58.1741C70.3604 58.8746 67.5359 59.942 64.6596 60.588C63.3785 60.8757 61.8186 61.8739 60.7279 62.5516C58.3299 64.019 55.9143 67.0242 53.1325 67.2212L52.4607 67.2968L52.9146 67.0936L52.7896 67.0073C51.4118 67.4027 50.8705 66.3984 48.8492 66.7168C49.4985 65.4092 58.2784 61.0743 59.9409 60.5837C61.4318 59.8658 63.0355 59.4109 64.6813 59.2392C65.0696 59.1998 65.028 59.1691 65.2509 58.9038C65.3154 58.8789 66.164 58.6891 66.3258 58.6479C67.2198 58.4199 67.8755 58.185 68.7218 57.8332Z" fill="#4E63B0"/>
<path d="M62.0897 41.4253C62.1517 41.087 62.2104 40.7368 62.2878 40.4031C63.3728 41.6025 65.301 42.9419 66.6169 43.9376C70.9993 47.2541 74.6256 53.9823 68.7217 57.8332C67.8754 58.185 67.2197 58.4199 66.3257 58.6479C66.1639 58.6892 65.3154 58.8789 65.2509 58.9038C64.9784 58.9121 64.6797 58.9027 64.4051 58.9C64.7491 58.3433 64.9653 58.383 65.4795 58.111C68.9989 56.2491 69.5636 51.7984 67.9088 48.4649C66.9245 46.4819 65.5864 45.3008 64.0873 43.7205C63.3453 42.9384 63.0949 41.9835 62.0897 41.4253Z" fill="#4CD2FE"/>
<path d="M52.5385 62.0948C54.7269 61.0565 59.2516 58.7238 61.5344 58.166C62.0655 58.4621 62.6376 58.7946 63.1729 59.0712C61.9143 59.303 60.3921 60.0137 59.1753 60.5313C57.0622 61.1134 55.2395 62.4244 53.4648 63.1225C53.3833 62.8556 52.8527 62.4852 52.5385 62.0948Z" fill="#728AD9"/>
<path d="M74.9091 50.8094C74.7486 50.2949 74.5958 49.7779 74.4505 49.2589C76.7658 50.1706 80.6207 51.7409 79.2932 54.9484C79.2491 55.0544 79.2038 55.1601 79.1573 55.2651C78.6497 55.4087 78.0638 55.5907 77.5558 55.7034C75.1286 55.2723 75.5254 52.6331 74.9091 50.8094Z" fill="#4CD2FE"/>
<path d="M74.9091 50.8094C76.6321 51.5627 78.3658 53.7752 77.5559 55.7034C75.1286 55.2724 75.5255 52.6331 74.9091 50.8094Z" fill="#ABEAFE"/>
<path d="M71.631 55.4972C72.6492 55.1986 74.4183 54.6335 75.4523 54.8986C75.7357 55.1283 75.6604 55.0056 75.7377 55.3584C75.5607 55.6706 75.5032 55.5959 75.0448 55.7368C73.5851 55.9758 72.1886 56.3966 70.785 56.8495C71.0721 56.4019 71.3541 55.9511 71.631 55.4972Z" fill="#728AD9"/>
<path d="M80.8 53.3633C81.7748 53.1778 82.8125 53.2022 83.8032 53.2122C87.0837 53.245 90.3849 53.6285 93.164 55.5271C96.1021 57.5342 103.6 67.6391 104.23 71.1602C104.444 72.3543 103.714 73.4822 103.045 74.4186C99.6757 79.1382 94.1429 81.8533 89.0081 84.2269C87.1939 85.0656 85.3903 85.9238 83.5098 86.6063C80.4584 87.7138 77.3435 88.5625 74.2218 89.4437C71.7474 90.1423 68.8985 90.9994 66.4 91.4601C66.3115 91.4764 66.2206 91.4848 66.1309 91.4921C66.8962 91.109 68.0167 91.146 68.4208 90.492C70.2868 90.0766 72.3865 89.4115 74.2592 88.8914C75.333 88.5933 77.9322 87.9776 78.8271 87.6023C79.5716 87.2411 80.1668 86.8606 80.8325 86.3773C86.2489 82.4464 92.0862 78.9255 96.8304 74.1589C98.591 72.3898 99.8752 70.407 100.35 67.9239C100.501 67.137 100.503 66.3071 100.559 65.5037C99.3199 63.1527 96.3052 59.2557 94.4926 57.2937C94.4331 57.2131 94.3712 57.1343 94.3069 57.0575C92.2698 54.6337 87.4093 53.6406 84.3729 53.6739C83.5013 53.6835 81.7114 53.8169 80.9477 53.7359L80.875 53.7276L80.8 53.3633Z" fill="#728AD9"/>
<path d="M80.8 53.3633C81.7748 53.1778 82.8125 53.2022 83.8032 53.2122C87.0837 53.245 90.3849 53.6285 93.164 55.5271C96.1021 57.5342 103.6 67.6391 104.23 71.1602C104.444 72.3543 103.714 73.4822 103.045 74.4186C99.6757 79.1382 94.1429 81.8533 89.0081 84.2269C87.1939 85.0656 85.3903 85.9238 83.5098 86.6063C80.4584 87.7138 77.3435 88.5625 74.2218 89.4437C71.7474 90.1423 68.8985 90.9994 66.4 91.4601C66.3115 91.4764 66.2206 91.4848 66.1309 91.4921C66.8962 91.109 68.0167 91.146 68.4208 90.492C70.2868 90.0766 72.3865 89.4115 74.2592 88.8914C75.333 88.5933 77.9322 87.9776 78.8271 87.6023C79.2998 87.4718 79.887 87.4968 80.3261 87.3477C82.0262 86.7711 83.9215 86.0461 85.5404 85.3025C91.4218 82.6011 101.321 78.4163 103.796 72.0354C103.047 68.6929 102.743 68.2574 100.559 65.5037C99.3199 63.1527 96.3052 59.2557 94.4926 57.2937C94.4331 57.2131 94.3712 57.1343 94.3069 57.0575C92.2698 54.6337 87.4093 53.6406 84.3729 53.6739C83.5013 53.6835 81.7114 53.8169 80.9477 53.7359L80.875 53.7276L80.8 53.3633Z" fill="#22368B"/>
<path d="M80.875 53.7276L80.9477 53.7359C81.7114 53.8169 83.5014 53.6835 84.373 53.6739C87.4093 53.6406 92.2698 54.6337 94.307 57.0575C94.3712 57.1343 94.4332 57.2131 94.4926 57.2937C94.0731 57.8025 94.031 59.2885 93.3645 60.1201C92.3138 62.5819 90.4918 64.5583 88.1881 65.9099C87.8471 66.2239 87.5288 66.5791 87.0863 66.6964C86.5128 66.6318 83.4133 68.2464 82.6845 68.5751C79.0369 70.2199 75.4659 71.7237 71.5694 72.6911C69.8646 73.1144 68.2168 73.7425 66.4493 74.0017C66.6359 73.9028 67.2129 73.4771 67.4803 73.3258C68.362 72.8273 71.5366 71.363 71.8504 70.3667C72.1286 70.1714 73.941 69.597 74.3708 69.4541C78.1451 68.5102 83.9299 65.8612 87.2761 63.7748C89.1331 62.5934 93.7709 59.4504 92.2796 56.8975C90.3005 54.3339 85.4721 54.9355 82.5361 54.8367C81.7735 54.811 80.1788 55.395 79.8462 54.7012C79.9651 54.2143 80.3948 53.8449 80.875 53.7276Z" fill="#728AD9"/>
<path d="M88.1881 65.9099L88.0276 65.8518L87.9543 65.694C88.1642 65.2556 90.7704 63.6165 91.3051 62.7859C91.7436 62.1049 92.7356 60.3412 93.3645 60.1201C92.3138 62.5818 90.4918 64.5583 88.1881 65.9099Z" fill="#22368B"/>
<path d="M45.9396 80.0965C47.3639 77.6768 51.0689 76.5666 53.6972 77.9478C56.1851 79.2552 53.6768 80.9979 51.9783 81.0465C50.3557 81.3106 48.6589 81.5466 47.2367 82.1511C46.8988 82.5477 46.6209 83.03 46.077 83.0104C45.6582 82.4463 45.893 80.896 45.9396 80.0965Z" fill="#E0F7FD"/>
<path d="M87.0863 66.6964C86.5112 67.4275 84.2838 68.3496 83.3797 68.7668C76.9074 71.754 70.0221 74.0138 62.9756 75.1301C62.3318 75.2321 61.6099 75.2772 60.9542 75.3476C55.8099 75.901 50.0528 76.4108 45.4098 73.6811C45.2203 73.5696 45.0806 73.3531 45.0257 73.1451C45.5525 73.0859 47.0349 74.1253 47.6315 74.3022C48.3584 74.5179 49.2924 74.7713 50.0189 74.9028C54.5933 75.7315 61.9309 75.0413 66.4494 74.0018C68.2168 73.7425 69.8646 73.1145 71.5695 72.6912C75.466 71.7238 79.0369 70.22 82.6845 68.5751C83.4133 68.2465 86.5128 66.6319 87.0863 66.6964Z" fill="#22368B"/>
<path d="M53.4647 63.1225C55.2394 62.4244 57.062 61.1134 59.1752 60.5313C59.5315 60.646 59.5853 60.6372 59.9408 60.5837C58.2783 61.0743 49.4984 65.4092 48.8491 66.7168C50.8705 66.3983 51.4117 67.4026 52.7895 67.0072L52.9145 67.0935L52.4606 67.2968C51.939 67.242 51.709 67.2511 51.1817 67.2831C49.9682 67.2786 48.227 67.7121 47.3565 68.5811C46.5908 69.3456 46.0916 70.3441 47.0876 71.1977C49.2151 73.0212 52.6242 72.868 55.2558 72.8483C57.3638 72.7372 61.535 72.3681 63.4861 71.8515L63.3329 72.3429C59.8245 72.8626 49.1631 74.9102 46.5469 71.1952C44.4719 68.2488 51.2554 64.4112 53.4647 63.1225Z" fill="#263A8D"/>
<path d="M63.4861 71.8516C64.8482 71.5545 66.2201 71.2944 67.5852 71.0087L67.5269 71.4418C65.9437 71.9735 64.9772 72.1373 63.3329 72.343L63.4861 71.8516Z" fill="#22368B"/>
<path d="M95.4782 62.8525C97.981 61.9404 98.7 66.2744 98.7134 67.9595C95.8826 68.4815 92.8938 68.892 90.2207 70.0442C88.5674 70.7567 86.4961 71.6814 84.9464 72.5726C81.8878 74.3312 80.2241 75.2452 76.7147 75.6891C76.0181 75.7954 73.963 76.2157 73.7218 75.3861C74.0379 75.0533 79.5992 72.755 80.4694 72.3784C86.2757 69.8659 90.5137 66.5705 95.4782 62.8525Z" fill="#728AD9"/>
<path d="M55.4153 48.6266C55.6515 48.5922 55.5471 48.5665 55.7395 48.7006C55.7364 48.9601 55.7269 50.0497 55.7778 50.2112C56.2962 51.843 57.1471 53.2958 56.968 55.0743C56.7983 56.7607 55.6604 57.4164 54.0394 57.2063C50.3432 55.3774 52.8958 50.415 55.4153 48.6266Z" fill="#22368B"/>
<path d="M53.9882 50.7321C54.3851 50.1504 54.7138 49.7549 55.1662 49.2166C55.674 51.1161 57.0325 54.1956 56.1752 56.0256C55.6265 57.1972 54.1782 56.7201 53.2935 56.2277C52.2275 54.2361 52.8134 52.4883 53.9882 50.7321Z" fill="#4CD2FE"/>
<path d="M53.9882 50.7321C54.5108 51.2456 54.7802 52.7088 54.7814 53.4045C54.7841 54.8796 54.4061 55.4472 53.2935 56.2277C52.2274 54.2361 52.8134 52.4883 53.9882 50.7321Z" fill="#ABEAFE"/>
<defs>
<filter id="filter0_dd_725_11047" x="13.4326" y="11.4822" width="114.021" height="115.553" filterUnits="userSpaceOnUse" color-interpolation-filters="sRGB">
<feFlood flood-opacity="0" result="BackgroundImageFix"/>
<feColorMatrix in="SourceAlpha" type="matrix" values="0 0 0 0 0 0 0 0 0 0 0 0 0 0 0 0 0 0 127 0" result="hardAlpha"/>
<feOffset dy="3"/>
<feComposite in2="hardAlpha" operator="out"/>
<feColorMatrix type="matrix" values="0 0 0 0 0.898039 0 0 0 0 0.898039 0 0 0 0 0.898039 0 0 0 1 0"/>
<feBlend mode="normal" in2="BackgroundImageFix" result="effect1_dropShadow_725_11047"/>
<feColorMatrix in="SourceAlpha" type="matrix" values="0 0 0 0 0 0 0 0 0 0 0 0 0 0 0 0 0 0 127 0" result="hardAlpha"/>
<feOffset dx="2" dy="2"/>
<feComposite in2="hardAlpha" operator="out"/>
<feColorMatrix type="matrix" values="0 0 0 0 0.898039 0 0 0 0 0.898039 0 0 0 0 0.898039 0 0 0 1 0"/>
<feBlend mode="normal" in2="effect1_dropShadow_725_11047" result="effect2_dropShadow_725_11047"/>
<feBlend mode="normal" in="SourceGraphic" in2="effect2_dropShadow_725_11047" result="shape"/>
</filter>
</defs>
</svg>
